<?xml version="1.0" standalone="no"?>
<!DOCTYPE svg PUBLIC "-//W3C//DTD SVG 1.1//EN" "http://www.w3.org/Graphics/SVG/1.1/DTD/svg11.dtd" >
<svg>
<metadata>
Created by FontForge 20090914 at Thu Oct  3 23:17:31 2013
 By www-data
Copyright (c) 2012 by Ania Kruk (hello@aniakruk.com), with Reserved Font Name "Kotta"
</metadata>
<defs>
<font id="KottaOne-Regular" horiz-adv-x="400" >
  <font-face 
    font-family="Kotta One"
    font-weight="400"
    font-stretch="normal"
    units-per-em="1000"
    panose-1="2 0 0 0 0 0 0 0 0 0"
    ascent="800"
    descent="-200"
    x-height="479.999"
    cap-height="686.998"
    bbox="-96.999 -288.001 1088 915"
    underline-thickness="50"
    underline-position="-50"
    unicode-range="U+0020-U+FB02"
  />
<missing-glyph horiz-adv-x="0" 
 />
    <glyph glyph-name=".notdef" horiz-adv-x="0" 
 />
    <glyph glyph-name="space" unicode=" " horiz-adv-x="200" 
 />
    <glyph glyph-name="exclam" unicode="!" horiz-adv-x="259" 
d="M80 75.5c12.667 6.33301 25.666 9.5 38.999 9.5s23.833 -3 31.5 -9s11.5 -12.667 11.5 -20l-5 -36c-7.33301 -20 -28.666 -30 -63.999 -30c-13.333 0 -23.5 3 -30.5 9s-10.5 13 -10.5 21l4 31c3.33301 10 11.333 18.167 24 24.5zM112.999 166l-23.001 4.99902
c5.33301 32.667 11.333 101.334 18 206.001s10 205.667 10 303l78 16l14 -16c-13.333 -78 -27.166 -172.833 -41.499 -284.5s-21.5 -186.5 -21.5 -224.5c-8.66699 -3.33301 -20 -5 -34 -5z" />
    <glyph glyph-name="quotedbl" unicode="&#x22;" horiz-adv-x="339" 
d="M79 485l-23 5.00098c9.33301 68 14 137.667 14 209l65 16l14 -16c-24 -104.667 -36 -174.334 -36 -209.001c-8.66699 -3.33301 -20 -5 -34 -5zM216 485.001l-23 5.00098c9.33301 68 14 137.667 14 209l65 16l14 -16c-24 -104.667 -36 -174.334 -36 -209.001
c-8.66699 -3.33301 -20 -5 -34 -5z" />
    <glyph glyph-name="numbersign" unicode="#" horiz-adv-x="640" 
d="M402 -10l-27.999 4.99902c5.33301 38 12.333 104.667 21 200h-168c-10.667 -99.333 -16 -166 -16 -200c-12 -3.33301 -25 -5 -39 -5l-28 5c5.33301 38 12.333 104.667 21 200h-110c-3.33301 7.33301 -5 15 -5 23l5 34h115c5.33301 59.333 9 108 11 146h-126
c-3.33301 7.33301 -5 15 -5 23l5 34h130c6 98.667 9 173.667 9 225l78 16l14 -16c-6 -33.333 -16.333 -108.333 -31 -225c66.667 0 120 0.666992 160 2c6 98.667 9 173 9 223l78 16l14 -16c-7.33301 -42 -17.333 -115.333 -30 -220
c21.333 0.666992 46.666 2.33398 75.999 5.00098l16 -14l-13 -53h-86c-8 -64 -13.333 -111.667 -16 -143c45.333 2.66699 78.333 5 99 7l16 -14l-13 -53h-108c-10.667 -99.333 -16 -166 -16 -200c-12 -3.33301 -25 -5 -39 -5zM249.001 397.999
c-8 -64 -13.335 -112.667 -16.002 -146c68.667 0 124.334 0.666992 167.001 2c4.66699 56.667 8.33398 104.667 11.001 144h-162z" />
    <glyph glyph-name="dollar" unicode="$" horiz-adv-x="534" 
d="M259 609l1.00293 56.999l67 13l12 -13l-8 -49c30 0 56.833 -5.16699 80.5 -15.5s37.5 -22.5 41.5 -36.5c-12.667 -24 -22.334 -52.667 -29.001 -86l-4 -17c-14.667 -6 -30.334 -9 -47.001 -9c4.66699 15.333 7 30.333 7 45c0 34 -7.33301 56.333 -22 67h-34l-25 -214
c48.667 -31.333 84 -59 106 -83s33 -49.333 33 -76c0 -55.333 -15.333 -99.166 -46 -131.499s-74 -52.166 -130 -59.499c-2 -28 -3 -48.333 -3 -61c-10.667 -3.33301 -22.334 -5 -35.001 -5l-24 5l7 57c-48.667 0 -86 6.16699 -112 18.5s-42.667 27.166 -50 44.499
c13.333 23.333 23.666 51.333 30.999 84l3 17c14.667 5.33301 30.334 8 47.001 8c-4.66699 -11.333 -7 -26 -7 -44c0 -32.667 7.33301 -54.334 22 -65.001h73c6 56 13.667 135.667 23 239c-42 24 -72.5 46.167 -91.5 66.5s-28.5 45.833 -28.5 76.5
c0 90.667 47.333 146.334 142 167.001zM362.003 159.999c0 36.667 -24.333 72 -73 106c-11.333 -105.333 -18.333 -174 -21 -206h47c31.333 20.667 47 54 47 100zM184.003 470.999c0 -29.333 20 -58 60 -86c6.66699 88.667 11 148.667 13 180
c-23.333 -8 -41.333 -21.333 -54 -40s-19 -36.667 -19 -54z" />
    <glyph glyph-name="percent" unicode="%" horiz-adv-x="755" 
d="M117.5 367.5c-19 16.333 -28.5 42.001 -28.5 77.001s14 68.5 42 100.5s57.667 48 89 48s56.5 -8.5 75.5 -25.5s28.5 -42.833 28.5 -77.5s-13.667 -67.834 -41 -99.501s-59.333 -47.5 -96 -47.5c-27.333 0 -50.5 8.16699 -69.5 24.5zM195 542.001
c-31.333 -17.333 -47 -44.168 -47 -80.501s12.667 -59.166 38 -68.499h37c12 4.66699 21.833 15 29.5 31s11.5 33 11.5 51c0 32.667 -11.667 55 -35 67h-34zM440.5 14.499c-19 16.333 -28.5 42.001 -28.5 77.001s14 68.5 42 100.5s57.667 48 89 48s56.5 -8.5 75.5 -25.5
s28.5 -42.833 28.5 -77.5s-13.667 -67.834 -41 -99.501s-59.333 -47.5 -96 -47.5c-27.333 0 -50.5 8.16699 -69.5 24.5zM518 189c-31.333 -17.333 -47 -44.167 -47 -80.5s12.667 -59.166 38 -68.499h37c12 4.66699 21.833 15 29.5 31s11.5 33 11.5 51
c0 33.333 -11.667 55.666 -35 66.999h-34zM142 -15.001l-30.001 5l236.5 314c57 79.333 127.833 186.333 212.5 321l92 16l4 -16l-92.5 -120.5l-90 -117l-74.5 -100.5l-212 -297c-17.333 -3.33301 -32.666 -5 -45.999 -5z" />
    <glyph glyph-name="ampersand" unicode="&#x26;" horiz-adv-x="690" 
d="M439.5 661.5c19.667 -19 29.5039 -40.5 29.5039 -64.5s-3.33301 -45.5 -10 -64.5s-13.834 -34.5 -21.501 -46.5s-20.334 -26.167 -38.001 -42.5s-31 -27.833 -40 -34.5l-47.5 -35c39.333 -64 98.666 -136.333 177.999 -217c17.333 23.333 32.333 45 45 65
c19.333 -6.66699 33.666 -16.667 42.999 -30l4 -6c-19.333 -28 -36.666 -51.333 -51.999 -70c29.333 -29.333 58.333 -56.666 87 -81.999v-13l-64 -51c-30 28.667 -57 56 -81 82c-31.333 -28.667 -62 -47 -92 -55s-70.167 -12 -120.5 -12s-92 13 -125 39s-49.5 64 -49.5 114
s12.333 93.167 37 129.5s59 71.5 103 105.5c-30 58 -45 109.167 -45 153.5s16.667 82.666 50 114.999s71.666 48.5 114.999 48.5s74.833 -9.5 94.5 -28.5zM169.004 167c0 -27.333 6.83203 -50.8291 20.499 -70.4961s33.167 -31.834 58.5 -36.501h113
c1.33301 0 4.33301 0.666992 9 2s8 2.16602 10 2.49902s5.16699 1.16602 9.5 2.49902s8 2.66602 11 3.99902s6.5 3 10.5 5c4.66699 2 12.334 7.66699 23.001 17c-79.333 86 -140 164 -182 234c-55.333 -48 -83 -101.333 -83 -160zM251.003 545.004
c0 -38.667 12 -81.002 36 -127.002c36.667 27.333 64.167 52.333 82.5 75s27.5 49.834 27.5 81.501s-9.66699 51.834 -29 60.501h-64c-16 -5.33301 -28.833 -16.833 -38.5 -34.5s-14.5 -36.167 -14.5 -55.5z" />
    <glyph glyph-name="quotesingle" unicode="'" horiz-adv-x="185" 
d="M79 485l-23 5.00098c9.33301 68 14 137.667 14 209l65 16l14 -16c-24 -104.667 -36 -174.334 -36 -209.001c-8.66699 -3.33301 -20 -5 -34 -5z" />
    <glyph glyph-name="parenleft" unicode="(" horiz-adv-x="285" 
d="M57 214c0 169.333 58.999 335.667 176.999 499c7.33301 0 14 -1.33301 20 -4l18 -12c-97.333 -157.333 -146 -307.333 -146 -450c0 -52 7.33301 -111.5 22 -178.5s29.334 -121.167 44.001 -162.5l22 -62c-4.66699 -5.33301 -10.667 -9 -18 -11l-23 -4
c-8.66699 12 -20.834 34.333 -36.501 67s-28.667 63.334 -39 92.001s-19.666 63.667 -27.999 105s-12.5 81.666 -12.5 120.999z" />
    <glyph glyph-name="parenright" unicode=")" horiz-adv-x="291" 
d="M222 328c0 -169.333 -58.999 -335.667 -176.999 -499c-7.33301 0 -14 1.33301 -20 4l-18 12c97.333 157.333 146 307.333 146 450c0 52 -7.33301 111.5 -22 178.5s-29.334 121.167 -44.001 162.5l-22 62c4.66699 5.33301 10.667 9 18 11l23 4
c8.66699 -12 20.834 -34.333 36.501 -67s28.667 -63.334 39 -92.001s19.666 -63.667 27.999 -105s12.5 -81.666 12.5 -120.999z" />
    <glyph glyph-name="asterisk" unicode="*" horiz-adv-x="357" 
d="M135 543c-24 15.333 -54.333 31.6689 -91 49.002l23 46h11l84 -56l3 5c0 32 -0.666992 55.833 -2 71.5s-2 26.167 -2 31.5l64 10l5 -10c-8.66699 -18 -15.667 -53.333 -21 -106l53 23c21.333 9.33301 36.333 15.666 45 18.999l11 -36l-7 -9
c-36 -11.333 -65.667 -22 -89 -32c22 -36 44 -68.667 66 -98v-11l-59 -25l-52 100l-54 -85h-67l-4 10c43.333 49.333 71 83.666 83 102.999z" />
    <glyph glyph-name="plus" unicode="+" horiz-adv-x="473" 
d="M223 481c9.33301 3.33301 19.5 5 30.5 5s19.833 -1.66699 26.5 -5l-11 -127c45.333 3.33301 82.666 6.33301 111.999 9l16 -14l-13 -53h-119l-10 -119c-9.33301 -3.33301 -21.166 -5 -35.499 -5s-21.5 2 -21.5 6l9 118h-116c-3.33301 7.33301 -5 15 -5 23l5 34h121z" />
    <glyph glyph-name="comma" unicode="," horiz-adv-x="233" 
d="M49 -174c-10 3.33301 -19.668 9.66602 -29.001 18.999v12c18.667 16 35.334 35.833 50.001 59.5s22 43.667 22 60s-3.33301 31 -10 44s-13 19.5 -19 19.5v31c26 8.66699 52.667 24.334 80 47.001h7c12.667 -19.333 19 -42 19 -68s-10 -58.333 -30 -97
s-40 -69.667 -60 -93z" />
    <glyph glyph-name="hyphen" unicode="-" horiz-adv-x="407" 
d="M144 353c58.667 0 125 3.33301 199 10l16 -14l-13 -63h-293c-3.33301 14 -5 25 -5 33l5 34h91z" />
    <glyph glyph-name="period" unicode="." horiz-adv-x="216" 
d="M87 75.5c12.667 6.33301 25.666 9.5 38.999 9.5s23.833 -3 31.5 -9s11.5 -12.667 11.5 -20l-5 -36c-7.33301 -20 -28.666 -30 -63.999 -30c-13.333 0 -23.5 3 -30.5 9s-10.5 13 -10.5 21l4 31c3.33301 10 11.333 18.167 24 24.5z" />
    <glyph glyph-name="slash" unicode="/" horiz-adv-x="461" 
d="M51 -150l-26.999 4.99902c21.333 44.667 76.166 173.334 164.499 386.001s148.5 365.667 180.5 459l92 16l4 -16c-33.333 -64.667 -100 -211 -200 -439s-157 -363.333 -171 -406c-6.66699 -3.33301 -21 -5 -43 -5z" />
    <glyph glyph-name="zero" unicode="0" horiz-adv-x="578" 
d="M335 690c65.333 0 115 -26 149 -78s51 -115 51 -189c0 -78.667 -12.333 -153.667 -37 -225c-13.333 -40 -30.166 -75.5 -50.499 -106.5s-47 -56.5 -80 -76.5s-69.833 -30 -110.5 -30c-65.333 0 -115 26 -149 78s-51 115 -51 189c0 78.667 12.333 153.667 37 225
c13.333 40 30.166 75.5 50.499 106.5s47 56.5 80 76.5s69.833 30 110.5 30zM454 389c0 109.333 -34.333 188 -103 236h-93c-36 -18 -65 -63.667 -87 -137s-33 -140.666 -33 -201.999c0 -109.333 34.333 -188 103 -236h93c36 18 65 63.667 87 137s33 140.666 33 201.999z" />
    <glyph glyph-name="one" unicode="1" horiz-adv-x="414" 
d="M362 36c0 -15.333 -3.33496 -29.6641 -10.002 -42.9971c-86 4.66699 -141.333 7 -166 7l-120 -7c0 15.333 3.33301 29.666 10 42.999c42.667 7.33301 74.334 18.333 95.001 33c11.333 77.333 23 172.166 35 284.499s18.667 190.166 20 233.499
c-46 -60 -80.667 -108 -104 -144c-8.66699 0 -17.5 3.66699 -26.5 11s-15.167 15 -18.5 23v4c54 53.333 106.333 119.333 157 198l68 15l13 -15c-10 -58 -22 -156.667 -36 -296s-23 -249.333 -27 -330c36.667 -8 69.334 -13.333 98.001 -16z" />
    <glyph glyph-name="two" unicode="2" horiz-adv-x="524" 
d="M92 -10c-28 2.66699 -48.333 9 -61 19v10c31.333 47.333 70 96.666 116 147.999s85.5 93 118.5 125s61.667 66.833 86 104.5s36.5 71.334 36.5 101.001s-4.66699 55 -14 76s-20.333 36.5 -33 46.5h-130c-13.333 -12 -25 -31.333 -35 -58l-6 -15
c-12.667 0 -25.667 4 -39 12c0.666992 39.333 5.66699 71.333 15 96c37.333 23.333 88 35 152 35s109 -14.833 135 -44.5s39 -66.834 39 -111.501s-11 -87.167 -33 -127.5s-47 -75.333 -75 -105l-110.5 -116c-45.667 -47.667 -82.834 -89.5 -111.501 -125.5h266
c11.333 17.333 19.333 38.333 24 63l3 13c18.667 -4.66699 33.667 -13 45 -25c-14 -53.333 -21.667 -93.666 -23 -120.999c-41.333 -3.33301 -79.666 -5 -114.999 -5c-85.333 0 -164.333 8.33301 -237 25z" />
    <glyph glyph-name="three" unicode="3" horiz-adv-x="442" 
d="M92 547c-12.667 0 -25.667 4.00488 -39 12.0049c0.666992 39.333 5.66699 71.333 15 96c40.667 23.333 87.5 35 140.5 35s92 -10.667 117 -32s37.5 -51.333 37.5 -90c0 -58 -30.333 -112.333 -91 -163c31.333 -9.33301 57.166 -27.333 77.499 -54
s30.5 -60.334 30.5 -101.001c0 -68 -27.833 -128.333 -83.5 -181s-118.167 -79 -187.5 -79c-32.667 0 -63.667 6 -93 18l-14 6c0 15.333 5.66699 30.666 17 45.999h156c34.667 10 63.334 29.167 86.001 57.5s34 60.666 34 96.999s-9.16699 67.166 -27.5 92.499
s-40.5 41.666 -66.5 48.999l-31 -17c-14.667 2.66699 -27.667 11 -39 25v12c106.667 60 160 118.333 160 175c0 36.667 -13.667 59.667 -41 69h-117c-13.333 -12 -25 -31.333 -35 -58z" />
    <glyph glyph-name="four" unicode="4" horiz-adv-x="535" 
d="M485 237c0 -24 -5.66797 -44.333 -17.001 -61l-5 -9h-80c-1.33301 -21.333 -4 -77 -8 -167c-15.333 -6.66699 -29.666 -10 -42.999 -10c-21.333 0 -37.333 3.33301 -48 10l21 167h-254l-12 11v54l263 374l47 69l62 15l13 -15c-18 -144.667 -30.667 -290.667 -38 -438h99z
M341.999 579c-87.333 -118.667 -161.333 -232.667 -222 -342h193c10 92 19.667 206 29 342z" />
    <glyph glyph-name="five" unicode="5" horiz-adv-x="460" 
d="M136 -10c-32 0 -62.668 6.00098 -92.001 18.001l-14 6c2 19.333 6.33301 34.666 13 45.999h158c36 15.333 63.667 38.5 83 69.5s29 69.667 29 116s-12.5 84 -37.5 113s-61.5 43.833 -109.5 44.5h-58l-12 18c24.667 98 37 181 37 249l11 10c60.667 0 114 2 160 6
s76.667 8 92 12l24 7l9 -7c-1.33301 -6 -4.83301 -15.167 -10.5 -27.5s-11.5 -22.5 -17.5 -30.5c-16 -20 -34.667 -30 -56 -30h-153c-11.333 -32.667 -22 -78.667 -32 -138h17c67.333 0 119.333 -16 156 -48s55 -79.667 55 -143c0 -78 -23.667 -146 -71 -204
s-107.666 -87 -180.999 -87z" />
    <glyph glyph-name="six" unicode="6" horiz-adv-x="546" 
d="M317 456c103.333 0 154.999 -64.334 154.999 -193.001c0 -60 -19.333 -119.667 -58 -179c-18.667 -27.333 -42.667 -49.833 -72 -67.5s-61.333 -26.5 -96 -26.5c-62.667 0 -109.5 20.333 -140.5 61s-46.5 104.334 -46.5 191.001c0 79.333 14.333 157 43 233
c15.333 40.667 34.333 76.667 57 108s51.834 57 87.501 77s75.167 30 118.5 30c22 0 42.5 -2.83301 61.5 -8.5s32.5 -11.5 40.5 -17.5l12 -8c-0.666992 -16 -4 -28 -10 -36h-184c-26.667 -10 -53.5 -37.5 -80.5 -82.5s-47.167 -96.167 -60.5 -153.5c52 48 109.667 72 173 72
zM130.999 270.999c0 -96.667 28.332 -166.998 84.999 -210.998h98c25.333 13.333 46.833 36.166 64.5 68.499s26.5 68.666 26.5 108.999s-10 77 -30 110s-45.667 49.5 -77 49.5h-58c-35.333 -7.33301 -70.666 -31.333 -105.999 -72c-2 -18 -3 -36 -3 -54z" />
    <glyph glyph-name="seven" unicode="7" horiz-adv-x="527" 
d="M79 543c-12.667 0 -23.667 4 -33 12c1.33301 35.333 10.333 77 27 125h397l11 -10l-296 -670c-10 -6.66699 -21 -10 -33 -10c-18.667 0 -32 3.33301 -40 10l276 610h-273c-14 -18 -24.667 -36.667 -32 -56z" />
    <glyph glyph-name="eight" unicode="8" horiz-adv-x="479" 
d="M112 497c0 59.333 17.665 106.332 52.998 140.999s75.833 52 121.5 52s79.834 -12.667 102.501 -38s34 -57.333 34 -96c0 -64 -40.333 -123.333 -121 -178c26.667 -19.333 47.834 -36 63.501 -50s30.334 -32.167 44.001 -54.5s20.5 -45.166 20.5 -68.499
c0 -60.667 -20.833 -111.667 -62.5 -153s-95.834 -62 -162.501 -62c-54 0 -95.333 13.167 -124 39.5s-43 63 -43 110s13 87.833 39 122.5s66.667 68.667 122 102c-58 46 -87 90.333 -87 133zM344.998 109.499c12.667 21.667 18.999 43.5 18.999 65.5s-7.5 43.5 -22.5 64.5
s-29.667 37.5 -44 49.5s-36.166 28.667 -65.499 50c-43.333 -26 -75 -51 -95 -75s-30 -56.667 -30 -98c0 -25.333 6.83301 -48 20.5 -68s31.5 -32.667 53.5 -38h119c17.333 11.333 32.333 27.833 45 49.5zM187.497 591.999c-10.333 -18.667 -15.502 -39.332 -15.502 -61.999
s8.33301 -43.834 25 -63.501s41 -41.167 73 -64.5c54 42.667 81 88.334 81 137.001c0 22 -4.66699 42.667 -14 62s-20.666 29.666 -33.999 30.999h-74c-17.333 -8 -31.166 -21.333 -41.499 -40z" />
    <glyph glyph-name="nine" unicode="9" horiz-adv-x="516" 
d="M164 -10c-22 0 -42.501 2.83301 -61.501 8.5s-32.5 11.5 -40.5 17.5l-12 8c0.666992 16 4 28 10 36h184c26 9.33301 51.333 35.833 76 79.5s43 93.834 55 150.501c-46.667 -44 -104 -66 -172 -66c-103.333 0 -155 64.333 -155 193c0 60 19.333 119.667 58 179
c18.667 27.333 42.667 49.833 72 67.5s61.333 26.5 96 26.5c62.667 0 109.5 -20.333 140.5 -61s46.5 -104.334 46.5 -191.001c0 -79.333 -15 -157 -45 -233c-15.333 -40 -34.166 -75.833 -56.499 -107.5s-50.5 -57.5 -84.5 -77.5s-71 -30 -111 -30zM388.999 409
c0 52 -8.33301 96.333 -25 133s-36.667 64.334 -60 83.001h-98c-24.667 -13.333 -46 -36.833 -64 -70.5s-27 -70.834 -27 -111.501s10 -77.5 30 -110.5s45.667 -49.5 77 -49.5h58c34 7.33301 69 29 105 65c2.66699 26.667 4 47 4 61z" />
    <glyph glyph-name="colon" unicode=":" horiz-adv-x="249" 
d="M98 75.5c12.667 6.33301 25.666 9.5 38.999 9.5s23.833 -3 31.5 -9s11.5 -12.667 11.5 -20l-5 -36c-7.33301 -20 -28.666 -30 -63.999 -30c-13.333 0 -23.5 3 -30.5 9s-10.5 13 -10.5 21l4 31c3.33301 10 11.333 18.167 24 24.5zM129.999 440.5
c12.667 6.33301 25.666 9.5 38.999 9.5s23.833 -3 31.5 -9s11.5 -12.667 11.5 -20l-5 -36c-7.33301 -20 -28.666 -30 -63.999 -30c-13.333 0 -23.5 3 -30.5 9s-10.5 13 -10.5 21l4 31c3.33301 10 11.333 18.167 24 24.5z" />
    <glyph glyph-name="semicolon" unicode=";" horiz-adv-x="235" 
d="M49 -174c-10 3.33301 -19.668 9.66602 -29.001 18.999v12c18.667 16 35.334 35.833 50.001 59.5s22 43.667 22 60s-3.33301 31 -10 44s-13 19.5 -19 19.5v31c26 8.66699 52.667 24.334 80 47.001h7c12.667 -19.333 19 -42 19 -68s-10 -58.333 -30 -97
s-40 -69.667 -60 -93zM105.999 440.5c12.667 6.33301 25.666 9.5 38.999 9.5s23.833 -3 31.5 -9s11.5 -12.667 11.5 -20l-5 -36c-7.33301 -20 -28.666 -30 -63.999 -30c-13.333 0 -23.5 3 -30.5 9s-10.5 13 -10.5 21l4 31c3.33301 10 11.333 18.167 24 24.5z" />
    <glyph glyph-name="less" unicode="&#x3c;" horiz-adv-x="474" 
d="M413 133v-10.002c-10.667 -13.333 -27.667 -26.666 -51 -39.999l-312 204l-4 15l326 211c16 0 29.333 -6.66699 40 -20c2.66699 -3.33301 4.66699 -6.66602 6 -9.99902l-275 -172z" />
    <glyph glyph-name="equal" unicode="=" horiz-adv-x="475" 
d="M182 304c58.667 0 125 3.33301 199 10l16 -14l-13 -63h-293c-3.33301 14 -5 25 -5 33l5 34h91zM182 429c58.667 0 125 3.33301 199 10l16 -14l-13 -63h-293c-3.33301 14 -5 25 -5 33l5 34h91z" />
    <glyph glyph-name="greater" unicode="&#x3e;" horiz-adv-x="462" 
d="M413 316l-326 -210.998c-16 0 -29.333 6.66699 -40 20c-2.66699 3.33301 -4.66699 6.66602 -6 9.99902l275 172l-263 172v10c10.667 13.333 27.667 26.666 51 39.999l305 -198z" />
    <glyph glyph-name="question" unicode="?" horiz-adv-x="372" 
d="M70 75.5c12.667 6.33301 25.666 9.5 38.999 9.5s23.833 -3 31.5 -9s11.5 -12.667 11.5 -20l-5 -36c-7.33301 -20 -28.666 -30 -63.999 -30c-13.333 0 -23.5 3 -30.5 9s-10.5 13 -10.5 21l4 31c3.33301 10 11.333 18.167 24 24.5zM286.999 452
c0 40.667 -17.666 80.833 -52.999 120.5s-72.333 63.5 -111 71.5v18l53 35c43.333 -13.333 84.166 -39.5 122.499 -78.5s57.5 -85.167 57.5 -138.5s-18.5 -98.333 -55.5 -135s-81.833 -55 -134.5 -55l-19 -119c-8.66699 -3.33301 -20 -5 -34 -5l-23 5l14 164l12 12h112
c39.333 20.667 59 55.667 59 105z" />
    <glyph glyph-name="at" unicode="@" horiz-adv-x="1207" 
d="M1067.5 493.5c13.667 -40.333 20.502 -89.6729 20.502 -148.006s-10.167 -114.166 -30.5 -167.499s-50.5 -108.666 -90.5 -165.999c-88.667 0 -170.334 -9 -245.001 -27c-24 0 -36 15 -36 45l19 143l-10 6c-24.667 -60 -49.667 -106.5 -75 -139.5
s-58.666 -49.5 -99.999 -49.5s-76 15.167 -104 45.5s-42 71.5 -42 123.5c0 86 25.667 161 77 225s115 96 191 96c24.667 0 52.667 -9.66699 84 -29c1.33301 12 2.66602 21.667 3.99902 29c33.333 10 65 15 95 15c-12.667 -51.333 -23.167 -106.666 -31.5 -165.999
s-16.5 -149 -24.5 -269h167c6 6 14 17.667 24 35s18 35 24 53c17.333 47.333 26 101.666 26 162.999c0 84.667 -19.667 155.834 -59 213.501s-90 93.834 -152 108.501h-261c-82 -39.333 -154.167 -104.666 -216.5 -195.999s-93.5 -182.666 -93.5 -273.999
c0 -118 26.667 -201 80 -249c26.667 -24.667 56 -43.167 88 -55.5s70.667 -21.166 116 -26.499h298c0 -14.667 -7 -29 -21 -43c-136.667 -22 -224 -33 -262 -33c-128.667 0 -225.334 29.667 -290.001 89s-97 146 -97 260c0 77.333 14.167 152.666 42.5 225.999
s67.833 138.5 118.5 195.5s113.834 102.667 189.501 137s157.834 51.5 246.501 51.5c59.333 0 112.166 -10 158.499 -30s83.166 -46.833 110.499 -80.5s47.833 -70.667 61.5 -111zM450.002 186.993c0 -29.333 6.66699 -55.833 20 -79.5s28.333 -39.5 45 -47.5h48
c38.667 7.33301 85.667 77.333 141 210c2.66699 28 8 74.667 16 140h-160c-26 -4.66699 -50.833 -30.5 -74.5 -77.5s-35.5 -95.5 -35.5 -145.5z" />
    <glyph glyph-name="A" unicode="A" horiz-adv-x="672" 
d="M682 31c0 -15.333 -3.33301 -29.667 -10 -43c-68.667 4.66699 -115.334 7 -140.001 7l-105 -7c0 15.333 3.33301 29.666 10 42.999c19.333 4.66699 37.666 11.334 54.999 20.001c-20.667 106 -32.667 166.333 -36 181c-78 2 -129.5 3 -154.5 3s-54.167 -1.33301 -87.5 -4
l-88 -180l86 -20c0 -15.333 -3.33301 -29.666 -10 -42.999c-53.333 4.66699 -92.333 7 -117 7l-95 -7c0 15.333 3.33301 29.666 10 42.999c21.333 6 41 15.333 59 28c124.667 220 224.334 412.667 299.001 578l-8 32c28.667 14 59.334 21 92.001 21
c62.667 -283.333 115 -498 157 -644zM239 282.999c31.333 -2 63.5 -3 96.5 -3s69.5 0.666992 109.5 2c-8 38 -30 129.333 -66 274c-35.333 -64.667 -82 -155.667 -140 -273z" />
    <glyph glyph-name="B" unicode="B" horiz-adv-x="583" 
d="M342 690c118.667 0 177.999 -46.665 177.999 -139.998c0 -82 -36.333 -141 -109 -177c43.333 -10 76 -27.833 98 -53.5s33 -55.834 33 -90.501c0 -81.333 -26.667 -141.5 -80 -180.5s-123 -58.5 -209 -58.5c-22 0 -47.833 1.66699 -77.5 5s-49.834 5 -60.501 5l-95 -7
c0 15.333 3.33301 29.666 10 42.999c26.667 8 49.334 20 68.001 36c17.333 146.667 32.333 331.334 45 554.001l-75 18c0 15.333 3.33301 29.666 10 42.999c42.667 -4.66699 76.334 -7 101.001 -7s55 1.66699 91 5s60 5 72 5zM337.999 336.002h-138
c-2.66699 -31.333 -8 -123.333 -16 -276h194c58 22 87 68.333 87 139c0 41.333 -13.167 74.5 -39.5 99.5s-55.5 37.5 -87.5 37.5zM446.999 521.002c0 24.667 -5.66699 47.001 -17 67.001s-27.333 32.333 -48 37h-154c-10.667 -86 -19 -167 -25 -243h145
c66 29.333 99 75.666 99 138.999z" />
    <glyph glyph-name="C" unicode="C" horiz-adv-x="582" 
d="M147 487.5c-30.667 -61.667 -46.001 -123.667 -46.001 -186s11.833 -115.333 35.5 -159s58.167 -71.167 103.5 -82.5h239c0 -15.333 -3.33301 -29.666 -10 -42.999c-94 -24.667 -168.333 -37 -223 -37c-70.667 0 -126.5 24.667 -167.5 74s-61.5 111.666 -61.5 186.999
c0 92.667 21 177.667 63 255c45.333 83.333 108 141.333 188 174c42.667 17.333 84.834 26 126.501 26s75.667 -6.16699 102 -18.5s43.5 -26.5 51.5 -42.5c-14 -25.333 -25.333 -58.333 -34 -99l-5 -20c-16.667 -6 -34.667 -9 -54 -9c5.33301 14.667 8 31.667 8 51
c0 32.667 -8.66699 55 -26 67h-160c-56 -30 -99.333 -75.833 -130 -137.5z" />
    <glyph glyph-name="D" unicode="D" horiz-adv-x="657" 
d="M195 680l174.999 10c36 0 69 -6.66699 99 -20s55 -30.666 75 -51.999s37 -46 51 -74c26 -51.333 39 -105 39 -161c0 -119.333 -35 -214.666 -105 -285.999s-164.667 -107 -284 -107c-21.333 0 -45 1.66699 -71 5s-43 5 -51 5h-21l-82 -7
c0 15.333 3.33301 29.666 10 42.999c26.667 8 49.334 20 68.001 36c14 118 28.667 302.667 44 554l-74 18c0 15.333 3.33301 29.666 10 42.999c53.333 -4.66699 92.333 -7 117 -7zM351.999 625l-134.999 0.000976562c-12 -102.667 -19.167 -177.834 -21.5 -225.501
s-4.83301 -106.167 -7.5 -175.5s-5 -124 -7 -164h193c51.333 20 94.166 60 128.499 120s51.5 121.5 51.5 184.5s-19 122.167 -57 177.5s-86.333 83 -145 83z" />
    <glyph glyph-name="E" unicode="E" horiz-adv-x="574" 
d="M537 680c6 -5.33301 11.3311 -13.666 15.998 -24.999c-14 -24.667 -25.667 -54.667 -35 -90l-4 -17c-13.333 -6 -29.666 -9 -48.999 -9c6 26.667 9 46.667 9 60s-5 22 -15 26h-243c-12.667 -109.333 -21.334 -194.333 -26.001 -255h224c10.667 16 18.667 34 24 54
c4.66699 2 11.334 3 20.001 3l22 -4c-14 -44 -24.333 -100.333 -31 -169c-5.33301 -2.66699 -12 -4 -20 -4l-17 3c0 26.667 -2.66699 49 -8 67h-217c-6 -81.333 -11 -168 -15 -260h259c12.667 18.667 22 40 28 64l3 13c20.667 -4 34.667 -11 42 -21l4 -6
c-13.333 -33.333 -22 -70 -26 -110h-375l-95 -7c0 15.333 3.33301 29.666 10 42.999c24 7.33301 45.333 18.333 64 33c17.333 148.667 32.333 334.334 45 557.001l-75 18c0 15.333 3.33301 29.666 10 42.999c42.667 -4.66699 77.334 -7 104.001 -7h367z" />
    <glyph glyph-name="F" unicode="F" horiz-adv-x="527" 
d="M75 644c0 15.333 3.33008 29.665 9.99707 42.998c53.333 -4.66699 92.333 -7 117 -7h354c6 -5.33301 11.333 -13.666 16 -24.999c-14 -24.667 -25.333 -54.667 -34 -90l-5 -17c-13.333 -6 -29.666 -9 -48.999 -9c6 26.667 9 46.667 9 60s-5 22 -15 26h-243
c-12.667 -109.333 -21.334 -194.333 -26.001 -255h224c10.667 16 18.667 34 24 54c4.66699 2 11.334 3 20.001 3l22 -4c-14 -44 -24.333 -100.333 -31 -169c-5.33301 -2.66699 -12 -4 -20 -4l-17 3c0 26.667 -2.66699 49 -8 67h-217
c-5.33301 -76 -10.666 -165.667 -15.999 -269l82 -15c0 -15.333 -3.33301 -29.666 -10 -42.999c-55.333 4.66699 -94.333 7 -117 7c-32 0 -66.333 -2 -103 -6l-15 -1c0 15.333 3.33301 29.666 10 42.999c26.667 8 49.334 20 68.001 36
c17.333 146.667 32.333 331.334 45 554.001z" />
    <glyph glyph-name="G" unicode="G" horiz-adv-x="655" 
d="M548 37c-106 -38 -195.165 -56.999 -267.498 -56.999s-127.833 24.167 -166.5 72.5s-58 111.166 -58 188.499c0 92.667 21 177.667 63 255c45.333 83.333 107.666 141.333 186.999 174c43.333 17.333 86.166 26 128.499 26s81.5 -6.5 117.5 -19.5
s57.667 -26.833 65 -41.5c-14 -25.333 -25.667 -58.333 -35 -99l-4 -20c-16.667 -6 -34.667 -9 -54 -9c5.33301 14.667 8 31.667 8 51c0 32.667 -8.66699 55 -26 67h-190c-56 -30 -99.333 -75.833 -130 -137.5s-46 -123.667 -46 -186s12.333 -115.333 37 -159
s59.667 -71.167 105 -82.5h190c12.667 56 19.667 111.667 21 167l-76 17c0 15.333 3.33301 29.666 10 42.999c42 -4.66699 76 -7 102 -7l105 7c0 -15.333 -3.33301 -29.666 -10 -42.999c-20.667 -4 -40 -10.667 -58 -20c-8 -44.667 -14 -107 -18 -187z" />
    <glyph glyph-name="H" unicode="H" horiz-adv-x="755" 
d="M288 36c0 -15.333 -3.33789 -29.666 -10.0049 -42.999c-55.333 4.66699 -95 7 -119 7c-36.667 0 -71 -2 -103 -6l-13 -1c0 15.333 3.33301 29.666 10 42.999c26.667 8 49.334 20 68.001 36c17.333 148.667 32.333 334.667 45 558l-78 14
c0 15.333 3.33301 29.666 10 42.999c55.333 -4.66699 95.333 -7 120 -7l115 7c0 -15.333 -3.33301 -29.666 -10 -42.999c-29.333 -5.33301 -53.666 -15 -72.999 -29c-10.667 -87.333 -19 -169 -25 -245h323c6.66699 117.333 12 204 16 260l-78 14
c0 15.333 3.33301 29.666 10 42.999c62 -4.66699 105.333 -7 130 -7l105 7c0 -15.333 -3.33301 -29.666 -10 -42.999c-29.333 -5.33301 -53.666 -15 -72.999 -29c-18 -156.667 -32.667 -344.667 -44 -564l82 -15c0 -15.333 -3.33301 -29.666 -10 -42.999
c-55.333 4.66699 -95 7 -119 7c-36.667 0 -71 -2 -103 -6l-13 -1c0 15.333 3.33301 29.666 10 42.999c26.667 8 49.334 20 68.001 36c12 105.333 20.333 188.333 25 249h-322c-5.33301 -76.667 -10.666 -166.667 -15.999 -270z" />
    <glyph glyph-name="I" unicode="I" horiz-adv-x="334" 
d="M272 36c0 -15.333 -3.33496 -29.666 -10.002 -42.999c-65.333 4.66699 -108 7 -128 7c-29.333 0 -60.666 -2 -93.999 -6l-13 -1c0 15.333 3.33301 29.666 10 42.999c25.333 7.33301 47.333 18.666 66 33.999c17.333 150 32.333 337 45 561l-76 13
c0 15.333 3.33301 29.666 10 42.999c58.667 -4.66699 100.334 -7 125.001 -7l110 7c0 -15.333 -3.33301 -29.666 -10 -42.999c-31.333 -5.33301 -56.333 -15.666 -75 -30.999c-17.333 -144.667 -32 -332 -44 -562z" />
    <glyph glyph-name="J" unicode="J" horiz-adv-x="295" 
d="M104 644c0 15.333 3.33398 29.665 10.001 42.998c62 -4.66699 105.333 -7 130 -7l105 7c0 -15.333 -3.33301 -29.666 -10 -42.999c-32.667 -6 -58.667 -17 -78 -33c-10 -70 -17.833 -158.333 -23.5 -265s-12.334 -189.167 -20.001 -247.5s-20.5 -109.666 -38.5 -153.999
s-37.667 -80.166 -59 -107.499c-41.333 -51.333 -74.333 -83.666 -99 -96.999h-9c-8 10 -12 24.333 -12 43c33.333 31.333 63 73.666 89 126.999s42.833 108.5 50.5 165.5s13.5 112.333 17.5 166s8.16699 124.667 12.5 213s7.5 147.166 9.5 176.499z" />
    <glyph glyph-name="K" unicode="K" horiz-adv-x="598" 
d="M64 644c0 15.333 3.3291 29.665 9.99609 42.998c50 -4.66699 86.667 -7 110 -7c36.667 0 73.334 2 110.001 6l15 1c0 -15.333 -3.33301 -29.666 -10 -42.999c-29.333 -5.33301 -53.666 -15 -72.999 -29c-12.667 -114 -21 -196 -25 -246
c20.667 4.66699 47.334 11.667 80.001 21c46.667 46.667 81.167 82.667 103.5 108s54.166 65.333 95.499 120l-80 20c0 15.333 4 29.666 12 42.999c48 -4.66699 84.333 -7 109 -7l97 7c0 -15.333 -3.33301 -29.666 -10 -42.999c-26 -2.66699 -50 -15 -72 -37
c-75.333 -75.333 -144.666 -153 -207.999 -233c58 -84.667 125.667 -192 203 -322l83 -15c0 -15.333 -3.33301 -29.666 -10 -42.999c-60 4.66699 -111.667 7 -155 7c-64 121.333 -131.667 233 -203 335l-48 -9c-5.33301 -76.667 -10.666 -166.667 -15.999 -270l82 -15
c0 -15.333 -3.33301 -29.666 -10 -42.999c-68.667 4.66699 -115.334 7 -140.001 7l-95 -7c0 15.333 3.33301 29.666 10 42.999c26.667 8 49.334 20 68.001 36c17.333 148.667 32.333 334.667 45 558z" />
    <glyph glyph-name="L" unicode="L" horiz-adv-x="547" 
d="M76 644c0 15.333 3.33203 29.667 9.99902 43c62 -4.66699 103.333 -7 124 -7c28.667 0 60.667 2 96 6l15 1c0 -15.333 -3.33301 -29.666 -10 -42.999c-33.333 -6 -59.333 -17 -78 -33c-18 -153.333 -32.333 -337 -43 -551h275c12.667 18.667 21.667 42.667 27 72l2 15
c20 -4 36.333 -13 49 -27c-14 -34.667 -22.333 -74.667 -25 -120h-397l-95 -7c0 15.333 3.33301 29.666 10 42.999c26.667 8 49.334 20 68.001 36c16.667 144.667 32 331 46 559z" />
    <glyph glyph-name="M" unicode="M" horiz-adv-x="855" 
d="M236 36c0 -15.333 -3.33496 -29.665 -10.002 -42.998c-56.667 4.66699 -97.334 7 -122.001 7l-95 -7c0 15.333 3.33301 29.666 10 42.999c26.667 7.33301 49.334 19.333 68.001 36c30 208.667 52 393 66 553l-83 19c0 15.333 3.33301 29.666 10 42.999
c40.667 -4.66699 74 -7 100 -7h86c58 -230.667 109.667 -411 155 -541c54 115.333 129.333 295.666 226 540.999h91l105 7c0 -15.333 -3.33301 -29.666 -10 -42.999c-30 -5.33301 -54.667 -15.333 -74 -30c-17.333 -183.333 -27.666 -370.666 -30.999 -561.999l85 -16
c0 -15.333 -3.33301 -29.666 -10 -42.999c-55.333 4.66699 -95 7 -119 7c-36.667 0 -71 -2 -103 -6l-13 -1c0 15.333 3.33301 29.666 10 42.999c24.667 7.33301 46.334 18.666 65.001 33.999c13.333 126 24 295.333 32 508c-94.667 -206 -175 -398.667 -241 -578l-14 -10
l-59 10c-51.333 210 -102 397.667 -152 563c-26 -182.667 -44.667 -352 -56 -508z" />
    <glyph glyph-name="N" unicode="N" horiz-adv-x="672" 
d="M254 36c0 -15.333 -3.33398 -29.6641 -10.001 -42.9971c-60 4.66699 -102.333 7 -127 7l-95 -7c0 15.333 3.33301 29.666 10 42.999c26 7.33301 48.333 19 67 35c12 88 20.333 160.167 25 216.5l14.5 183.5c5 66 9.16699 117.667 12.5 155l-83 18
c0 15.333 3.33301 29.666 10 42.999c42.667 -4.66699 77.334 -7 104.001 -7h54c58 -118 117.333 -230.333 178 -337l102 -180c20 190.667 32.667 345 38 463l-85 18c0 15.333 3.33301 29.666 10 42.999c44.667 -4.66699 78.334 -7 101.001 -7c36 0 72.333 2 109 6l15 1
c0 -15.333 -3.33301 -29.666 -10 -42.999c-30.667 -5.33301 -55.334 -15.333 -74.001 -30c-24 -196.667 -40 -401.334 -48 -614.001l-14 -10l-59 10l-289 537c-10 -80.667 -22.667 -242 -38 -484z" />
    <glyph glyph-name="O" unicode="O" horiz-adv-x="687" 
d="M38 241c0 93.333 20.668 178.001 62.001 254.001c45.333 83.333 107.666 141 186.999 173c43.333 18 90.333 27 141 27c70.667 0 126.5 -24.5 167.5 -73.5s61.5 -111.167 61.5 -186.5c0 -116 -31.667 -219 -95 -309c-30.667 -44 -71.5 -79.333 -122.5 -106
s-110.167 -40 -177.5 -40s-121.5 24.667 -162.5 74s-61.5 111.666 -61.5 186.999zM168.001 487.501c-30.667 -61.667 -46 -123.668 -46 -186.001s11.833 -115.333 35.5 -159s58.167 -71.167 103.5 -82.5h139c56 30 98.833 74.667 128.5 134s44.5 120 44.5 182
s-11.5 115.333 -34.5 160s-56.5 74.334 -100.5 89.001h-140c-56 -30 -99.333 -75.833 -130 -137.5z" />
    <glyph glyph-name="P" unicode="P" horiz-adv-x="469" 
d="M183 680l136.999 10c58 0 104.333 -13.167 139 -39.5s52 -68.833 52 -127.5c0 -75.333 -28.167 -134.5 -84.5 -177.5s-123.833 -64.5 -202.5 -64.5h-41l-13 -230l82 -15c0 -15.333 -3.33301 -29.666 -10 -42.999c-68.667 4.66699 -113 7 -133 7c-29.333 0 -59 -2 -89 -6
l-13 -1c0 15.333 3.33301 29.666 10 42.999c26.667 8 49.334 20 68.001 36c17.333 146.667 32.333 331.334 45 554.001l-74 18c0 15.333 3.33301 29.666 10 42.999c53.333 -4.66699 92.333 -7 117 -7zM395.499 390.5c25 30.333 37.5 63.168 37.5 98.501
s-7.33301 65.333 -22 90s-35.667 40 -63 46h-133c-13.333 -114.667 -23 -212.334 -29 -293.001h104c45.333 8.66699 80.5 28.167 105.5 58.5z" />
    <glyph glyph-name="Q" unicode="Q" horiz-adv-x="679" 
d="M38 241c0 93.333 20.667 178 62 254c45.333 83.333 107.666 141 186.999 173c43.333 18 90.333 27 141 27c70.667 0 126.5 -24.5 167.5 -73.5s61.5 -112 61.5 -189s-15.5 -151 -46.5 -222s-75.5 -126.833 -133.5 -167.5l218 -140v-33
c-85.333 0 -151.666 16.667 -198.999 50c-32 22.667 -66 49.334 -102 80.001c-42 -13.333 -84.333 -20 -127 -20c-70.667 0 -126.5 24.667 -167.5 74s-61.5 111.666 -61.5 186.999zM168 487.5c-30.667 -61.667 -46 -123.667 -46 -186s11.833 -115.333 35.5 -159
s58.167 -71.167 103.5 -82.5h75l54 40l37 -24c47.333 32.667 83.5 76.667 108.5 132s37.5 112.666 37.5 171.999s-11.5 111.333 -34.5 156s-56.5 74.334 -100.5 89.001h-140c-56 -30 -99.333 -75.833 -130 -137.5z" />
    <glyph glyph-name="R" unicode="R" horiz-adv-x="577" 
d="M589 31c0 -15.333 -3.33398 -29.668 -10.001 -43.001c-56 4.66699 -105.667 7 -149 7c-35.333 93.333 -78 190.333 -128 291c-17.333 -3.33301 -38.666 -5 -63.999 -5h-39l-13 -230l82 -15c0 -15.333 -3.33301 -29.666 -10 -42.999
c-68.667 4.66699 -115.334 7 -140.001 7l-95 -7c0 15.333 3.33301 29.666 10 42.999c26.667 8 49.334 20 68.001 36c17.333 146.667 32.333 331.334 45 554.001l-74 18c0 15.333 3.33301 29.666 10 42.999c53.333 -4.66699 92.333 -7 117 -7l136 10
c58 0 104.5 -13.167 139.5 -39.5s52.5 -67 52.5 -122s-13 -100.667 -39 -137s-61.333 -64.166 -106 -83.499c42.667 -99.333 85.667 -187.333 129 -264zM448.999 497.998c0 28.667 -7.5 55.502 -22.5 80.502s-36.167 40.5 -63.5 46.5h-132
c-13.333 -114.667 -23 -212.334 -29 -293.001h102c45.333 8.66699 80.833 28.167 106.5 58.5s38.5 66.166 38.5 107.499z" />
    <glyph glyph-name="S" unicode="S" horiz-adv-x="534" 
d="M248 625c-42.667 -16 -64 -47.165 -64 -93.498s37.667 -91.166 113 -134.499c63.333 -36 109.166 -68.667 137.499 -98s42.5 -60.666 42.5 -93.999c0 -74 -23.5 -130 -70.5 -168s-112.833 -57 -197.5 -57c-103.333 0 -165 23.333 -185 70c14 25.333 25.333 58.333 34 99
l5 20c16.667 6 34.667 9 54 9c-5.33301 -14.667 -8 -31.667 -8 -51c0 -32.667 8.66699 -55 26 -67h200c39.333 24.667 59 60.667 59 108c0 30.667 -12 59.167 -36 85.5s-61.167 54.166 -111.5 83.499s-86.166 54.666 -107.499 75.999s-32 48.333 -32 81
c0 67.333 22.667 117.666 68 150.999s105 50 179 50c34.667 0 65.5 -5.83301 92.5 -17.5s43.167 -25.834 48.5 -42.501c-14 -25.333 -25.667 -58.333 -35 -99l-4 -20c-16.667 -6 -34.667 -9 -54 -9c5.33301 14.667 8 31.667 8 51c0 32.667 -8.66699 55 -26 67h-136z" />
    <glyph glyph-name="T" unicode="T" horiz-adv-x="559" 
d="M391 36c0 -15.333 -3.33301 -29.6641 -10 -42.9971c-55.333 4 -97.666 6.33301 -126.999 7h-13l-95 -7c0 15.333 3.33301 29.666 10 42.999c25.333 7.33301 47.333 18.666 66 33.999c17.333 146 32.333 330 45 552l-167 -7c-12 -19.333 -20.667 -42.333 -26 -69
c-12.667 -4.66699 -29.667 -7.66699 -51 -9l-3 7c12 44 20.333 91.667 25 143c104 -4.66699 196.333 -7 277 -7l294 7l3 -7c-14.667 -33.333 -26.334 -74 -35.001 -122l-4 -22c-14.667 -6 -32.334 -9 -53.001 -9c6.66699 28.667 11.334 58 14.001 88
c-62 3.33301 -125 5.66602 -189 6.99902c-18.667 -162 -33.667 -352.333 -45 -571z" />
    <glyph glyph-name="U" unicode="U" horiz-adv-x="703" 
d="M461 638c0 15.333 4.00488 29.667 12.0049 43c48 -4.66699 84.333 -7 109 -7l97 7c0 -15.333 -3.33301 -29.666 -10 -42.999c-26 -2.66699 -49.667 -15 -71 -37c-15.333 -195.333 -28 -322.166 -38 -380.499s-20.167 -100 -30.5 -125s-25.833 -46.333 -46.5 -64
s-46.5 -29.834 -77.5 -36.501s-71.167 -10 -120.5 -10c-64 0 -113.333 16 -148 48s-52 67.833 -52 107.5s4.16699 114 12.5 223s14.166 197.833 17.499 266.5l-80 14c0 15.333 3.33301 29.666 10 42.999c62 -4.66699 103 -7 123 -7c29.333 0 62 2 98 6l14 1
c0 -15.333 -3.33301 -29.666 -10 -42.999c-30.667 -5.33301 -55.667 -15.333 -75 -30c-17.333 -138.667 -26 -286 -26 -442c0 -32.667 13.167 -59.5 39.5 -80.5s56.166 -31.5 89.499 -31.5h135c31.333 19.333 52.666 55.666 63.999 108.999s20.666 116.833 27.999 190.5
s11.666 135.167 12.999 184.5l3 74z" />
    <glyph glyph-name="V" unicode="V" horiz-adv-x="577" 
d="M374.5 55c-51 -43.333 -111.498 -65.002 -181.498 -65.002s-112.667 12.333 -128 37c18 222.667 28 417 30 583h-77c0 15.333 3.33301 29.666 10 42.999c44.667 5.33301 85 16 121 32c9.33301 0 17.666 -4.16699 24.999 -12.5s11 -19.166 11 -32.499
c-20 -271.333 -30 -464.666 -30 -579.999h130c26 8.66699 54.667 32 86 70c50 60.667 82.333 139 97 235c6 39.333 9 71.333 9 96c0 77.333 -9.66699 137 -29 179c2 3.33301 5.5 7.5 10.5 12.5s17.5 11.667 37.5 20s42.333 12.5 67 12.5c0 -78 -6.33301 -159 -19 -243
s-31.334 -158.667 -56.001 -224s-62.5 -119.666 -113.5 -162.999z" />
    <glyph glyph-name="W" unicode="W" horiz-adv-x="877" 
d="M561 60c24 0 52.334 20.3301 85.001 60.9971s59 90.167 79 148.5s30 120.833 30 187.5s-12.667 127.667 -38 183c3.33301 3.33301 8 7.5 14 12.5s19.833 11.667 41.5 20s44.834 12.5 69.501 12.5c0 -96 -9.16699 -193.833 -27.5 -293.5s-43.5 -176.834 -75.5 -231.501
c-66 -113.333 -143 -170 -231 -170c-24.667 0 -45.167 3.33301 -61.5 10s-26.5 13.334 -30.5 20.001l-5 10l12 143l-10 6c-14 -35.333 -23.833 -57.833 -29.5 -67.5l-22 -38.5c-9 -16 -17.333 -27.333 -25 -34l-28.5 -24c-21.333 -16.667 -47.333 -25 -78 -25
s-55.5 3.33301 -74.5 10s-31.833 13.334 -38.5 20.001l-10 10c18 222.667 28 416 30 580h-77c0 15.333 3.33301 29.666 10 42.999c44.667 5.33301 85 16 121 32c9.33301 0 17.666 -4.16699 24.999 -12.5s11 -19.166 11 -32.499c-20 -271.333 -30 -464.666 -30 -579.999h68
c18 0 37.333 13 58 39c36.667 46.667 69 109.334 97 188.001c8.66699 134.667 16 232.667 22 294c30.667 10 61 15 91 15c-10.667 -51.333 -16.334 -87.333 -17.001 -108c-8 -84.667 -15.333 -204 -22 -358l-3 -70h70z" />
    <glyph glyph-name="X" unicode="X" horiz-adv-x="492" 
d="M-12 608c0 15.333 3.33398 29.666 10.001 42.999c38 5.33301 75 16 111 32c20 -7.33301 37.667 -24.333 53 -51c18 -32 31.667 -61.333 41 -88c18 -48 32.333 -88.667 43 -122l186 259c16 0 31.667 -2.5 47 -7.5s26.666 -10.167 33.999 -15.5l11 -8
c-44.667 -38 -82 -77.667 -112 -119l-138 -189l17 -51c7.33301 -22 13.5 -39.833 18.5 -53.5l17.5 -49.5c6.66699 -19.333 12.667 -35.166 18 -47.499l17 -37.5c12.667 -24.667 24 -39 34 -43h98c0 -15.333 -3.33301 -29.666 -10 -42.999c-44.667 -5.33301 -85 -16 -121 -32
c-20 8 -39.5 28.833 -58.5 62.5s-33.667 65 -44 94s-23.833 70.833 -40.5 125.5l-199 -277c-16 0 -31.667 2.66699 -47 8s-26.666 10.666 -33.999 15.999l-11 7c41.333 32.667 76.666 69.334 105.999 110.001l159 219c-25.333 78 -47 138.667 -65 182
s-34.667 68.666 -50 75.999h-91z" />
    <glyph glyph-name="Y" unicode="Y" horiz-adv-x="543" 
d="M-5 -217c0 16 3.00293 30.002 9.00293 42.002h291c30 14.667 56.333 61.667 79 141c14.667 50 25.334 119 32.001 207l-10 6c-18.667 -43.333 -48.334 -85 -89.001 -125c-21.333 -20.667 -46.833 -37.334 -76.5 -50.001s-58.5 -19 -86.5 -19s-50.5 1.5 -67.5 4.5
s-29.167 6.5 -36.5 10.5c-16.667 8.66699 -25.334 16 -26.001 22l-1 5c3.33301 30 8.33301 72.167 15 126.5l15 124c3.33301 28.333 7 63.833 11 106.5c9.33301 84.667 15.666 165 18.999 241h-74c0 15.333 3.33301 29.666 10 42.999c41.333 5.33301 80 16 116 32
c9.33301 0 17.666 -4.16699 24.999 -12.5s11 -19.166 11 -32.499c-29.333 -186 -50.333 -384.333 -63 -595h89c31.333 0 70.166 23.833 116.499 71.5s80.833 96.5 103.5 146.5c20 169.333 36.667 298.666 50 387.999c33.333 10 65 15 95 15
c-12.667 -51.333 -22.167 -100.5 -28.5 -147.5s-14.5 -114.667 -24.5 -203l-19.5 -170.5c-3 -25.333 -7.5 -58.5 -13.5 -99.5s-11.333 -70.167 -16 -87.5l-19 -68c-8 -28 -16.5 -47.333 -25.5 -58l-32.5 -39.5c-12.667 -15.667 -27 -26.167 -43 -31.5
c-42 -14 -80.667 -21 -116 -21c-67.333 0 -130.666 7 -189.999 21z" />
    <glyph glyph-name="Z" unicode="Z" horiz-adv-x="588" 
d="M124 549c-18.667 4.66699 -33.6689 12.998 -45.002 24.998c15.333 54 23 92.667 23 116c22.667 7.33301 61 11 115 11s143.333 -11 268 -33l16 22c26 0 48.333 -4.66699 67 -14l10 -4v-10l-432 -602h342c11.333 17.333 19.333 38.333 24 63l3 13
c18.667 -4.66699 33.667 -13 45 -25c-15.333 -57.333 -23 -97.666 -23 -120.999c-30.667 -7.33301 -63.667 -11 -99 -11c-122 0 -232 9 -330 27l-12 -16c-13.333 0 -28.166 2.33301 -44.499 7s-27.5 10.334 -33.5 17.001v10l436 601h-303
c-11.333 -17.333 -19.666 -38.333 -24.999 -63z" />
    <glyph glyph-name="bracketleft" unicode="[" horiz-adv-x="306" 
d="M319 646l-100.001 -0.000976562c-14.667 -87.333 -28.5 -209.166 -41.5 -365.499s-19.833 -285.5 -20.5 -387.5h87l-3 -32c-59.333 -7.33301 -116.333 -11 -171 -11c2.66699 36 9.33398 113.333 20.001 232c27.333 295.333 43.333 498 48 608l185 -12z" />
    <glyph glyph-name="backslash" unicode="\" horiz-adv-x="494" 
d="M24 711c10 3.33301 19.333 4.99902 28 4.99902c20 0 34 -1.66699 42 -5c14 -60.667 50.5 -181 109.5 -361s116.5 -341.333 172.5 -484l-4 -16l-92 16c-80.667 292.667 -166 574.334 -256 845.001z" />
    <glyph glyph-name="bracketright" unicode="]" horiz-adv-x="306" 
d="M11 -106l100 0.000976562c14.667 87.333 28.5 209.166 41.5 365.499s19.833 285.5 20.5 387.5h-87l3 32c58.667 7.33301 115.334 11 170.001 11c-2.66699 -36 -9.66699 -113.333 -21 -232c-26.667 -295.333 -42.334 -498 -47.001 -608l-184 10z" />
    <glyph glyph-name="asciicircum" unicode="^" horiz-adv-x="475" 
d="M65 421l187 269l15 -4l163 -255c-17.333 -25.333 -31.333 -42.333 -42 -51h-10l-137 217l-145 -217c-8 3.33301 -15.333 10 -22 20z" />
    <glyph glyph-name="underscore" unicode="_" horiz-adv-x="506" 
d="M167 19c92 0 175 3.33301 249 10l16 -14l-13 -53h-343c-3.33301 7.33301 -5 15 -5 23l5 34h91z" />
    <glyph glyph-name="grave" unicode="`" 
d="M176 760c29.333 -42.667 64 -89 104 -139l20 -25v-7l-49 -19c-18.667 13.333 -39 31.333 -61 54s-39.333 42 -52 58l-19 23v10c16.667 21.333 35.667 36.333 57 45z" />
    <glyph glyph-name="a" unicode="a" horiz-adv-x="546" 
d="M509 60c0 -15.333 -3.33301 -29.667 -10 -43c-44.667 -5.33301 -85 -16 -121 -32c-10 0 -18.5 3.66699 -25.5 11s-10.5 18.666 -10.5 33.999l19 143l-10 6c-24.667 -60 -49.667 -106.5 -75 -139.5s-58.666 -49.5 -99.999 -49.5s-76 15.167 -104 45.5s-42 71.5 -42 123.5
c0 86 25.667 161 77 225s115 96 191 96c24.667 0 52.667 -9.66699 84 -29c1.33301 12 2.66602 21.667 3.99902 29c33.333 10 65 15 95 15c-12.667 -51.333 -23.167 -106.666 -31.5 -165.999s-16.5 -149 -24.5 -269h84zM106 186.999c0 -29.333 6.66699 -55.833 20 -79.5
s28.333 -39.5 45 -47.5h48c38.667 7.33301 85.667 77.333 141 210c2.66699 28 8 74.667 16 140h-160c-26 -4.66699 -50.833 -30.5 -74.5 -77.5s-35.5 -95.5 -35.5 -145.5z" />
    <glyph glyph-name="b" unicode="b" horiz-adv-x="520" 
d="M34 715c0 15.333 3.33398 29.665 10.001 42.998c38 5.33301 75 16 111 32c9.33301 0 17.666 -4.16699 24.999 -12.5s11 -19.166 11 -32.499l-45 -448l10 -6c24.667 60 49.667 106.5 75 139.5s58.666 49.5 99.999 49.5s76 -15.167 104 -45.5s42 -71.5 42 -123.5
c0 -86 -25.667 -161 -77 -225s-115 -96 -191 -96l-156 10h-19c10.667 44.667 17.334 77.334 20.001 98.001c14 100 31.667 305.667 53 617h-73zM401.001 282.999c0 29.333 -6.66699 55.832 -20 79.499s-28.333 39.5 -45 47.5h-48c-26 -5.33301 -54 -34.666 -84 -87.999
c-22.667 -42 -41 -80.667 -55 -116c-2 -31.333 -7 -80 -15 -146h157c26 4.66699 50.833 30.5 74.5 77.5s35.5 95.5 35.5 145.5z" />
    <glyph glyph-name="c" unicode="c" horiz-adv-x="437" 
d="M364 60c0 -15.333 -3.33594 -29.665 -10.0029 -42.998c-70.667 -18 -121.334 -27 -152.001 -27c-57.333 0 -100.5 14.833 -129.5 44.5s-43.5 73 -43.5 130s9.83301 108.167 29.5 153.5s49.834 83.666 90.501 114.999s87.334 47 140.001 47
c25.333 0 48.5 -4.66699 69.5 -14s36.167 -18 45.5 -26c-14 -24.667 -25.333 -54.667 -34 -90l-5 -17c-13.333 -6 -29.666 -9 -48.999 -9c6 26.667 9 46.667 9 60s-5 22 -15 26h-105c-27.333 -10.667 -51.166 -35.834 -71.499 -75.501s-30.5 -81.834 -30.5 -126.501
c0 -52 9.66699 -89.333 29 -112c16.667 -19.333 32 -30.666 46 -33.999l8 -2h178z" />
    <glyph glyph-name="d" unicode="d" horiz-adv-x="555" 
d="M514 60c0 -15.333 -3.33301 -29.666 -10 -42.999c-44.667 -5.33301 -85 -16 -121 -32c-10 0 -18.5 3.66699 -25.5 11s-10.5 18.666 -10.5 33.999l19 143l-10 6c-24.667 -60 -49.667 -106.5 -75 -139.5s-58.666 -49.5 -99.999 -49.5s-76 15.167 -104 45.5
s-42 71.5 -42 123.5c0 86 25.667 161 77 225s115 96 191 96c24.667 0 53.667 -10.333 87 -31c10 97.333 16.667 186 20 266h-77c0 15.333 3.33301 29.666 10 42.999c38 5.33301 75 16 111 32c9.33301 0 17.666 -4.16699 24.999 -12.5s11 -19.166 11 -32.499
c-22 -186 -41.667 -414.333 -59 -685h83zM111 187c0 -29.333 6.66602 -55.832 19.999 -79.499s28.333 -39.5 45 -47.5h48c40.667 8 89.334 81.333 146.001 220c0.666992 5.33301 5.66699 48.666 15 129.999h-164c-26 -4.66699 -50.833 -30.5 -74.5 -77.5
s-35.5 -95.5 -35.5 -145.5z" />
    <glyph glyph-name="e" unicode="e" horiz-adv-x="446" 
d="M381 60c0 -15.333 -3.33203 -29.668 -9.99902 -43.001c-70.667 -18 -121.334 -27 -152.001 -27c-114.667 0 -172 62.333 -172 187c0 46 10 91.833 30 137.5s50.5 84.667 91.5 117s87.5 48.5 139.5 48.5c32.667 0 56.667 -8.33301 72 -25s23 -37 23 -61
c0 -120 -94 -182 -282 -186c0 -91.333 27.333 -140.666 82 -147.999h178zM333.001 368.998c0 22 -9.33301 35.667 -28 41h-92c-22 -8.66699 -41 -27.834 -57 -57.501s-26.667 -63.167 -32 -100.5c76.667 2.66699 130.667 13.834 162 33.501s47 47.5 47 83.5z" />
    <glyph glyph-name="f" unicode="f" horiz-adv-x="309" 
d="M301 470c0 -16 -3.3291 -35.998 -9.99609 -59.998h-107l-31 -410c-32.667 -10 -64 -15 -94 -15c10.667 44.667 18.5 86 23.5 124s14.833 138.333 29.5 301h-59c0 15.333 3.33301 29.666 10 42.999c3.33301 0 8.66602 1.66699 15.999 5s13.666 7.33301 18.999 12
c12.667 11.333 21 27.666 25 48.999c5.33301 50.667 14.166 94.167 26.499 130.5s25.833 63.166 40.5 80.499c28.667 33.333 56 50 82 50c17.333 0 44.666 -5.33301 81.999 -16l18 -6c0 -15.333 -3.33301 -29.666 -10 -42.999h-106c-30 -38 -49.667 -98.333 -59 -181l-8 -69
z" />
    <glyph glyph-name="g" unicode="g" horiz-adv-x="525" 
d="M14 -217c0 16 2.99609 29.999 8.99609 41.999h228c30 14.667 56.333 61.667 79 141c14.667 50 25.334 119 32.001 207l-9 5c-24.667 -60 -49.667 -106.333 -75 -139s-58.666 -49 -99.999 -49s-76 15.167 -104 45.5s-42 71.5 -42 123.5c0 86 25.667 161 77 225
s115 96 191 96c25.333 0 53 -9.33301 83 -28l4 28c33.333 10 65 15 95 15c-12.667 -51.333 -21 -91.166 -25 -119.499s-8.5 -66.833 -13.5 -115.5l-12.5 -120.5c-3.33301 -31.667 -8 -67 -14 -106s-12.667 -70.667 -20 -95s-17.666 -49.333 -30.999 -75
s-28.666 -45.5 -45.999 -59.5c-40 -32.667 -92.333 -49 -157 -49c-27.333 0 -68 7 -122 21zM107.996 186.999c0 -29.333 6.66699 -55.833 20 -79.5s28.333 -39.5 45 -47.5h48c39.333 7.33301 86 76.333 140 207c2.66699 31.333 8 79 16 143h-159
c-26 -4.66699 -50.833 -30.5 -74.5 -77.5s-35.5 -95.5 -35.5 -145.5z" />
    <glyph glyph-name="h" unicode="h" horiz-adv-x="597" 
d="M57 715c0 15.333 3.33105 29.667 9.99805 43c38 5.33301 75 16 111 32c9.33301 0 17.666 -4.16699 24.999 -12.5s11 -19.166 11 -32.499l-45 -448l10 -6c20.667 47.333 51.334 90.666 92.001 129.999s86.667 59 138 59c24.667 0 44.334 -3.33301 59.001 -10
s23.334 -13.334 26.001 -20.001l3 -10c-17.333 -147.333 -27.666 -274 -30.999 -380h80c0 -15.333 -3.33301 -29.666 -10 -42.999c-44.667 -5.33301 -85 -16 -121 -32c-10 0 -18.5 3.66699 -25.5 11s-10.5 18.666 -10.5 33.999c14.667 93.333 27.334 220 38.001 380h-61
c-26.667 0 -58.334 -20.833 -95.001 -62.5s-66.334 -87.5 -89.001 -137.5c-6.66699 -82.667 -14.334 -152.667 -23.001 -210c-32.667 -10 -64 -15 -94 -15c10.667 44.667 17.334 77.334 20.001 98.001c12.667 92 31 302.667 55 632h-73z" />
    <glyph glyph-name="i" unicode="i" horiz-adv-x="287" 
d="M33 410c0 15.333 3.33203 29.666 9.99902 42.999c38 5.33301 75 16 111 32c9.33301 0 17.666 -4.16699 24.999 -12.5s11 -19.166 11 -32.499c-15.333 -130 -25.666 -256.667 -30.999 -380h80c0 -15.333 -3.33301 -29.666 -10 -42.999c-44.667 -5.33301 -85 -16 -121 -32
c-10 0 -18.5 3.66699 -25.5 11s-10.5 18.666 -10.5 33.999c14.667 93.333 27.334 220 38.001 380h-77zM135.999 670.5c12.667 6.33301 25.666 9.5 38.999 9.5s23.833 -3 31.5 -9s11.5 -12.667 11.5 -20l-5 -36c-7.33301 -20 -28.666 -30 -63.999 -30
c-13.333 0 -23.5 3 -30.5 9s-10.5 13 -10.5 21l4 31c3.33301 10 11.333 18.167 24 24.5z" />
    <glyph glyph-name="j" unicode="j" horiz-adv-x="243" 
d="M-40 -230c35.333 41.333 63.5 83.167 84.5 125.5s34.833 88.166 41.5 137.499s14.667 175 24 377h-87l10 43c44.667 5.33301 85 16 121 32c9.33301 0 17.5 -4.16699 24.5 -12.5s10.833 -19.166 11.5 -32.499c-4.66699 -58 -8.66699 -114.667 -12 -170
c-6.66699 -107.333 -12 -177.333 -16 -210c-17.333 -143.333 -79.333 -250 -186 -320h-9c-4.66699 9.33301 -7 19.333 -7 30zM136 670.501c12.667 6.33301 25.666 9.5 38.999 9.5s23.833 -3 31.5 -9s11.5 -12.667 11.5 -20l-5 -36c-7.33301 -20 -28.666 -30 -63.999 -30
c-13.333 0 -23.5 3 -30.5 9s-10.5 13 -10.5 21l4 31c3.33301 10 11.333 18.167 24 24.5z" />
    <glyph glyph-name="k" unicode="k" horiz-adv-x="544" 
d="M53 715c0 15.333 3.33398 29.665 10.001 42.998c38 5.33301 75 16 111 32c9.33301 0 17.666 -4.16699 24.999 -12.5s11 -19.166 11 -32.499l-50 -448l10 -6c20.667 47.333 51.334 90.666 92.001 129.999s86.667 59 138 59c24.667 0 44.334 -3.33301 59.001 -10
s23 -13.334 25 -20.001l4 -10c-5.33301 -60 -26.5 -111.667 -63.5 -155s-71.833 -71.666 -104.5 -84.999l92 -140h98c0 -15.333 -3.33301 -29.666 -10 -42.999c-44.667 -5.33301 -85 -16 -121 -32c-16 0 -28.333 8 -37 24l-106 181v10c51.333 22.667 91.5 50.667 120.5 84
s46.167 75.333 51.5 126h-61c-26.667 0 -58.334 -20.833 -95.001 -62.5s-66.334 -87.5 -89.001 -137.5c-6.66699 -82.667 -14.334 -152.667 -23.001 -210c-32.667 -10 -64 -15 -94 -15c10.667 44.667 17.334 77.334 20.001 98.001c13.333 98 33.333 308.667 60 632h-73z" />
    <glyph glyph-name="l" unicode="l" horiz-adv-x="269" 
d="M46 715c0 15.333 3.33398 29.666 10.001 42.999c38 5.33301 75 16 111 32c9.33301 0 17.666 -4.16699 24.999 -12.5s11 -19.166 11 -32.499c-12.667 -106.667 -32.667 -335 -60 -685h78c0 -15.333 -3.33301 -29.666 -10 -42.999c-44.667 -5.33301 -85 -16 -121 -32
c-10 0 -18.5 3.66699 -25.5 11s-10.5 18.666 -10.5 33.999c35.333 296.667 58.333 525 69 685h-77z" />
    <glyph glyph-name="m" unicode="m" horiz-adv-x="901" 
d="M708 480c24.667 0 44.3301 -3.33105 58.9971 -9.99805s23 -13.334 25 -20.001l4 -10c-15.333 -128.667 -25.666 -255.334 -30.999 -380.001h80c0 -15.333 -3.33301 -29.666 -10 -42.999c-44.667 -5.33301 -85 -16 -121 -32c-10 0 -18.5 3.66699 -25.5 11
s-10.5 18.666 -10.5 33.999c14.667 93.333 27.334 220 38.001 380h-61c-23.333 0 -52.333 -23.333 -87 -70s-64.667 -97 -90 -151c-7.33301 -98 -13 -161 -17 -189c-32.667 -10 -64 -15 -94 -15c10.667 44.667 17.334 77.334 20.001 98.001c12 58 23.333 167 34 327h-61
c-26 0 -54.167 -20.167 -84.5 -60.5s-56.833 -86.833 -79.5 -139.5c-6.66699 -82.667 -14.334 -152.667 -23.001 -210c-32.667 -10 -64 -15 -94 -15c10.667 44.667 20 97 28 157s15 149.333 21 268h-73c0 15.333 3.33301 29.666 10 42.999c38 5.33301 75 16 111 32
c9.33301 0 17.666 -4.16699 24.999 -12.5s11 -19.166 11 -32.499l-19 -143l10 -6c55.333 126 125.333 189 210 189c24.667 0 44.334 -3.33301 59.001 -10s23.334 -13.334 26.001 -20.001l3 -10c-0.666992 -18 -5 -65.667 -13 -143l10 -6c55.333 126 125.333 189 210 189z
" />
    <glyph glyph-name="n" unicode="n" horiz-adv-x="614" 
d="M55 410c0 15.333 3.33203 29.6689 9.99902 43.002c38 5.33301 75 16 111 32c9.33301 0 17.666 -4.16699 24.999 -12.5s11 -19.166 11 -32.499l-19 -143l10 -6c20.667 47.333 51.334 90.666 92.001 129.999s86.667 59 138 59c24.667 0 44.334 -3.33301 59.001 -10
s23.334 -13.334 26.001 -20.001l3 -10c-15.333 -128.667 -25.666 -255.334 -30.999 -380.001h80c0 -15.333 -3.33301 -29.666 -10 -42.999c-44.667 -5.33301 -85 -16 -121 -32c-10 0 -18.5 3.66699 -25.5 11s-10.5 18.666 -10.5 33.999c14.667 93.333 27.334 220 38.001 380
h-61c-26.667 0 -58.334 -20.833 -95.001 -62.5s-66.334 -87.5 -89.001 -137.5c-6.66699 -82.667 -14.334 -152.667 -23.001 -210c-32.667 -10 -64 -15 -94 -15c10.667 44.667 20 97 28 157s15 149.333 21 268h-73z" />
    <glyph glyph-name="o" unicode="o" horiz-adv-x="490" 
d="M178 62l8 -1.99805h96c28 10.667 52.667 36.334 74 77.001s32 82.334 32 125.001c0 52.667 -9.33301 90 -28 112c-16.667 19.333 -31.334 30.666 -44.001 33.999l-8 2h-96c-28 -10.667 -52.667 -36.334 -74 -77.001s-32 -84.834 -32 -132.501
s8.83301 -81.834 26.5 -102.501s32.834 -32.667 45.501 -36zM345.5 39.002c-40.333 -32.667 -88.166 -49 -143.499 -49c-114 0 -171 62 -171 186c0 46.667 9.5 92.667 28.5 138s48.667 84.333 89 117s88.166 49 143.499 49c114 0 171 -62 171 -186
c0 -46.667 -9.5 -92.667 -28.5 -138s-48.667 -84.333 -89 -117z" />
    <glyph glyph-name="p" unicode="p" horiz-adv-x="565" 
d="M252 -10c-24.667 0 -52.666 4.66699 -83.999 14c-8 -80.667 -13.333 -147 -16 -199l79 -17c0 -15.333 -3.33301 -29.666 -10 -42.999c-53.333 6.66699 -89 10 -107 10c-31.333 0 -66.666 -2.33301 -105.999 -7l-19 -3c0 15.333 3.33301 29.666 10 42.999
c24.667 6 46.667 15 66 27c16.667 102 28.667 192.5 36 271.5s15 186.833 23 323.5h-73c0 15.333 3.33301 29.666 10 42.999c38 5.33301 75 16 111 32c9.33301 0 17.666 -4.16699 24.999 -12.5s11 -19.166 11 -32.499l-19 -143l10 -6c24.667 60 49.667 106.5 75 139.5
s58.666 49.5 99.999 49.5s76 -15.167 104 -45.5s42 -71.5 42 -123.5c0 -86 -25.667 -161 -77 -225s-115 -96 -191 -96zM444.001 283c0 29.333 -6.66699 55.833 -20 79.5s-28.333 39.5 -45 47.5h-48c-41.333 -8 -89 -79.667 -143 -215l-15 -135h161
c26 4.66699 50.833 30.5 74.5 77.5s35.5 95.5 35.5 145.5z" />
    <glyph glyph-name="q" unicode="q" horiz-adv-x="558" 
d="M293 39.5c-25.333 -33 -58.667 -49.499 -100 -49.499s-76 15.167 -104 45.5s-42 71.5 -42 123.5c0 86 25.667 161 77 225s115 96 191 96c24.667 0 52.667 -9.66699 84 -29c1.33301 12 2.66602 21.667 3.99902 29c33.333 10 65 15 95 15c-12 -51.333 -21.333 -97 -28 -137
s-15.667 -119.333 -27 -238s-19.333 -223.334 -24 -314.001l83 -18c0 -15.333 -3.33301 -29.666 -10 -42.999c-48 6.66699 -82 10 -102 10c-36 0 -73 -2.33301 -111 -7l-19 -3c0 15.333 3.33301 29.666 10 42.999c33.333 8 59.333 20 78 36
c10.667 102.667 19.334 203 26.001 301l4 48l-10 6c-24.667 -60 -49.667 -106.5 -75 -139.5zM122.999 187.001c0 -29.333 6.66699 -55.833 20 -79.5s28.333 -39.5 45 -47.5h48c38.667 7.33301 85.667 77.333 141 210c2.66699 28 8 74.667 16 140h-160
c-26 -4.66699 -50.833 -30.5 -74.5 -77.5s-35.5 -95.5 -35.5 -145.5z" />
    <glyph glyph-name="r" unicode="r" horiz-adv-x="420" 
d="M37 410c0 15.333 3.33398 29.666 10.001 42.999c38 5.33301 75 16 111 32c9.33301 0 17.666 -4.16699 24.999 -12.5s11 -19.166 11 -32.499l-17 -120l10 -6c16.667 38 42.5 75.167 77.5 111.5s68.833 54.5 101.5 54.5c12.667 0 24.167 -2.66699 34.5 -8
s17.5 -10.666 21.5 -15.999l6 -8c-16.667 -29.333 -29.334 -62 -38.001 -98l-5 -17c-13.333 -6 -29.666 -9 -48.999 -9c6 27.333 9 44.666 9 51.999c0 18.667 -6.33301 30 -19 34c-14.667 0 -37.667 -18.833 -69 -56.5s-57 -78.167 -77 -121.5
c-8.66699 -100 -17 -177.333 -25 -232c-32.667 -10 -64 -15 -94 -15c10.667 44.667 20 97 28 157s15 149.333 21 268h-73z" />
    <glyph glyph-name="s" unicode="s" horiz-adv-x="454" 
d="M315 122c0 12.667 -3.33105 22.835 -9.99805 30.502s-11.834 13.334 -15.501 17.001s-9.83398 8.33398 -18.501 14.001s-14.667 9.5 -18 11.5c-16.667 10 -32.834 19.167 -48.501 27.5s-27.667 15.166 -36 20.499s-18.833 13.333 -31.5 24
c-22.667 19.333 -34 44.333 -34 75c0 44.667 16.833 78.834 50.5 102.501s74.834 35.5 123.501 35.5s93 -13.333 133 -40c-15.333 -28.667 -27 -59.334 -35 -92.001l-4 -15c-13.333 -6 -29.666 -9 -48.999 -9c6 27.333 9 44.666 9 51.999c0 21.333 -7.33301 34.333 -22 39
h-97c-32 -4.66699 -48 -23.334 -48 -56.001c0 -11.333 5.66699 -22.833 17 -34.5s22.666 -21 33.999 -28s27.5 -15.833 48.5 -26.5s38.5 -20.5 52.5 -29.5s28.167 -21.667 42.5 -38s21.5 -32.833 21.5 -49.5c0 -52 -17 -92.167 -51 -120.5s-80 -42.5 -138 -42.5
c-35.333 0 -65.5 5.5 -90.5 16.5s-41.167 21.833 -48.5 32.5l-11 16c14.667 25.333 25.334 52.666 32.001 81.999l3 13c13.333 6 29.666 9 48.999 9c-6 -22 -9 -41 -9 -57c0 -23.333 19 -39 57 -47h104c25.333 14.667 38 37 38 67z" />
    <glyph glyph-name="t" unicode="t" horiz-adv-x="333" 
d="M300 470c0 -16 -3.33105 -36.001 -9.99805 -60.001h-115c-12.667 -119.333 -20.667 -236 -24 -350h120c0 -15.333 -3.33301 -29.666 -10 -42.999c-58 -5.33301 -105 -16 -141 -32c-37.333 0 -56 15 -56 45c21.333 162.667 34.666 289.334 39.999 380.001h-52
c0 15.333 3.33301 29.666 10 42.999c1.33301 0.666992 3.16602 1.5 5.49902 2.5s6.83301 4.16699 13.5 9.5s12.667 11.666 18 18.999c14.667 20.667 24 48.334 28 83.001c21.333 12 43.666 18 66.999 18c-3.33301 -38 -7.66602 -78 -12.999 -120z" />
    <glyph glyph-name="u" unicode="u" horiz-adv-x="607" 
d="M562 60c0 -15.333 -3.32715 -29.6689 -9.99414 -43.002c-44.667 -5.33301 -85 -16 -121 -32c-10 0 -18.5 3.66699 -25.5 11s-10.5 18.666 -10.5 33.999l19 143l-10 6c-20.667 -47.333 -51.334 -90.666 -92.001 -129.999s-86.667 -59 -138 -59
c-24.667 0 -44.334 3.33301 -59.001 10s-23 13.334 -25 20.001l-4 10c14.667 131.333 24.667 258 30 380h-69c0 15.333 3.33301 29.666 10 42.999c38 5.33301 75 16 111 32c9.33301 0 17.666 -4.16699 24.999 -12.5s11 -19.166 11 -32.499
c-14.667 -93.333 -27.334 -220 -38.001 -380h61c27.333 0 59.666 21.667 96.999 65s66.666 90 87.999 140c9.33301 85.333 18.333 157 27 215c33.333 10 65 15 95 15c-12.667 -51.333 -23.167 -106.666 -31.5 -165.999s-16.5 -149 -24.5 -269h84z" />
    <glyph glyph-name="v" unicode="v" horiz-adv-x="523" 
d="M170 60l95.0029 -0.000976562c54 18.667 93.667 69.334 119 152.001c11.333 37.333 17 77.5 17 120.5s-8 81.5 -24 115.5c26.667 24.667 62.667 37 108 37c0 -164 -28.333 -287.5 -85 -370.5s-122.667 -124.5 -198 -124.5c-26.667 0 -49.334 3.33301 -68.001 10
s-30.667 13.334 -36 20.001l-8 10c13.333 169.333 20.666 296 21.999 380h-71c0 15.333 3.33301 29.666 10 42.999c38 5.33301 75 16 111 32c9.33301 0 17.666 -4 24.999 -12s11 -19 11 -33c-18.667 -138 -28 -264.667 -28 -380z" />
    <glyph glyph-name="w" unicode="w" horiz-adv-x="766" 
d="M512 60c26 0 50.3359 10.8291 73.0029 32.4961s39.834 53.334 51.501 95.001s17.5 84.5 17.5 128.5s-10.333 88 -31 132c2.66699 2.66699 6.33398 6 11.001 10s15.834 9.5 33.501 16.5s36.5 10.5 56.5 10.5c0 -170.667 -25 -300.334 -75 -389.001
c-40 -70.667 -101.333 -106 -184 -106c-24.667 0 -44.667 3.33301 -60 10s-24.333 13.334 -27 20.001l-5 10l12 143l-10 6l-14.5 -34c-7 -16.667 -12.5 -29.167 -16.5 -37.5s-9.83301 -19.666 -17.5 -33.999s-15.334 -25.5 -23.001 -33.5s-16.834 -16.333 -27.501 -25
c-20.667 -16.667 -45.334 -25 -74.001 -25s-50.667 3.33301 -66 10s-24.666 13.334 -27.999 20.001l-4 10c13.333 169.333 20.666 296 21.999 380h-71c0 15.333 3.33301 29.666 10 42.999c38 5.33301 75 16 111 32c9.33301 0 17.666 -4.16699 24.999 -12.5
s11 -19.166 11 -32.499c-18.667 -138 -28 -264.667 -28 -380h45c26 0 52.667 21.667 80 65s51.333 93.333 72 150c2 37.333 6.33301 93 13 167c30.667 10 61 15 91 15c-10.667 -51.333 -16.334 -87.333 -17.001 -108c-8.66699 -89.333 -13.334 -173.666 -14.001 -252.999
l-1 -36h59z" />
    <glyph glyph-name="x" unicode="x" horiz-adv-x="518" 
d="M484 60c0 -15.333 -3.33203 -29.666 -9.99902 -42.999c-44.667 -5.33301 -85 -16 -121 -32c-22.667 8 -41.334 26.167 -56.001 54.5s-33.334 75.833 -56.001 142.5l-146 -197c-16 0 -30.5 2.5 -43.5 7.5s-22.167 10.167 -27.5 15.5l-7 7
c36.667 28.667 62.334 52.334 77.001 71.001l125 162l-11 33l-10.5 32c-2.33301 7.33301 -5.5 16.166 -9.5 26.499s-7.33301 18.5 -10 24.5s-6 12.333 -10 19c-6.66699 12.667 -14 21.667 -22 27h-91c0 15.333 3.33301 29.666 10 42.999c38 5.33301 75 16 111 32
c21.333 -8.66699 39.5 -26.167 54.5 -52.5s30.833 -66.166 47.5 -119.499l131 172c26.667 0 50 -5.66699 70 -17l10 -5c-38 -32.667 -64.333 -59.334 -79 -80.001l-111 -137c35.333 -113.333 64.333 -175.333 87 -186h98z" />
    <glyph glyph-name="y" unicode="y" horiz-adv-x="571" 
d="M58 -217c0 12.667 3.00293 26.6641 9.00293 41.9971h228c30 14.667 56.333 61.667 79 141c14.667 50 25.334 119 32.001 207l-10 6c-20.667 -47.333 -51.334 -90.666 -92.001 -129.999s-86.667 -59 -138 -59c-24.667 0 -44.334 3.33301 -59.001 10s-23 13.334 -25 20.001
l-4 10c15.333 136 26.333 262.667 33 380h-69c0 15.333 3.33301 29.666 10 42.999c38 5.33301 75 16 111 32c9.33301 0 17.666 -4.16699 24.999 -12.5s11 -19.166 11 -32.499c-16.667 -93.333 -30.334 -220 -41.001 -380h61c27.333 0 59.666 21.667 96.999 65
s66.666 90 87.999 140c9.33301 85.333 18.333 157 27 215c33.333 10 65 15 95 15c-12.667 -51.333 -21 -91.166 -25 -119.499s-8.5 -66.833 -13.5 -115.5l-12.5 -120.5c-3.33301 -31.667 -8 -67 -14 -106s-12.667 -70.667 -20 -95s-17.666 -49.333 -30.999 -75
s-28.666 -45.5 -45.999 -59.5c-40 -32.667 -92.333 -49 -157 -49c-27.333 0 -68 7 -122 21z" />
    <glyph glyph-name="z" unicode="z" horiz-adv-x="474" 
d="M128 334c-18.667 4.66699 -33.6689 13 -45.002 25c15.333 53.333 23 91.666 23 114.999c2 4 20.5 6 55.5 6s105.833 -9.33301 212.5 -28l23 28c26.667 0 47.334 -6 62.001 -18v-10l-318 -392h211c11.333 17.333 19.333 38.333 24 63l3 13
c18.667 -4.66699 33.667 -13 45 -25c-15.333 -53.333 -23 -91.666 -23 -114.999c-6 -4 -36.5 -6 -91.5 -6s-123.5 8 -205.5 24l-19 -24c-27.333 0 -48.333 8 -63 24v10l317 386h-184c-11.333 -17.333 -19.666 -38.333 -24.999 -63z" />
    <glyph glyph-name="braceleft" unicode="{" horiz-adv-x="315" 
d="M250 690c22 0 45.3369 -3.33984 70.0039 -10.0068l13 -4l-4 -25h-51c-14.667 -3.33301 -25.334 -8.16602 -32.001 -14.499s-11.334 -16.166 -14.001 -29.499s-6.5 -46.333 -11.5 -99s-9.66699 -90.667 -14 -114s-14 -45.166 -29 -65.499s-29.5 -35.166 -43.5 -44.499
c14 -8.66699 27 -21.834 39 -39.501s18 -38.5 18 -62.5s-3.33301 -68.167 -10 -132.5s-10 -103.166 -10 -116.499c0 -21.333 10.333 -35.666 31 -42.999h52l-4 -26c-25.333 -8.66699 -49.833 -13 -73.5 -13s-41.667 5.83301 -54 17.5s-18.5 27.334 -18.5 47.001
s3.83301 57.5 11.5 113.5s11.5 96.833 11.5 122.5s-6.16699 47 -18.5 64s-24.5 29.167 -36.5 36.5l-18 11c0 15.333 3.33301 29.666 10 42.999c5.33301 3.33301 11.666 7.83301 18.999 13.5s18.333 17.834 33 36.501s23.667 37.334 27 56.001
c9.33301 34 15.166 74.167 17.499 120.5s4.83301 76.5 7.5 90.5c12.667 44.667 40 67 82 67z" />
    <glyph glyph-name="bar" unicode="|" horiz-adv-x="424" 
d="M154 -200l-28.001 5.00098c6.66699 40.667 19.667 173.167 39 397.5s29 383.5 29 477.5l78 16l14 -16c-11.333 -66.667 -29.666 -218.834 -54.999 -456.501s-38 -377.167 -38 -418.5c-12 -3.33301 -25 -5 -39 -5z" />
    <glyph glyph-name="braceright" unicode="}" horiz-adv-x="335" 
d="M73 -149c-22 0 -45.6709 3.67383 -71.0039 11.0068l-12 3l4 25h51c14.667 3.33301 25.334 8.16602 32.001 14.499s11.334 16.166 14.001 29.499s6.5 46.333 11.5 99s9.66699 90.667 14 114s14 45.166 29 65.499s29.5 35.166 43.5 44.499
c-14 8.66699 -27 21.834 -39 39.501s-18 38.5 -18 62.5s3.33301 68.167 10 132.5s10 103.166 10 116.499c0 21.333 -10.333 35.666 -31 42.999h-52l4 26c25.333 8.66699 49.833 13 73.5 13s41.667 -5.83301 54 -17.5s18.5 -27.334 18.5 -47.001s-3.83301 -57.5 -11.5 -113.5
s-11.5 -96.833 -11.5 -122.5s6 -47 18 -64s24 -29.167 36 -36.5l19 -11c0 -15.333 -3.33301 -29.666 -10 -42.999c-5.33301 -3.33301 -11.666 -7.83301 -18.999 -13.5s-18.333 -17.834 -33 -36.501s-23.667 -37.334 -27 -56.001
c-9.33301 -34 -15.166 -74.167 -17.499 -120.5s-4.83301 -76.5 -7.5 -90.5c-12.667 -44.667 -40 -67 -82 -67z" />
    <glyph glyph-name="asciitilde" unicode="~" horiz-adv-x="474" 
d="M376 269c-14 -4.66699 -31.667 -7 -53 -7s-53.5 6.33301 -96.5 19s-67.5 19 -73.5 19h-23c-7.33301 -8 -13.666 -18.333 -18.999 -31h-37l-7 8l17 88c14 4.66699 31.167 7 51.5 7s52.5 -6.33301 96.5 -19s69 -19 75 -19h23c7.33301 8 13.666 18.333 18.999 31h37l7 -8z
" />
    <glyph glyph-name="exclamdown" unicode="&#xa1;" horiz-adv-x="259" 
d="M182 364.5c-12.667 -6.33301 -25.666 -9.5 -38.999 -9.5s-23.833 3 -31.5 9s-11.5 12.667 -11.5 20l5 36c7.33301 20 28.666 30 63.999 30c13.333 0 23.5 -3 30.5 -9s10.5 -13 10.5 -21l-4 -31c-3.33301 -10 -11.333 -18.167 -24 -24.5zM149.001 274l23.001 -4.99902
c-5.33301 -32.667 -11.333 -101.334 -18 -206.001s-10 -205.667 -10 -303l-78 -16l-14 16c13.333 78 27.166 172.833 41.499 284.5s21.5 186.5 21.5 224.5c8.66699 3.33301 20 5 34 5z" />
    <glyph glyph-name="cent" unicode="&#xa2;" horiz-adv-x="437" 
d="M157 -60l8.00098 60.9971c-45.333 5.33301 -79.333 21.5 -102 48.5s-34 70.333 -34 130s16.167 117.334 48.5 173.001s76.166 93.5 131.499 113.5c1.33301 17.333 2 41 2 71l71 16l14 -16l-9 -57c26 0 49.667 -4.66699 71 -14s36.666 -18 45.999 -26
c-14 -24.667 -25.333 -54.667 -34 -90l-5 -17c-13.333 -6 -29.666 -9 -48.999 -9c6 26.667 9 46.667 9 60s-5 22 -15 26h-34c-20 -135.333 -34.333 -248.666 -43 -339.999h131c0 -15.333 -3.33301 -29.666 -10 -42.999c-50 -13.333 -92 -22 -126 -26
c-2.66699 -28 -4 -48.333 -4 -61c-12 -3.33301 -25 -5 -39 -5zM103.001 207.997c0 -78 23.667 -123.331 71 -135.998c13.333 120 24 232.667 32 338c-28 -10.667 -52.167 -35.834 -72.5 -75.501s-30.5 -81.834 -30.5 -126.501z" />
    <glyph glyph-name="sterling" unicode="&#xa3;" horiz-adv-x="547" 
d="M196 267c-7.33301 -73.333 -12.667 -134.999 -16 -184.999c12.667 0 38.334 -5 77.001 -15s69.667 -15 93 -15h25l25 24h31l-14 -77c-29.333 -12.667 -55 -19 -77 -19s-55.333 6 -100 18s-75.667 18 -93 18h-12l-25 -26h-49l42 86c13.333 112 20 175.667 20 191h-60
c-3.33301 7.33301 -5 15 -5 23l5 34h66c4.66699 46.667 10 90.334 16 131.001c8 53.333 30 93.666 66 120.999s72.667 41 110 41s66.666 -11.833 87.999 -35.5s32 -52.5 32 -86.5c-7.33301 -10 -24 -17.667 -50 -23h-10c0 18.667 -5.83301 39.167 -17.5 61.5
s-22.834 34.166 -33.501 35.499h-45c-16 -7.33301 -30 -20.5 -42 -39.5s-20.167 -40.5 -24.5 -64.5s-10.166 -71 -17.499 -141c38 0 89 3 153 9l15 -13l-13 -53h-160z" />
    <glyph glyph-name="currency" unicode="&#xa4;" horiz-adv-x="688" 
d="M274 174l8.99902 -3h90c27.333 10.667 52.166 33.667 74.499 69s33.5 72.333 33.5 111c0 48.667 -9.66699 84.667 -29 108c-18 21.333 -33.333 33.666 -46 36.999l-9 3h-90c-27.333 -10.667 -52.166 -33.667 -74.499 -69s-33.5 -74.833 -33.5 -118.5
s9.33301 -76.667 28 -99s34.334 -35.166 47.001 -38.499zM221.999 502c46 41.333 96.166 62 150.499 62s96.166 -13.333 125.499 -40l69 65c16.667 -2.66699 30 -13.667 40 -33c2.66699 -4.66699 4.33398 -9.66699 5.00098 -15l-77 -70c10.667 -26.667 16 -56.667 16 -90
c0 -59.333 -17.333 -114 -52 -164l79 -81v-15c-9.33301 -20 -27.666 -37.333 -54.999 -52l-82 84c-41.333 -31.333 -87.833 -47 -139.5 -47s-92.167 13.667 -121.5 41l-75 -69c-11.333 0 -21.333 4 -30 12c-9.33301 10 -14 20.333 -14 31l84 77
c-10.667 24 -16 57.833 -16 101.5s13.333 88.5 40 134.5l-64 66v15c14 25.333 32 43 54 53z" />
    <glyph glyph-name="yen" unicode="&#xa5;" horiz-adv-x="543" 
d="M244 0c-16 -6.66699 -30.002 -10.001 -42.002 -10.001c-19.333 0 -35.666 3.33301 -48.999 10c10 47.333 16.333 80.333 19 99h-109c-3.33301 6.66699 -5 14 -5 22l5 32h117c4 32 7 63 9 93h-117c-3.33301 6.66699 -5 14 -5 22l5 32h118l-122 293c22 16 48.333 24 79 24
c40 -114.667 75.667 -208 107 -280l160 280c24 0 40.333 -3.66699 49 -11c-54 -84 -114 -185.667 -180 -305c30.667 0.666992 70.334 3.33398 119.001 8.00098l15 -13l-13 -50h-131l-13 -93c34.667 0.666992 78.667 3.66699 132 9l15 -13l-12 -50h-141
c-4 -30 -7.33301 -63 -10 -99z" />
    <glyph glyph-name="brokenbar" unicode="&#xa6;" horiz-adv-x="429" 
d="M195 286l-24 5c15.333 122.667 23 252.334 23 389.001l78 16l14 -16c-27.333 -162.667 -44 -292.334 -50 -389.001c-13.333 -3.33301 -27 -5 -41 -5zM120 -195c6 34.667 14.167 96.5 24.5 185.5s16.5 156.167 18.5 201.5c11.333 3.33301 24 5 38 5l28 -5
c-28 -205.333 -42 -334.333 -42 -387c-12 -3.33301 -25 -5 -39 -5z" />
    <glyph glyph-name="section" unicode="&#xa7;" horiz-adv-x="455" 
d="M409 593c-2.66699 -14.667 -8.66992 -29.3359 -18.0029 -44.0029h-172c-11.333 -3.33301 -21.333 -11.333 -30 -24s-13 -27.5 -13 -44.5s7.33301 -34 22 -51s32.334 -33 53.001 -48l62.5 -46.5c21 -16 38.833 -35.167 53.5 -57.5s22 -46.166 22 -71.499
c0 -72 -33.333 -119.333 -100 -142c22.667 -27.333 34 -56.333 34 -87c0 -42 -15.5 -79.5 -46.5 -112.5s-78.5 -49.5 -142.5 -49.5c-36 0 -67.333 6 -94 18l-14 6c2.66699 14.667 8.66699 29.334 18 44.001h172c28.667 9.33301 43 31.333 43 66
c0 21.333 -11.167 42.833 -33.5 64.5s-46.666 40.834 -72.999 57.501s-50.666 38.667 -72.999 66s-33.5 56.333 -33.5 87c0 72 33.333 119.333 100 142c-23.333 25.333 -35 56.5 -35 93.5s15.667 72.5 47 106.5s79 51 143 51c36 0 67.667 -6 95 -18zM233.997 296.998
l-37 25.9971h-48c-21.333 -20 -32 -46.667 -32 -80c0 -27.333 13.333 -52.666 40 -75.999c15.333 -13.333 31.5 -25.666 48.5 -36.999s27.833 -18.666 32.5 -21.999h47c21.333 20 32 44.333 32 73s-8.83301 51.667 -26.5 69s-36.5 33 -56.5 47z" />
    <glyph glyph-name="dieresis" unicode="&#xa8;" 
d="M89 671.5c12.667 6.33301 25.666 9.5 38.999 9.5s23.833 -3 31.5 -9s11.5 -12.667 11.5 -20l-5 -36c-7.33301 -20 -28.666 -30 -63.999 -30c-13.333 0 -23.5 3 -30.5 9s-10.5 13 -10.5 21l4 31c3.33301 10 11.333 18.167 24 24.5zM286.999 671.5
c12.667 6.33301 25.666 9.5 38.999 9.5s23.833 -3 31.5 -9s11.5 -12.667 11.5 -20l-5 -36c-7.33301 -20 -28.666 -30 -63.999 -30c-13.333 0 -23.5 3 -30.5 9s-10.5 13 -10.5 21l4 31c3.33301 10 11.333 18.167 24 24.5z" />
    <glyph glyph-name="copyright" unicode="&#xa9;" horiz-adv-x="704" 
d="M451 264c0 -10.667 -2.66797 -24 -8.00098 -40c-49.333 -12.667 -84.666 -19 -105.999 -19c-88.667 0 -133 44 -133 132c0 54 18.333 103.167 55 147.5s83 66.5 139 66.5c18 0 35.667 -3.33301 53 -10s28.333 -12.667 33 -18c-10.667 -19.333 -18.667 -41.333 -24 -66
l-2 -13c-14 -4 -27.667 -6 -41 -6c4 18.667 6 32.667 6 42s-3 15.666 -9 18.999h-75c-20 -7.33301 -37.167 -24.666 -51.5 -51.999s-21.5 -55 -21.5 -83s5 -49.833 15 -65.5s19.667 -25.167 29 -28.5l15 -6h126zM459.999 93c-48.667 -22 -105.333 -32.999 -170 -32.999
s-122 22.5 -172 67.5s-75 103.167 -75 174.5c0 102.667 29 190 87 262c29.333 35.333 68.333 63.5 117 84.5s106.334 31.5 173.001 31.5s124.167 -21.333 172.5 -64s72.5 -101 72.5 -175c0 -98.667 -29.667 -185.334 -89 -260.001c-28.667 -36.667 -67.334 -66 -116.001 -88
zM158.5 507.001c-32.333 -52 -48.501 -105.836 -48.501 -161.503s13.833 -104.167 41.5 -145.5s67.5 -66.666 119.5 -75.999h151c55.333 26 98.5 64.333 129.5 115s46.5 104.334 46.5 161.001s-12.667 105.834 -38 147.501s-64.333 67.5 -117 77.5h-153
c-55.333 -26.667 -99.166 -66 -131.499 -118z" />
    <glyph glyph-name="ordfeminine" unicode="&#xaa;" horiz-adv-x="342" 
d="M312 445c0 -12 -4.33301 -23.666 -13 -34.999c-28 -4 -53 -10.333 -75 -19c-6 0 -11.5 2.33301 -16.5 7s-7.5 11 -7.5 19l11 84l-5 4c-14 -35.333 -28.667 -62.666 -44 -81.999s-35.5 -29 -60.5 -29s-45.333 8 -61 24s-23.5 40.667 -23.5 74c0 50.667 15 94.667 45 132
s67.667 56 113 56c12 0 28.333 -4 49 -12c0 3.33301 0.666992 7.66602 2 12.999c24.667 6 45.667 9 63 9c-14.667 -64.667 -25.667 -146.334 -33 -245.001h56zM93.5 588.001c-13.667 -24.667 -20.499 -48.333 -20.499 -71c0 -44 10 -71.333 30 -82h14
c28 6.66699 60 56.334 96 149.001l6 51h-77c-18.667 -6.66699 -34.834 -22.334 -48.501 -47.001z" />
    <glyph glyph-name="guillemotleft" unicode="&#xab;" horiz-adv-x="622" 
d="M164 261l175.998 -107.999v-18l-25 -28c-31.333 23.333 -67.666 47.166 -108.999 71.499s-74.666 42.833 -99.999 55.5l-39 19l4 40c43.333 21.333 86.833 46.666 130.5 75.999s76.5 55.333 98.5 78l61 -35v-18c-22 -21.333 -53 -45.666 -93 -72.999
s-74.667 -47.333 -104 -60zM401.998 257.001l175.998 -107.999v-18l-25 -28c-31.333 23.333 -67.666 47.166 -108.999 71.499s-74.666 42.833 -99.999 55.5l-39 19l4 40c43.333 21.333 86.833 46.666 130.5 75.999s76.5 55.333 98.5 78l61 -35v-18
c-22 -21.333 -53 -45.666 -93 -72.999s-74.667 -47.333 -104 -60z" />
    <glyph glyph-name="logicalnot" unicode="&#xac;" horiz-adv-x="632" 
d="M531 169c-9.33301 -3.33301 -21.167 -5 -35.5 -5s-21.5 2 -21.5 6l13 116h-385c-3.33301 14 -5 25 -5 33l5 34h181c92 0 175 3.33301 249 10l16 -14c-8.66699 -48.667 -14 -99 -16 -151z" />
    <glyph glyph-name="registered" unicode="&#xae;" horiz-adv-x="704" 
d="M460 93c-48.667 -22 -105.333 -32.999 -170 -32.999s-122 22.5 -172 67.5s-75 103.167 -75 174.5c0 102.667 29 190 87 262c29.333 35.333 68.333 63.5 117 84.5s106.334 31.5 173.001 31.5s124.167 -21.333 172.5 -64s72.5 -101 72.5 -175
c0 -98.667 -29.667 -185.334 -89 -260.001c-28.667 -36.667 -67.334 -66 -116.001 -88zM158.501 507.001c-32.333 -52 -48.501 -105.836 -48.501 -161.503s13.833 -104.167 41.5 -145.5s67.5 -66.666 119.5 -75.999h151c55.333 26 98.5 64.333 129.5 115
s46.5 104.334 46.5 161.001s-12.667 105.834 -38 147.501s-64.333 67.5 -117 77.5h-153c-55.333 -26.667 -99.166 -66 -131.499 -118zM308 343.998c-3.33301 -53.333 -5.00098 -85.667 -5.00098 -97l29 -4l-5 -31c-33.333 2 -56 3 -68 3h-11l-35 -3l4 31
c8.66699 3.33301 17 8 25 14c4.66699 42 11.667 130.667 21 266l-26 5l5 29c20.667 -1.33301 38.334 -2 53.001 -2h14l66 4c32 0 58.667 -7.83301 80 -23.5s32 -37 32 -64s-8.5 -50.333 -25.5 -70s-38.833 -34.5 -65.5 -44.5c12.667 -28.667 25 -51.667 37 -69
s20.667 -31 26 -41l29 -6l-6 -31c-34 2 -61.333 3 -82 3c-9.33301 24 -30 67.667 -62 131h-30zM410.499 404.997c12.333 14.667 18.5 30.332 18.5 46.999c0 36.667 -13.667 57.667 -41 63h-66c-4.66699 -40.667 -8.66699 -87 -12 -139h49
c22 4.66699 39.167 14.334 51.5 29.001z" />
    <glyph glyph-name="macron" unicode="&#xaf;" horiz-adv-x="479" 
d="M193 660c58.667 0 125 3.33301 199 10l16 -14l-13 -53h-293c-3.33301 7.33301 -5 15 -5 23l5 34h91z" />
    <glyph glyph-name="degree" unicode="&#xb0;" horiz-adv-x="232" 
d="M112 670c24.667 0 44.834 -6.66699 60.501 -20s23.5 -34.5 23.5 -63.5s-9.83301 -55.667 -29.5 -80s-47.167 -36.5 -82.5 -36.5c-24.667 0 -44.834 6.66699 -60.501 20s-23.5 34.5 -23.5 63.5s9.83301 55.667 29.5 80s47.167 36.5 82.5 36.5zM57 605
c-7.33301 -12 -11 -25.5 -11 -40.5s3.5 -27 10.5 -36s14.833 -14.5 23.5 -16.5h33c10 3.33301 18.667 11 26 23s11 25.5 11 40.5s-3.5 27 -10.5 36s-14.833 14.5 -23.5 16.5h-33c-10 -3.33301 -18.667 -11 -26 -23z" />
    <glyph glyph-name="plusminus" unicode="&#xb1;" horiz-adv-x="473" 
d="M223 561c9.33301 3.33301 19.5 5 30.5 5s19.833 -1.66699 26.5 -5l-11 -127c45.333 3.33301 82.666 6.33301 111.999 9l16 -14l-13 -53h-119l-10 -119c-9.33301 -3.33301 -21.166 -5 -35.499 -5s-21.5 2 -21.5 6l9 118h-116c-3.33301 7.33301 -5 15 -5 23l5 34h121z
M80 144c-3.33301 11.333 -5 21.5 -5 30.5s1.66699 18.5 5 28.5h91c58.667 0 125 3.33301 199 10l16 -14l-13 -55h-293z" />
    <glyph glyph-name="twosuperior" unicode="&#xb2;" horiz-adv-x="270" 
d="M83 607c-6.66699 0 -14.665 4.00195 -23.998 12.002c0.666992 20.667 3.66699 37.667 9 51c28 13.333 54.5 20 79.5 20s45.833 -6.5 62.5 -19.5s25 -28.333 25 -46s-4.66699 -34.334 -14 -50.001s-19.5 -28.834 -30.5 -39.501s-27.333 -25.5 -49 -44.5
s-38.834 -35.167 -51.501 -48.5h107c5.33301 8 10.666 21.333 15.999 40c10.667 -1.33301 20.667 -6 30 -14c-8.66699 -33.333 -13.334 -57.333 -14.001 -72c-21.333 -2 -46.166 -3 -74.499 -3s-59.833 5 -94.5 15l-11 -13c-12 2.66699 -24 8.66699 -36 18v5
c22 27.333 47.833 54.5 77.5 81.5s51.667 48.333 66 64s21.5 32.5 21.5 50.5s-7.33301 29.667 -22 35h-51c-6.66699 -5.33301 -14 -19.333 -22 -42z" />
    <glyph glyph-name="threesuperior" unicode="&#xb3;" horiz-adv-x="267" 
d="M55 607c-6 0 -13.668 3.99805 -23.001 11.998c0.666992 20.667 3.66699 37.667 9 51c27.333 13.333 53.666 20 78.999 20c54 0 81 -22.667 81 -68c0 -23.333 -17 -50 -51 -80c42 -10.667 63 -37.667 63 -81c0 -36 -17 -69.333 -51 -100s-69.667 -46 -107 -46
c-15.333 0 -29.666 3.33301 -42.999 10c2 15.333 7 27.666 15 36.999h70c16 4.66699 30.333 15.834 43 33.501s19 34.334 19 50.001s-5.5 28.834 -16.5 39.501s-23.833 18 -38.5 22l-8 -6c-10 0 -18.333 4.66699 -25 14v5c18.667 14.667 36.334 31 53.001 49
s25 34.167 25 48.5s-7 24.833 -21 31.5h-51c-6.66699 -5.33301 -14 -19.333 -22 -42z" />
    <glyph glyph-name="acute" unicode="&#xb4;" 
d="M242 740c22 -4 45.332 -12.333 69.999 -25v-10c-49.333 -59.333 -96.666 -104.333 -141.999 -135l-49 19v7c48 47.333 88.333 95.333 121 144z" />
    <glyph glyph-name="mu" unicode="&#xb5;" horiz-adv-x="607" 
d="M229 -15c-39.333 0 -68.998 31.333 -88.998 94l-4 -6l-12 -191c-36.667 -10 -70 -15 -100 -15c12.667 51.333 20.334 87.333 23.001 108c16 142 28.333 286.333 37 433l5 72c36.667 10 70 15 100 15c-10.667 -36 -18.334 -72 -23.001 -108l-10 -153
c0 -24.667 10.167 -58 30.5 -100s39.5 -66.667 57.5 -74h40c45.333 12.667 87.666 68 126.999 166c4 25.333 8.83301 68.5 14.5 129.5s10.167 102.5 13.5 124.5c33.333 10 65 15 95 15c-12.667 -51.333 -21.334 -94.333 -26.001 -129c-11.333 -85.333 -21 -187.333 -29 -306
l-4 -60c-33.333 -10 -65 -15 -95 -15c8 22.667 17 71 27 145l-10 6c-44 -100.667 -100 -151 -168 -151z" />
    <glyph glyph-name="mu" unicode="&#x3bc;" horiz-adv-x="607" 
d="M229 -15c-39.333 0 -68.998 31.333 -88.998 94l-4 -6l-12 -191c-36.667 -10 -70 -15 -100 -15c12.667 51.333 20.334 87.333 23.001 108c16 142 28.333 286.333 37 433l5 72c36.667 10 70 15 100 15c-10.667 -36 -18.334 -72 -23.001 -108l-10 -153
c0 -24.667 10.167 -58 30.5 -100s39.5 -66.667 57.5 -74h40c45.333 12.667 87.666 68 126.999 166c4 25.333 8.83301 68.5 14.5 129.5s10.167 102.5 13.5 124.5c33.333 10 65 15 95 15c-12.667 -51.333 -21.334 -94.333 -26.001 -129c-11.333 -85.333 -21 -187.333 -29 -306
l-4 -60c-33.333 -10 -65 -15 -95 -15c8 22.667 17 71 27 145l-10 6c-44 -100.667 -100 -151 -168 -151z" />
    <glyph glyph-name="paragraph" unicode="&#xb6;" horiz-adv-x="833" 
d="M236 281c-58 0 -104.332 13.166 -138.999 39.499s-52 66.833 -52 121.5s14.167 101.167 42.5 139.5s64.166 66.833 107.499 85.5s90 28 140 28h181c92 0 175 3.33301 249 10l16 -14l-13 -53h-105c-13.333 -94.667 -31.333 -247.667 -54 -459s-34 -336 -34 -374
c-12 -3.33301 -25 -5 -39 -5l-28 5c6 40 18.167 163.167 36.5 369.5s28.5 360.833 30.5 463.5h-153c-13.333 -94.667 -31.333 -247.667 -54 -459s-34 -336 -34 -374c-12 -3.33301 -25 -5 -39 -5l-28 5c10 64.667 25.333 223.334 46 476.001h-77z" />
    <glyph glyph-name="periodcentered" unicode="&#xb7;" horiz-adv-x="213" 
d="M75 282.5c12.667 6.33301 25.666 9.5 38.999 9.5s23.833 -3 31.5 -9s11.5 -12.667 11.5 -20l-5 -36c-7.33301 -20 -28.666 -30 -63.999 -30c-13.333 0 -23.5 3 -30.5 9s-10.5 13 -10.5 21l4 31c3.33301 10 11.333 18.167 24 24.5z" />
    <glyph glyph-name="cedilla" unicode="&#xb8;" horiz-adv-x="371" 
d="M125 -190c4 12 10.6689 24.668 20.002 38.001c23.333 0 40.666 4.5 51.999 13.5s17 19.5 17 31.5s-3.66699 20.667 -11 26h-42l-6 9l23 69c8 2 15 3 21 3l18 -3l-6 -31h33c18.667 -10.667 28 -27.334 28 -50.001c0 -32 -13.833 -57.5 -41.5 -76.5
s-62.834 -28.833 -105.501 -29.5z" />
    <glyph glyph-name="onesuperior" unicode="&#xb9;" horiz-adv-x="259" 
d="M128 676l48 14l10 -9c-14.667 -80 -23 -160.333 -25 -241l71 -15l-8 -31c-46 4 -82 6 -108 6l-86 -6c0 10.667 3 20.667 9 30c26 6.66699 47 15 63 25c10.667 64 16 121.333 16 172l1 4l-57 -63c-14 0 -25 5.66699 -33 17v4c40.667 33.333 73.667 64.333 99 93z" />
    <glyph glyph-name="ordmasculine" unicode="&#xba;" horiz-adv-x="301" 
d="M164 680c31.333 0 57 -10.167 77 -30.5s30 -50.333 30 -90s-12.5 -77.167 -37.5 -112.5s-60.833 -53 -107.5 -53c-31.333 0 -57 10.167 -77 30.5s-30 50.333 -30 90s12.5 77.167 37.5 112.5s60.833 53 107.5 53zM71 526c0 -42.667 15.667 -71.667 47 -87h49
c14 5.33301 26.167 18.666 36.5 39.999s15.5 44.333 15.5 69c0 42.667 -15.667 71.667 -47 87h-49c-14 -5.33301 -26.167 -18.666 -36.5 -39.999s-15.5 -44.333 -15.5 -69z" />
    <glyph glyph-name="guillemotright" unicode="&#xbb;" horiz-adv-x="622" 
d="M502 313l-175.998 107.999v18l25 28c31.333 -23.333 67.666 -47.166 108.999 -71.499s74.666 -42.833 99.999 -55.5l39 -19l-4 -40c-43.333 -21.333 -86.833 -46.666 -130.5 -75.999s-76.5 -55.333 -98.5 -78l-61 35v18c22 21.333 53 45.666 93 72.999
s74.667 47.333 104 60zM264.002 316.999l-175.998 107.999v18l25 28c31.333 -23.333 67.666 -47.166 108.999 -71.499s74.666 -42.833 99.999 -55.5l39 -19l-4 -40c-43.333 -21.333 -86.833 -46.666 -130.5 -75.999s-76.5 -55.333 -98.5 -78l-61 35v18
c22 21.333 53 45.666 93 72.999s74.667 47.333 104 60z" />
    <glyph glyph-name="onequarter" unicode="&#xbc;" horiz-adv-x="741" 
d="M142 -15l-35.001 5c90 114.667 164.667 213.5 224 296.5l230 338.5l84 16l4 -16l-220 -293l-241 -342c-17.333 -3.33301 -32.666 -5 -45.999 -5zM653.999 37c0 -16 -3.33301 -30 -10 -42h-43c-0.666992 -19.333 -1 -46.333 -1 -81c-10.667 -2.66699 -21 -4 -31 -4l-31 4
l10 81h-136l-7 7v33l165 227l44 8l7 -8c-7.33301 -65.333 -13.333 -140.333 -18 -225h51zM181.999 625l48 13.999l10 -9c-14.667 -82 -23.667 -162 -27 -240l71 -15l-8 -31c-46 4 -82 6 -108 6l-86 -6c0 10.667 3 20.667 9 30c26.667 6.66699 47.667 15.334 63 26.001
c12 65.333 18 122 18 170l1 4l-57 -63c-14 0 -25 5.66699 -33 17v4c40.667 33.333 73.667 64.333 99 93zM566.999 204.999c-54.667 -76.667 -92.001 -132.667 -112.001 -168h98c4.66699 42.667 9.33398 98.667 14.001 168z" />
    <glyph glyph-name="onehalf" unicode="&#xbd;" horiz-adv-x="741" 
d="M125 -15l-35.001 5c90 114.667 164.667 213.5 224 296.5l230 338.5l84 16l4 -16l-220 -293l-241 -342c-17.333 -3.33301 -32.666 -5 -45.999 -5zM505.999 202c-6.66699 0 -14.665 4.00098 -23.998 12.001c0.666992 20.667 3.66699 37.667 9 51c28 13.333 54.5 20 79.5 20
s45.833 -6.5 62.5 -19.5s25 -28.333 25 -46s-4.66699 -34.334 -14 -50.001s-19.5 -28.834 -30.5 -39.501s-27.333 -25.5 -49 -44.5s-38.834 -35.167 -51.501 -48.5h107c5.33301 8 10.666 21.333 15.999 40c10.667 -1.33301 20.667 -6 30 -14
c-8.66699 -33.333 -13.334 -57.333 -14.001 -72c-21.333 -2 -45.166 -3 -71.499 -3s-58.833 5 -97.5 15c-5.33301 -5.33301 -9 -9.66602 -11 -12.999c-12 2.66699 -24 8.66699 -36 18v5c22 27.333 47.833 54.5 77.5 81.5s51.667 48.333 66 64s21.5 32.5 21.5 50.5
s-7.33301 29.667 -22 35h-51c-6.66699 -5.33301 -14 -19.333 -22 -42zM162.001 625.001l48 13.999l10 -9c-14.667 -82 -23.667 -162 -27 -240l71 -15l-8 -31c-46 4 -82 6 -108 6l-86 -6c0 10.667 3 20.667 9 30c26.667 6.66699 47.667 15.334 63 26.001
c12 65.333 18 122 18 170l1 4l-57 -63c-14 0 -25 5.66699 -33 17v4c40.667 33.333 73.667 64.333 99 93z" />
    <glyph glyph-name="threequarters" unicode="&#xbe;" horiz-adv-x="741" 
d="M132 -15l-35.001 5c90 114.667 164.667 213.5 224 296.5l230 338.5l84 16l4 -16l-220 -293l-241 -342c-17.333 -3.33301 -32.666 -5 -45.999 -5zM663.999 37c0 -16 -3.33301 -30 -10 -42h-43c-0.666992 -19.333 -1 -46.333 -1 -81c-10.667 -2.66699 -21 -4 -31 -4l-31 4
l10 81h-136l-7 7v33l165 227l44 8l7 -8c-7.33301 -65.333 -13.333 -140.333 -18 -225h51zM95.999 557c-6 0 -13.668 3.99805 -23.001 11.998c0.666992 20.667 3.66699 37.667 9 51c27.333 13.333 53.666 20 78.999 20c54 0 81 -22.667 81 -68c0 -23.333 -17 -50 -51 -80
c42 -10.667 63 -37.667 63 -81c0 -36 -17 -69.333 -51 -100s-69.667 -46 -107 -46c-15.333 0 -29.666 3.33301 -42.999 10c2 15.333 7 27.666 15 36.999h70c16 4.66699 30.333 15.834 43 33.501s19 34.334 19 50.001s-5.5 28.834 -16.5 39.501s-23.833 18 -38.5 22l-8 -6
c-10 0 -18.333 4.66699 -25 14v5c18.667 14.667 36.334 31 53.001 49s25 34.167 25 48.5s-7 24.833 -21 31.5h-51c-6.66699 -5.33301 -14 -19.333 -22 -42zM576.998 204.998c-51.333 -70 -88.668 -126 -112.001 -168h98c4.66699 42.667 9.33398 98.667 14.001 168z" />
    <glyph glyph-name="questiondown" unicode="&#xbf;" horiz-adv-x="386" 
d="M300 364.5c-12.667 -6.33301 -25.666 -9.5 -38.999 -9.5s-23.833 3 -31.5 9s-11.5 12.667 -11.5 20l5 36c7.33301 20 28.666 30 63.999 30c13.333 0 23.5 -3 30.5 -9s10.5 -13 10.5 -21l-4 -31c-3.33301 -10 -11.333 -18.167 -24 -24.5zM83.001 -12
c0 -40.667 17.666 -80.833 52.999 -120.5s72.333 -63.5 111 -71.5v-18l-53 -35c-43.333 13.333 -84.166 39.5 -122.499 78.5s-57.5 85.167 -57.5 138.5s18.5 98.333 55.5 135s81.833 55 134.5 55l19 119c8.66699 3.33301 20 5 34 5l23 -5l-14 -164l-12 -12h-112
c-39.333 -20.667 -59 -55.667 -59 -105z" />
    <glyph glyph-name="Agrave" unicode="&#xc0;" horiz-adv-x="672" 
d="M682 31c0 -15.333 -3.33301 -29.667 -10 -43c-68.667 4.66699 -115.334 7 -140.001 7l-105 -7c0 15.333 3.33301 29.666 10 42.999c19.333 4.66699 37.666 11.334 54.999 20.001c-20.667 106 -32.667 166.333 -36 181c-78 2 -129.5 3 -154.5 3s-54.167 -1.33301 -87.5 -4
l-88 -180l86 -20c0 -15.333 -3.33301 -29.666 -10 -42.999c-53.333 4.66699 -92.333 7 -117 7l-95 -7c0 15.333 3.33301 29.666 10 42.999c21.333 6 41 15.333 59 28c124.667 220 224.334 412.667 299.001 578l-8 32c28.667 14 59.334 21 92.001 21
c62.667 -283.333 115 -498 157 -644zM239 282.999c31.333 -2 63.5 -3 96.5 -3s69.5 0.666992 109.5 2c-8 38 -30 129.333 -66 274c-35.333 -64.667 -82 -155.667 -140 -273zM403 899.999c31.333 -46.667 62.333 -86.667 93 -120l18 -19v-7l-49 -19c-20 13.333 -40 29 -60 47
s-35 32.667 -45 44l-14 17v10c18 23.333 37 39 57 47z" />
    <glyph glyph-name="Aacute" unicode="&#xc1;" horiz-adv-x="672" 
d="M682 31c0 -15.333 -3.33301 -29.667 -10 -43c-68.667 4.66699 -115.334 7 -140.001 7l-105 -7c0 15.333 3.33301 29.666 10 42.999c19.333 4.66699 37.666 11.334 54.999 20.001c-20.667 106 -32.667 166.333 -36 181c-78 2 -129.5 3 -154.5 3s-54.167 -1.33301 -87.5 -4
l-88 -180l86 -20c0 -15.333 -3.33301 -29.666 -10 -42.999c-53.333 4.66699 -92.333 7 -117 7l-95 -7c0 15.333 3.33301 29.666 10 42.999c21.333 6 41 15.333 59 28c124.667 220 224.334 412.667 299.001 578l-8 32c28.667 14 59.334 21 92.001 21
c62.667 -283.333 115 -498 157 -644zM239 282.999c31.333 -2 63.5 -3 96.5 -3s69.5 0.666992 109.5 2c-8 38 -30 129.333 -66 274c-35.333 -64.667 -82 -155.667 -140 -273zM432 889.999c22 -4 45.332 -12.333 69.999 -25v-10c-42 -49.333 -85.667 -89.333 -131 -120l-49 19
v7c40.667 37.333 77.334 80.333 110.001 129z" />
    <glyph glyph-name="Acircumflex" unicode="&#xc2;" horiz-adv-x="672" 
d="M682 31c0 -15.333 -3.33301 -29.667 -10 -43c-68.667 4.66699 -115.334 7 -140.001 7l-105 -7c0 15.333 3.33301 29.666 10 42.999c19.333 4.66699 37.666 11.334 54.999 20.001c-20.667 106 -32.667 166.333 -36 181c-78 2 -129.5 3 -154.5 3s-54.167 -1.33301 -87.5 -4
l-88 -180l86 -20c0 -15.333 -3.33301 -29.666 -10 -42.999c-53.333 4.66699 -92.333 7 -117 7l-95 -7c0 15.333 3.33301 29.666 10 42.999c21.333 6 41 15.333 59 28c124.667 220 224.334 412.667 299.001 578l-8 32c28.667 14 59.334 21 92.001 21
c62.667 -283.333 115 -498 157 -644zM239 282.999c31.333 -2 63.5 -3 96.5 -3s69.5 0.666992 109.5 2c-8 38 -30 129.333 -66 274c-35.333 -64.667 -82 -155.667 -140 -273zM385 877.999l53 27c31.333 -49.333 68 -95.333 110 -138v-8l-52 -24c-36 30.667 -65 63 -87 97
c-26.667 -30.667 -60 -58.667 -100 -84l-44 11v8c59.333 42.667 99.333 79.667 120 111z" />
    <glyph glyph-name="Atilde" unicode="&#xc3;" horiz-adv-x="672" 
d="M682 31c0 -15.333 -3.33301 -29.667 -10 -43c-68.667 4.66699 -115.334 7 -140.001 7l-105 -7c0 15.333 3.33301 29.666 10 42.999c19.333 4.66699 37.666 11.334 54.999 20.001c-20.667 106 -32.667 166.333 -36 181c-78 2 -129.5 3 -154.5 3s-54.167 -1.33301 -87.5 -4
l-88 -180l86 -20c0 -15.333 -3.33301 -29.666 -10 -42.999c-53.333 4.66699 -92.333 7 -117 7l-95 -7c0 15.333 3.33301 29.666 10 42.999c21.333 6 41 15.333 59 28c124.667 220 224.334 412.667 299.001 578l-8 32c28.667 14 59.334 21 92.001 21
c62.667 -283.333 115 -498 157 -644zM239 282.999c31.333 -2 63.5 -3 96.5 -3s69.5 0.666992 109.5 2c-8 38 -30 129.333 -66 274c-35.333 -64.667 -82 -155.667 -140 -273zM546 741.999c-14 -4.66699 -30.5 -7 -49.5 -7s-46 6.33301 -81 19s-55.833 19 -62.5 19h-23
c-7.33301 -8 -13.666 -18.333 -18.999 -31h-37l-7 8l17 88c14 4.66699 30 7 48 7s44.833 -6.33301 80.5 -19s57.167 -19 64.5 -19h23c7.33301 8 13.666 18.333 18.999 31h37l7 -8z" />
    <glyph glyph-name="Adieresis" unicode="&#xc4;" horiz-adv-x="672" 
d="M682 31c0 -15.333 -3.33301 -29.667 -10 -43c-68.667 4.66699 -115.334 7 -140.001 7l-105 -7c0 15.333 3.33301 29.666 10 42.999c19.333 4.66699 37.666 11.334 54.999 20.001c-20.667 106 -32.667 166.333 -36 181c-78 2 -129.5 3 -154.5 3s-54.167 -1.33301 -87.5 -4
l-88 -180l86 -20c0 -15.333 -3.33301 -29.666 -10 -42.999c-53.333 4.66699 -92.333 7 -117 7l-95 -7c0 15.333 3.33301 29.666 10 42.999c21.333 6 41 15.333 59 28c124.667 220 224.334 412.667 299.001 578l-8 32c28.667 14 59.334 21 92.001 21
c62.667 -283.333 115 -498 157 -644zM239 282.999c31.333 -2 63.5 -3 96.5 -3s69.5 0.666992 109.5 2c-8 38 -30 129.333 -66 274c-35.333 -64.667 -82 -155.667 -140 -273zM282 820.499c12.667 6.33301 25.666 9.5 38.999 9.5s23.833 -3 31.5 -9s11.5 -12.667 11.5 -20
l-5 -36c-7.33301 -20 -28.666 -30 -63.999 -30c-13.333 0 -23.5 3 -30.5 9s-10.5 13 -10.5 21l4 31c3.33301 10 11.333 18.167 24 24.5zM479.999 820.499c12.667 6.33301 25.666 9.5 38.999 9.5s23.833 -3 31.5 -9s11.5 -12.667 11.5 -20l-5 -36
c-7.33301 -20 -28.666 -30 -63.999 -30c-13.333 0 -23.5 3 -30.5 9s-10.5 13 -10.5 21l4 31c3.33301 10 11.333 18.167 24 24.5z" />
    <glyph glyph-name="Aring" unicode="&#xc5;" horiz-adv-x="672" 
d="M682 31c0 -15.333 -3.33301 -29.667 -10 -43c-68.667 4.66699 -115.334 7 -140.001 7l-105 -7c0 15.333 3.33301 29.666 10 42.999c19.333 4.66699 37.666 11.334 54.999 20.001c-20.667 106 -32.667 166.333 -36 181c-78 2 -129.5 3 -154.5 3s-54.167 -1.33301 -87.5 -4
l-88 -180l86 -20c0 -15.333 -3.33301 -29.666 -10 -42.999c-53.333 4.66699 -92.333 7 -117 7l-95 -7c0 15.333 3.33301 29.666 10 42.999c21.333 6 41 15.333 59 28c124.667 220 224.334 412.667 299.001 578l-8 32c28.667 14 59.334 21 92.001 21
c62.667 -283.333 115 -498 157 -644zM239 282.999c31.333 -2 63.5 -3 96.5 -3s69.5 0.666992 109.5 2c-8 38 -30 129.333 -66 274c-35.333 -64.667 -82 -155.667 -140 -273zM357 861.499c15.333 19 34.499 28.499 57.499 28.499s40.667 -5.16699 53 -15.5
s18.5 -26.666 18.5 -48.999s-7.66699 -43 -23 -62s-34.666 -28.5 -57.999 -28.5c-47.333 0 -71 20.333 -71 61c0 24.667 7.66699 46.5 23 65.5zM421.999 846.998h-19c-6 -1.33301 -11.667 -5.5 -17 -12.5s-8.16602 -17.333 -8.49902 -31s5.83398 -21.834 18.501 -24.501h19
c6 1.33301 11.667 5.5 17 12.5s8.16602 17.333 8.49902 31s-5.83398 21.834 -18.501 24.501z" />
    <glyph glyph-name="AE" unicode="&#xc6;" horiz-adv-x="1058" 
d="M968 680c6 -5.33301 11.3311 -13.666 15.998 -24.999c-14 -24.667 -25.333 -54.667 -34 -90l-5 -17c-13.333 -6 -29.666 -9 -48.999 -9c6 26.667 9 46.667 9 60s-5 22 -15 26h-243c-12.667 -109.333 -21.334 -194.333 -26.001 -255h224c10.667 16 18.667 34 24 54
c4.66699 2 11.334 3 20.001 3l22 -4c-14 -44 -24.333 -100.333 -31 -169c-5.33301 -2.66699 -12 -4 -20 -4l-17 3c0 26.667 -2.66699 49 -8 67h-217c-6 -81.333 -11 -168 -15 -260h259c12.667 18.667 22 40 28 64l3 13c20.667 -4 34.667 -11 42 -21l4 -6
c-13.333 -33.333 -22 -70 -26 -110h-375l-95 -7c0 15.333 3.33301 29.666 10 42.999c24 7.33301 45.333 18.333 64 33c8.66699 76 14.334 130.333 17.001 163c-66 2 -111.333 3 -136 3s-49.667 -1.33301 -75 -4l-118 -183l71 -17c0 -15.333 -3.33301 -29.666 -10 -42.999
c-53.333 4.66699 -92.333 7 -117 7l-95 -7c0 15.333 3.33301 29.666 10 42.999c27.333 8 50.333 20.333 69 37c168.667 226.667 301.667 415.334 399 566.001l-45 10c0 15.333 3.33301 29.666 10 42.999c53.333 -4.66699 92.333 -7 117 -7h354zM355.998 282
c32 -1.33301 61.5 -1.99902 88.5 -1.99902s58.5 0.666992 94.5 2c6 79.333 13 180.666 21 303.999z" />
    <glyph glyph-name="Ccedilla" unicode="&#xc7;" horiz-adv-x="582" 
d="M185 -200c4 12 10.668 24.667 20.001 38c23.333 0 40.666 4.5 51.999 13.5s17 19.5 17 31.5s-3.66699 20.667 -11 26h-42l-6 9l20 62c-68 2.66699 -121.333 28.5 -160 77.5s-58 110.167 -58 183.5c0 92.667 21 177.667 63 255c45.333 83.333 108 141.333 188 174
c42.667 17.333 84.834 26 126.501 26s75.667 -6.16699 102 -18.5s43.5 -26.5 51.5 -42.5c-14 -25.333 -25.333 -58.333 -34 -99l-5 -20c-16.667 -6 -34.667 -9 -54 -9c5.33301 14.667 8 31.667 8 51c0 32.667 -8.66699 55 -26 67h-160c-56 -30 -99.333 -75.833 -130 -137.5
s-46 -123.667 -46 -186s11.833 -115.333 35.5 -159s58.167 -71.167 103.5 -82.5h239c0 -15.333 -3.33301 -29.666 -10 -42.999c-74 -19.333 -138.333 -31 -193 -35l-5 -26h33c18.667 -10.667 28 -27.334 28 -50.001c0 -32 -13.833 -57.5 -41.5 -76.5
s-62.834 -28.833 -105.501 -29.5z" />
    <glyph glyph-name="Egrave" unicode="&#xc8;" horiz-adv-x="574" 
d="M537 680c6 -5.33301 11.3311 -13.666 15.998 -24.999c-14 -24.667 -25.667 -54.667 -35 -90l-4 -17c-13.333 -6 -29.666 -9 -48.999 -9c6 26.667 9 46.667 9 60s-5 22 -15 26h-243c-12.667 -109.333 -21.334 -194.333 -26.001 -255h224c10.667 16 18.667 34 24 54
c4.66699 2 11.334 3 20.001 3l22 -4c-14 -44 -24.333 -100.333 -31 -169c-5.33301 -2.66699 -12 -4 -20 -4l-17 3c0 26.667 -2.66699 49 -8 67h-217c-6 -81.333 -11 -168 -15 -260h259c12.667 18.667 22 40 28 64l3 13c20.667 -4 34.667 -11 42 -21l4 -6
c-13.333 -33.333 -22 -70 -26 -110h-375l-95 -7c0 15.333 3.33301 29.666 10 42.999c24 7.33301 45.333 18.333 64 33c17.333 148.667 32.333 334.334 45 557.001l-75 18c0 15.333 3.33301 29.666 10 42.999c42.667 -4.66699 77.334 -7 104.001 -7h367zM320.998 900
c31.333 -46.667 62.333 -86.667 93 -120l18 -19v-7l-49 -19c-20 13.333 -40 29 -60 47s-35 32.667 -45 44l-14 17v10c18 23.333 37 39 57 47z" />
    <glyph glyph-name="Eacute" unicode="&#xc9;" horiz-adv-x="574" 
d="M537 680c6 -5.33301 11.3311 -13.666 15.998 -24.999c-14 -24.667 -25.667 -54.667 -35 -90l-4 -17c-13.333 -6 -29.666 -9 -48.999 -9c6 26.667 9 46.667 9 60s-5 22 -15 26h-243c-12.667 -109.333 -21.334 -194.333 -26.001 -255h224c10.667 16 18.667 34 24 54
c4.66699 2 11.334 3 20.001 3l22 -4c-14 -44 -24.333 -100.333 -31 -169c-5.33301 -2.66699 -12 -4 -20 -4l-17 3c0 26.667 -2.66699 49 -8 67h-217c-6 -81.333 -11 -168 -15 -260h259c12.667 18.667 22 40 28 64l3 13c20.667 -4 34.667 -11 42 -21l4 -6
c-13.333 -33.333 -22 -70 -26 -110h-375l-95 -7c0 15.333 3.33301 29.666 10 42.999c24 7.33301 45.333 18.333 64 33c17.333 148.667 32.333 334.334 45 557.001l-75 18c0 15.333 3.33301 29.666 10 42.999c42.667 -4.66699 77.334 -7 104.001 -7h367zM383.998 890
c22 -4 45.332 -12.333 69.999 -25v-10c-42 -49.333 -85.667 -89.333 -131 -120l-49 19v7c40.667 37.333 77.334 80.333 110.001 129z" />
    <glyph glyph-name="Ecircumflex" unicode="&#xca;" horiz-adv-x="574" 
d="M537 680c6 -5.33301 11.3311 -13.666 15.998 -24.999c-14 -24.667 -25.667 -54.667 -35 -90l-4 -17c-13.333 -6 -29.666 -9 -48.999 -9c6 26.667 9 46.667 9 60s-5 22 -15 26h-243c-12.667 -109.333 -21.334 -194.333 -26.001 -255h224c10.667 16 18.667 34 24 54
c4.66699 2 11.334 3 20.001 3l22 -4c-14 -44 -24.333 -100.333 -31 -169c-5.33301 -2.66699 -12 -4 -20 -4l-17 3c0 26.667 -2.66699 49 -8 67h-217c-6 -81.333 -11 -168 -15 -260h259c12.667 18.667 22 40 28 64l3 13c20.667 -4 34.667 -11 42 -21l4 -6
c-13.333 -33.333 -22 -70 -26 -110h-375l-95 -7c0 15.333 3.33301 29.666 10 42.999c24 7.33301 45.333 18.333 64 33c17.333 148.667 32.333 334.334 45 557.001l-75 18c0 15.333 3.33301 29.666 10 42.999c42.667 -4.66699 77.334 -7 104.001 -7h367zM305.998 888l53 27
c31.333 -49.333 68 -95.333 110 -138v-8l-52 -24c-36 30.667 -65 63 -87 97c-26.667 -30.667 -60 -58.667 -100 -84l-44 11v8c59.333 42.667 99.333 79.667 120 111z" />
    <glyph glyph-name="Edieresis" unicode="&#xcb;" horiz-adv-x="574" 
d="M537 680c6 -5.33301 11.3311 -13.666 15.998 -24.999c-14 -24.667 -25.667 -54.667 -35 -90l-4 -17c-13.333 -6 -29.666 -9 -48.999 -9c6 26.667 9 46.667 9 60s-5 22 -15 26h-243c-12.667 -109.333 -21.334 -194.333 -26.001 -255h224c10.667 16 18.667 34 24 54
c4.66699 2 11.334 3 20.001 3l22 -4c-14 -44 -24.333 -100.333 -31 -169c-5.33301 -2.66699 -12 -4 -20 -4l-17 3c0 26.667 -2.66699 49 -8 67h-217c-6 -81.333 -11 -168 -15 -260h259c12.667 18.667 22 40 28 64l3 13c20.667 -4 34.667 -11 42 -21l4 -6
c-13.333 -33.333 -22 -70 -26 -110h-375l-95 -7c0 15.333 3.33301 29.666 10 42.999c24 7.33301 45.333 18.333 64 33c17.333 148.667 32.333 334.334 45 557.001l-75 18c0 15.333 3.33301 29.666 10 42.999c42.667 -4.66699 77.334 -7 104.001 -7h367zM218.998 846.5
c12.667 6.33301 25.666 9.5 38.999 9.5s23.833 -3 31.5 -9s11.5 -12.667 11.5 -20l-5 -36c-7.33301 -20 -28.666 -30 -63.999 -30c-13.333 0 -23.5 3 -30.5 9s-10.5 13 -10.5 21l4 31c3.33301 10 11.333 18.167 24 24.5zM416.997 846.5
c12.667 6.33301 25.666 9.5 38.999 9.5s23.833 -3 31.5 -9s11.5 -12.667 11.5 -20l-5 -36c-7.33301 -20 -28.666 -30 -63.999 -30c-13.333 0 -23.5 3 -30.5 9s-10.5 13 -10.5 21l4 31c3.33301 10 11.333 18.167 24 24.5z" />
    <glyph glyph-name="Igrave" unicode="&#xcc;" horiz-adv-x="334" 
d="M272 36c0 -15.333 -3.33496 -29.666 -10.002 -42.999c-65.333 4.66699 -108 7 -128 7c-29.333 0 -60.666 -2 -93.999 -6l-13 -1c0 15.333 3.33301 29.666 10 42.999c25.333 7.33301 47.333 18.666 66 33.999c17.333 150 32.333 337 45 561l-76 13
c0 15.333 3.33301 29.666 10 42.999c58.667 -4.66699 100.334 -7 125.001 -7l110 7c0 -15.333 -3.33301 -29.666 -10 -42.999c-31.333 -5.33301 -56.333 -15.666 -75 -30.999c-17.333 -144.667 -32 -332 -44 -562zM189.998 900c31.333 -46.667 62.667 -86.667 94 -120
l17 -19v-7l-49 -19c-20 13.333 -40 29 -60 47s-34.667 32.667 -44 44l-15 17v10c18 23.333 37 39 57 47z" />
    <glyph glyph-name="Iacute" unicode="&#xcd;" horiz-adv-x="334" 
d="M272 36c0 -15.333 -3.33496 -29.666 -10.002 -42.999c-65.333 4.66699 -108 7 -128 7c-29.333 0 -60.666 -2 -93.999 -6l-13 -1c0 15.333 3.33301 29.666 10 42.999c25.333 7.33301 47.333 18.666 66 33.999c17.333 150 32.333 337 45 561l-76 13
c0 15.333 3.33301 29.666 10 42.999c58.667 -4.66699 100.334 -7 125.001 -7l110 7c0 -15.333 -3.33301 -29.666 -10 -42.999c-31.333 -5.33301 -56.333 -15.666 -75 -30.999c-17.333 -144.667 -32 -332 -44 -562zM238.998 890c22 -4 45.332 -12.333 69.999 -25v-10
c-42 -49.333 -85.667 -89.333 -131 -120l-49 19v7c40.667 37.333 77.334 80.333 110.001 129z" />
    <glyph glyph-name="Icircumflex" unicode="&#xce;" horiz-adv-x="334" 
d="M272 36c0 -15.333 -3.33496 -29.666 -10.002 -42.999c-65.333 4.66699 -108 7 -128 7c-29.333 0 -60.666 -2 -93.999 -6l-13 -1c0 15.333 3.33301 29.666 10 42.999c25.333 7.33301 47.333 18.666 66 33.999c17.333 150 32.333 337 45 561l-76 13
c0 15.333 3.33301 29.666 10 42.999c58.667 -4.66699 100.334 -7 125.001 -7l110 7c0 -15.333 -3.33301 -29.666 -10 -42.999c-31.333 -5.33301 -56.333 -15.666 -75 -30.999c-17.333 -144.667 -32 -332 -44 -562zM181.998 878l53 27c31.333 -49.333 68 -95.333 110 -138v-8
l-52 -24c-36 30.667 -65 63 -87 97c-26.667 -30.667 -60 -58.667 -100 -84l-44 11v8c59.333 42.667 99.333 79.667 120 111z" />
    <glyph glyph-name="Idieresis" unicode="&#xcf;" horiz-adv-x="334" 
d="M272 36c0 -15.333 -3.33496 -29.666 -10.002 -42.999c-65.333 4.66699 -108 7 -128 7c-29.333 0 -60.666 -2 -93.999 -6l-13 -1c0 15.333 3.33301 29.666 10 42.999c25.333 7.33301 47.333 18.666 66 33.999c17.333 150 32.333 337 45 561l-76 13
c0 15.333 3.33301 29.666 10 42.999c58.667 -4.66699 100.334 -7 125.001 -7l110 7c0 -15.333 -3.33301 -29.666 -10 -42.999c-31.333 -5.33301 -56.333 -15.666 -75 -30.999c-17.333 -144.667 -32 -332 -44 -562zM80.998 847.5c12.667 6.33301 25.666 9.5 38.999 9.5
s23.833 -3 31.5 -9s11.5 -12.667 11.5 -20l-5 -36c-7.33301 -20 -28.666 -30 -63.999 -30c-13.333 0 -23.5 3 -30.5 9s-10.5 13 -10.5 21l4 31c3.33301 10 11.333 18.167 24 24.5zM278.997 847.5c12.667 6.33301 25.666 9.5 38.999 9.5s23.833 -3 31.5 -9
s11.5 -12.667 11.5 -20l-5 -36c-7.33301 -20 -28.666 -30 -63.999 -30c-13.333 0 -23.5 3 -30.5 9s-10.5 13 -10.5 21l4 31c3.33301 10 11.333 18.167 24 24.5z" />
    <glyph glyph-name="Eth" unicode="&#xd0;" horiz-adv-x="657" 
d="M195 680l175 10c36 0 69 -6.66699 99 -20s55 -30.666 75 -51.999s37 -46 51 -74c26 -51.333 39 -105 39 -161c0 -119.333 -35 -214.666 -105 -285.999s-164.667 -107 -284 -107c-20.667 0 -43.834 1.66699 -69.501 5s-43.167 5 -52.5 5l-103 -7
c0 15.333 3.33301 29.666 10 42.999c26.667 8 49.334 20 68.001 36c9.33301 85.333 17 162 23 230h-82c-3.33301 7.33301 -5 15 -5 23l5 34h86c0 0.666992 5.66699 89.667 17 267l-74 18c0 15.333 3.33301 29.666 10 42.999c53.333 -4.66699 92.333 -7 117 -7zM352 625
l-134.999 0.000976562c-11.333 -94.667 -19 -183.334 -23 -266.001c26 0.666992 71 4 135 10l16 -14l-13 -53h-141l-10 -242h193c51.333 20 94.166 60 128.499 120s51.5 121.5 51.5 184.5s-19 122.167 -57 177.5s-86.333 83 -145 83z" />
    <glyph glyph-name="Ntilde" unicode="&#xd1;" horiz-adv-x="672" 
d="M254 36c0 -15.333 -3.33398 -29.6641 -10.001 -42.9971c-60 4.66699 -102.333 7 -127 7l-95 -7c0 15.333 3.33301 29.666 10 42.999c26 7.33301 48.333 19 67 35c12 88 20.333 160.167 25 216.5l14.5 183.5c5 66 9.16699 117.667 12.5 155l-83 18
c0 15.333 3.33301 29.666 10 42.999c42.667 -4.66699 77.334 -7 104.001 -7h54c58 -118 117.333 -230.333 178 -337l102 -180c20 190.667 32.667 345 38 463l-85 18c0 15.333 3.33301 29.666 10 42.999c44.667 -4.66699 78.334 -7 101.001 -7c36 0 72.333 2 109 6l15 1
c0 -15.333 -3.33301 -29.666 -10 -42.999c-30.667 -5.33301 -55.334 -15.333 -74.001 -30c-24 -196.667 -40 -401.334 -48 -614.001l-14 -10l-59 10l-289 537c-10 -80.667 -22.667 -242 -38 -484zM531.999 761.002c-14 -4.66699 -30.5 -7 -49.5 -7s-46 6.33301 -81 19
s-55.833 19 -62.5 19h-23c-7.33301 -8 -13.666 -18.333 -18.999 -31h-37l-7 8l17 88c14 4.66699 30 7 48 7s44.833 -6.33301 80.5 -19s57.167 -19 64.5 -19h23c7.33301 8 13.666 18.333 18.999 31h37l7 -8z" />
    <glyph glyph-name="Ograve" unicode="&#xd2;" horiz-adv-x="687" 
d="M38 241c0 93.333 20.668 178.001 62.001 254.001c45.333 83.333 107.666 141 186.999 173c43.333 18 90.333 27 141 27c70.667 0 126.5 -24.5 167.5 -73.5s61.5 -111.167 61.5 -186.5c0 -116 -31.667 -219 -95 -309c-30.667 -44 -71.5 -79.333 -122.5 -106
s-110.167 -40 -177.5 -40s-121.5 24.667 -162.5 74s-61.5 111.666 -61.5 186.999zM168.001 487.501c-30.667 -61.667 -46 -123.668 -46 -186.001s11.833 -115.333 35.5 -159s58.167 -71.167 103.5 -82.5h139c56 30 98.833 74.667 128.5 134s44.5 120 44.5 182
s-11.5 115.333 -34.5 160s-56.5 74.334 -100.5 89.001h-140c-56 -30 -99.333 -75.833 -130 -137.5zM375.001 900c31.333 -46.667 62.333 -86.667 93 -120l18 -19v-7l-49 -19c-20 13.333 -40 29 -60 47s-35 32.667 -45 44l-14 17v10c18 23.333 37 39 57 47z" />
    <glyph glyph-name="Oacute" unicode="&#xd3;" horiz-adv-x="687" 
d="M38 241c0 93.333 20.668 178.001 62.001 254.001c45.333 83.333 107.666 141 186.999 173c43.333 18 90.333 27 141 27c70.667 0 126.5 -24.5 167.5 -73.5s61.5 -111.167 61.5 -186.5c0 -116 -31.667 -219 -95 -309c-30.667 -44 -71.5 -79.333 -122.5 -106
s-110.167 -40 -177.5 -40s-121.5 24.667 -162.5 74s-61.5 111.666 -61.5 186.999zM168.001 487.501c-30.667 -61.667 -46 -123.668 -46 -186.001s11.833 -115.333 35.5 -159s58.167 -71.167 103.5 -82.5h139c56 30 98.833 74.667 128.5 134s44.5 120 44.5 182
s-11.5 115.333 -34.5 160s-56.5 74.334 -100.5 89.001h-140c-56 -30 -99.333 -75.833 -130 -137.5zM435.001 890c22 -4 45.332 -12.333 69.999 -25v-10c-42 -49.333 -85.667 -89.333 -131 -120l-49 19v7c40.667 37.333 77.334 80.333 110.001 129z" />
    <glyph glyph-name="Ocircumflex" unicode="&#xd4;" horiz-adv-x="687" 
d="M38 241c0 93.333 20.668 178.001 62.001 254.001c45.333 83.333 107.666 141 186.999 173c43.333 18 90.333 27 141 27c70.667 0 126.5 -24.5 167.5 -73.5s61.5 -111.167 61.5 -186.5c0 -116 -31.667 -219 -95 -309c-30.667 -44 -71.5 -79.333 -122.5 -106
s-110.167 -40 -177.5 -40s-121.5 24.667 -162.5 74s-61.5 111.666 -61.5 186.999zM168.001 487.501c-30.667 -61.667 -46 -123.668 -46 -186.001s11.833 -115.333 35.5 -159s58.167 -71.167 103.5 -82.5h139c56 30 98.833 74.667 128.5 134s44.5 120 44.5 182
s-11.5 115.333 -34.5 160s-56.5 74.334 -100.5 89.001h-140c-56 -30 -99.333 -75.833 -130 -137.5zM375.001 878l53 27c31.333 -49.333 68 -95.333 110 -138v-8l-52 -24c-36 30.667 -65 63 -87 97c-26.667 -30.667 -60 -58.667 -100 -84l-44 11v8
c59.333 42.667 99.333 79.667 120 111z" />
    <glyph glyph-name="Otilde" unicode="&#xd5;" horiz-adv-x="687" 
d="M38 241c0 93.333 20.668 178.001 62.001 254.001c45.333 83.333 107.666 141 186.999 173c43.333 18 90.333 27 141 27c70.667 0 126.5 -24.5 167.5 -73.5s61.5 -111.167 61.5 -186.5c0 -116 -31.667 -219 -95 -309c-30.667 -44 -71.5 -79.333 -122.5 -106
s-110.167 -40 -177.5 -40s-121.5 24.667 -162.5 74s-61.5 111.666 -61.5 186.999zM168.001 487.501c-30.667 -61.667 -46 -123.668 -46 -186.001s11.833 -115.333 35.5 -159s58.167 -71.167 103.5 -82.5h139c56 30 98.833 74.667 128.5 134s44.5 120 44.5 182
s-11.5 115.333 -34.5 160s-56.5 74.334 -100.5 89.001h-140c-56 -30 -99.333 -75.833 -130 -137.5zM533.001 760c-14 -4.66699 -30.5 -7 -49.5 -7s-46 6.33301 -81 19s-55.833 19 -62.5 19h-23c-7.33301 -8 -13.666 -18.333 -18.999 -31h-37l-7 8l17 88
c14 4.66699 30 7 48 7s44.833 -6.33301 80.5 -19s57.167 -19 64.5 -19h23c7.33301 8 13.666 18.333 18.999 31h37l7 -8z" />
    <glyph glyph-name="Odieresis" unicode="&#xd6;" horiz-adv-x="687" 
d="M38 241c0 93.333 20.668 178.001 62.001 254.001c45.333 83.333 107.666 141 186.999 173c43.333 18 90.333 27 141 27c70.667 0 126.5 -24.5 167.5 -73.5s61.5 -111.167 61.5 -186.5c0 -116 -31.667 -219 -95 -309c-30.667 -44 -71.5 -79.333 -122.5 -106
s-110.167 -40 -177.5 -40s-121.5 24.667 -162.5 74s-61.5 111.666 -61.5 186.999zM168.001 487.501c-30.667 -61.667 -46 -123.668 -46 -186.001s11.833 -115.333 35.5 -159s58.167 -71.167 103.5 -82.5h139c56 30 98.833 74.667 128.5 134s44.5 120 44.5 182
s-11.5 115.333 -34.5 160s-56.5 74.334 -100.5 89.001h-140c-56 -30 -99.333 -75.833 -130 -137.5zM279.001 848.5c12.667 6.33301 25.666 9.5 38.999 9.5s23.833 -3 31.5 -9s11.5 -12.667 11.5 -20l-5 -36c-7.33301 -20 -28.666 -30 -63.999 -30c-13.333 0 -23.5 3 -30.5 9
s-10.5 13 -10.5 21l4 31c3.33301 10 11.333 18.167 24 24.5zM477 848.5c12.667 6.33301 25.666 9.5 38.999 9.5s23.833 -3 31.5 -9s11.5 -12.667 11.5 -20l-5 -36c-7.33301 -20 -28.666 -30 -63.999 -30c-13.333 0 -23.5 3 -30.5 9s-10.5 13 -10.5 21l4 31
c3.33301 10 11.333 18.167 24 24.5z" />
    <glyph glyph-name="multiply" unicode="&#xd7;" horiz-adv-x="520" 
d="M381 184l-128.001 131.999l-146 -133c-8.66699 4.66699 -15.667 10 -21 16l-11 20l143 133l-114 118v10c12 20 27.333 36.333 46 49l123 -127l137 127c17.333 -8.66699 28.333 -21.667 33 -39l-136 -124l120 -123v-10c-9.33301 -17.333 -24.666 -33.666 -45.999 -48.999z
" />
    <glyph glyph-name="Oslash" unicode="&#xd8;" horiz-adv-x="687" 
d="M267 -20l-23 0.998047l-16 -47c-12 -3.33301 -23.667 -5 -35 -5l-30 5l23 59c-46.667 16.667 -83 47.334 -109 92.001s-39 95.834 -39 153.501s8.16699 112.834 24.5 165.501s40.333 101 72 145s73.5 79.333 125.5 106s110.333 40 175 40l17 48l79 15l4 -16
c-7.33301 -16 -16 -36.333 -26 -61c46.667 -16.667 83 -47.167 109 -91.5s39 -95.333 39 -153s-8.16699 -113 -24.5 -166s-39.833 -101.333 -70.5 -145s-71.5 -78.834 -122.5 -105.501s-108.5 -40 -172.5 -40zM573 384.998c0 46 -8.16797 88.833 -24.501 128.5
s-40.166 70.167 -71.499 91.5c-58.667 -147.333 -127 -329 -205 -545h128c56 30 98.833 74.667 128.5 134s44.5 123 44.5 191zM121.999 291.998c0 -46 8.16797 -88.332 24.501 -126.999s40.166 -67.667 71.499 -87l193 547h-113c-56 -30 -99.333 -75.833 -130 -137.5
s-46 -126.834 -46 -195.501z" />
    <glyph glyph-name="Ugrave" unicode="&#xd9;" horiz-adv-x="703" 
d="M461 638c0 15.333 4.00488 29.667 12.0049 43c48 -4.66699 84.333 -7 109 -7l97 7c0 -15.333 -3.33301 -29.666 -10 -42.999c-26 -2.66699 -49.667 -15 -71 -37c-15.333 -195.333 -28 -322.166 -38 -380.499s-20.167 -100 -30.5 -125s-25.833 -46.333 -46.5 -64
s-46.5 -29.834 -77.5 -36.501s-71.167 -10 -120.5 -10c-64 0 -113.333 16 -148 48s-52 67.833 -52 107.5s4.16699 114 12.5 223s14.166 197.833 17.499 266.5l-80 14c0 15.333 3.33301 29.666 10 42.999c62 -4.66699 103 -7 123 -7c29.333 0 62 2 98 6l14 1
c0 -15.333 -3.33301 -29.666 -10 -42.999c-30.667 -5.33301 -55.667 -15.333 -75 -30c-17.333 -138.667 -26 -286 -26 -442c0 -32.667 13.167 -59.5 39.5 -80.5s56.166 -31.5 89.499 -31.5h135c31.333 19.333 52.666 55.666 63.999 108.999s20.666 116.833 27.999 190.5
s11.666 135.167 12.999 184.5l3 74zM356.005 900.001c31.333 -46.667 62.667 -86.667 94 -120l17 -19v-7l-49 -19c-20 13.333 -40 29 -60 47s-34.667 32.667 -44 44l-15 17v10c18 23.333 37 39 57 47z" />
    <glyph glyph-name="Uacute" unicode="&#xda;" horiz-adv-x="703" 
d="M461 638c0 15.333 4.00488 29.667 12.0049 43c48 -4.66699 84.333 -7 109 -7l97 7c0 -15.333 -3.33301 -29.666 -10 -42.999c-26 -2.66699 -49.667 -15 -71 -37c-15.333 -195.333 -28 -322.166 -38 -380.499s-20.167 -100 -30.5 -125s-25.833 -46.333 -46.5 -64
s-46.5 -29.834 -77.5 -36.501s-71.167 -10 -120.5 -10c-64 0 -113.333 16 -148 48s-52 67.833 -52 107.5s4.16699 114 12.5 223s14.166 197.833 17.499 266.5l-80 14c0 15.333 3.33301 29.666 10 42.999c62 -4.66699 103 -7 123 -7c29.333 0 62 2 98 6l14 1
c0 -15.333 -3.33301 -29.666 -10 -42.999c-30.667 -5.33301 -55.667 -15.333 -75 -30c-17.333 -138.667 -26 -286 -26 -442c0 -32.667 13.167 -59.5 39.5 -80.5s56.166 -31.5 89.499 -31.5h135c31.333 19.333 52.666 55.666 63.999 108.999s20.666 116.833 27.999 190.5
s11.666 135.167 12.999 184.5l3 74zM423.005 890.001c22 -4 45.332 -12.333 69.999 -25v-10c-42 -49.333 -85.667 -89.333 -131 -120l-49 19v7c40.667 37.333 77.334 80.333 110.001 129z" />
    <glyph glyph-name="Ucircumflex" unicode="&#xdb;" horiz-adv-x="703" 
d="M461 638c0 15.333 4.00488 29.667 12.0049 43c48 -4.66699 84.333 -7 109 -7l97 7c0 -15.333 -3.33301 -29.666 -10 -42.999c-26 -2.66699 -49.667 -15 -71 -37c-15.333 -195.333 -28 -322.166 -38 -380.499s-20.167 -100 -30.5 -125s-25.833 -46.333 -46.5 -64
s-46.5 -29.834 -77.5 -36.501s-71.167 -10 -120.5 -10c-64 0 -113.333 16 -148 48s-52 67.833 -52 107.5s4.16699 114 12.5 223s14.166 197.833 17.499 266.5l-80 14c0 15.333 3.33301 29.666 10 42.999c62 -4.66699 103 -7 123 -7c29.333 0 62 2 98 6l14 1
c0 -15.333 -3.33301 -29.666 -10 -42.999c-30.667 -5.33301 -55.667 -15.333 -75 -30c-17.333 -138.667 -26 -286 -26 -442c0 -32.667 13.167 -59.5 39.5 -80.5s56.166 -31.5 89.499 -31.5h135c31.333 19.333 52.666 55.666 63.999 108.999s20.666 116.833 27.999 190.5
s11.666 135.167 12.999 184.5l3 74zM353.005 878.001l53 27c31.333 -49.333 68 -95.333 110 -138v-8l-52 -24c-36 30.667 -65 63 -87 97c-26.667 -30.667 -60 -58.667 -100 -84l-44 11v8c59.333 42.667 99.333 79.667 120 111z" />
    <glyph glyph-name="Udieresis" unicode="&#xdc;" horiz-adv-x="703" 
d="M461 638c0 15.333 4.00488 29.667 12.0049 43c48 -4.66699 84.333 -7 109 -7l97 7c0 -15.333 -3.33301 -29.666 -10 -42.999c-26 -2.66699 -49.667 -15 -71 -37c-15.333 -195.333 -28 -322.166 -38 -380.499s-20.167 -100 -30.5 -125s-25.833 -46.333 -46.5 -64
s-46.5 -29.834 -77.5 -36.501s-71.167 -10 -120.5 -10c-64 0 -113.333 16 -148 48s-52 67.833 -52 107.5s4.16699 114 12.5 223s14.166 197.833 17.499 266.5l-80 14c0 15.333 3.33301 29.666 10 42.999c62 -4.66699 103 -7 123 -7c29.333 0 62 2 98 6l14 1
c0 -15.333 -3.33301 -29.666 -10 -42.999c-30.667 -5.33301 -55.667 -15.333 -75 -30c-17.333 -138.667 -26 -286 -26 -442c0 -32.667 13.167 -59.5 39.5 -80.5s56.166 -31.5 89.499 -31.5h135c31.333 19.333 52.666 55.666 63.999 108.999s20.666 116.833 27.999 190.5
s11.666 135.167 12.999 184.5l3 74zM246.005 847.501c12.667 6.33301 25.666 9.5 38.999 9.5s23.833 -3 31.5 -9s11.5 -12.667 11.5 -20l-5 -36c-7.33301 -20 -28.666 -30 -63.999 -30c-13.333 0 -23.5 3 -30.5 9s-10.5 13 -10.5 21l4 31c3.33301 10 11.333 18.167 24 24.5z
M444.004 847.501c12.667 6.33301 25.666 9.5 38.999 9.5s23.833 -3 31.5 -9s11.5 -12.667 11.5 -20l-5 -36c-7.33301 -20 -28.666 -30 -63.999 -30c-13.333 0 -23.5 3 -30.5 9s-10.5 13 -10.5 21l4 31c3.33301 10 11.333 18.167 24 24.5z" />
    <glyph glyph-name="Yacute" unicode="&#xdd;" horiz-adv-x="543" 
d="M-5 -217c0 16 3.00293 30.002 9.00293 42.002h291c30 14.667 56.333 61.667 79 141c14.667 50 25.334 119 32.001 207l-10 6c-18.667 -43.333 -48.334 -85 -89.001 -125c-21.333 -20.667 -46.833 -37.334 -76.5 -50.001s-58.5 -19 -86.5 -19s-50.5 1.5 -67.5 4.5
s-29.167 6.5 -36.5 10.5c-16.667 8.66699 -25.334 16 -26.001 22l-1 5c3.33301 30 8.33301 72.167 15 126.5l15 124c3.33301 28.333 7 63.833 11 106.5c9.33301 84.667 15.666 165 18.999 241h-74c0 15.333 3.33301 29.666 10 42.999c41.333 5.33301 80 16 116 32
c9.33301 0 17.666 -4.16699 24.999 -12.5s11 -19.166 11 -32.499c-29.333 -186 -50.333 -384.333 -63 -595h89c31.333 0 70.166 23.833 116.499 71.5s80.833 96.5 103.5 146.5c20 169.333 36.667 298.666 50 387.999c33.333 10 65 15 95 15
c-12.667 -51.333 -22.167 -100.5 -28.5 -147.5s-14.5 -114.667 -24.5 -203l-19.5 -170.5c-3 -25.333 -7.5 -58.5 -13.5 -99.5s-11.333 -70.167 -16 -87.5l-19 -68c-8 -28 -16.5 -47.333 -25.5 -58l-32.5 -39.5c-12.667 -15.667 -27 -26.167 -43 -31.5
c-42 -14 -80.667 -21 -116 -21c-67.333 0 -130.666 7 -189.999 21zM373.003 890.002c22 -4 45.332 -12.333 69.999 -25v-10c-42 -49.333 -85.667 -89.333 -131 -120l-49 19v7c40.667 37.333 77.334 80.333 110.001 129z" />
    <glyph glyph-name="Thorn" unicode="&#xde;" horiz-adv-x="580" 
d="M52 644c0 15.333 3.33301 29.666 10 42.999c62 -4.66699 103.333 -7 124 -7c28.667 0 60.667 2 96 6l15 1c0 -15.333 -3.33301 -29.666 -10 -42.999c-31.333 -5.33301 -56.333 -15.666 -75 -30.999l-6 -50l139 16c58 0 104.333 -13.167 139 -39.5s52 -68.833 52 -127.5
c0 -75.333 -28.167 -134.5 -84.5 -177.5s-123.833 -64.5 -202.5 -64.5h-75l-6 -119l84 -15c0 -15.333 -3.33301 -29.666 -10 -42.999c-68.667 4.66699 -113 7 -133 7c-29.333 0 -59 -2 -89 -6l-13 -1c0 15.333 3.33301 29.666 10 42.999
c25.333 7.33301 47.333 18.666 66 33.999c17.333 150 32.333 337 45 561zM420.5 279.5c25 30.333 37.5 63.167 37.5 98.5s-7.33301 65.333 -22 90s-35.667 40 -63 46h-172c-9.33301 -86 -17.333 -183.667 -24 -293h138c45.333 8.66699 80.5 28.167 105.5 58.5z" />
    <glyph glyph-name="germandbls" unicode="&#xdf;" horiz-adv-x="488" 
d="M174 -10c1.33301 29.333 6.33496 52.6758 15.002 70.0088h95c58 31.333 87 82.666 87 153.999c0 28 -7 52.5 -21 73.5s-32 32.833 -54 35.5h-71l-7 10l8 64c75.333 43.333 113 95.666 113 156.999c0 35.333 -11.333 59 -34 71h-66
c-34 -20.667 -53.667 -54.334 -59 -101.001c-12.667 -105.333 -23.334 -212.333 -32.001 -321s-15.667 -181.334 -21 -218.001c-28.667 -7.33301 -53.667 -12.333 -75 -15h-19c10.667 44.667 19 88.5 25 131.5s13.667 117 23 222s14 158.833 14 161.5
c5.33301 50 21 91.667 47 125c44 58.667 99.667 88 167 88c34.667 0 61.167 -8.83301 79.5 -26.5s27.5 -44.334 27.5 -80.001s-11 -70.834 -33 -105.501s-50.333 -64.334 -85 -89.001c45.333 0 81.666 -12.333 108.999 -37s41 -59.667 41 -105
c0 -58.667 -16.667 -111.334 -50 -158.001s-79 -82.334 -137 -107.001h-87z" />
    <glyph glyph-name="agrave" unicode="&#xe0;" horiz-adv-x="546" 
d="M509 60c0 -15.333 -3.33301 -29.667 -10 -43c-44.667 -5.33301 -85 -16 -121 -32c-10 0 -18.5 3.66699 -25.5 11s-10.5 18.666 -10.5 33.999l19 143l-10 6c-24.667 -60 -49.667 -106.5 -75 -139.5s-58.666 -49.5 -99.999 -49.5s-76 15.167 -104 45.5s-42 71.5 -42 123.5
c0 86 25.667 161 77 225s115 96 191 96c24.667 0 52.667 -9.66699 84 -29c1.33301 12 2.66602 21.667 3.99902 29c33.333 10 65 15 95 15c-12.667 -51.333 -23.167 -106.666 -31.5 -165.999s-16.5 -149 -24.5 -269h84zM106 186.999c0 -29.333 6.66699 -55.833 20 -79.5
s28.333 -39.5 45 -47.5h48c38.667 7.33301 85.667 77.333 141 210c2.66699 28 8 74.667 16 140h-160c-26 -4.66699 -50.833 -30.5 -74.5 -77.5s-35.5 -95.5 -35.5 -145.5zM249 759.999c29.333 -42.667 64 -89 104 -139l20 -25v-7l-49 -19c-18.667 13.333 -39 31.333 -61 54
s-39.333 42 -52 58l-19 23v10c16.667 21.333 35.667 36.333 57 45z" />
    <glyph glyph-name="aacute" unicode="&#xe1;" horiz-adv-x="546" 
d="M509 60c0 -15.333 -3.33301 -29.667 -10 -43c-44.667 -5.33301 -85 -16 -121 -32c-10 0 -18.5 3.66699 -25.5 11s-10.5 18.666 -10.5 33.999l19 143l-10 6c-24.667 -60 -49.667 -106.5 -75 -139.5s-58.666 -49.5 -99.999 -49.5s-76 15.167 -104 45.5s-42 71.5 -42 123.5
c0 86 25.667 161 77 225s115 96 191 96c24.667 0 52.667 -9.66699 84 -29c1.33301 12 2.66602 21.667 3.99902 29c33.333 10 65 15 95 15c-12.667 -51.333 -23.167 -106.666 -31.5 -165.999s-16.5 -149 -24.5 -269h84zM106 186.999c0 -29.333 6.66699 -55.833 20 -79.5
s28.333 -39.5 45 -47.5h48c38.667 7.33301 85.667 77.333 141 210c2.66699 28 8 74.667 16 140h-160c-26 -4.66699 -50.833 -30.5 -74.5 -77.5s-35.5 -95.5 -35.5 -145.5zM379 739.999c22 -4 45.332 -12.333 69.999 -25v-10c-49.333 -59.333 -96.666 -104.333 -141.999 -135
l-49 19v7c48 47.333 88.333 95.333 121 144z" />
    <glyph glyph-name="acircumflex" unicode="&#xe2;" horiz-adv-x="546" 
d="M509 60c0 -15.333 -3.33301 -29.667 -10 -43c-44.667 -5.33301 -85 -16 -121 -32c-10 0 -18.5 3.66699 -25.5 11s-10.5 18.666 -10.5 33.999l19 143l-10 6c-24.667 -60 -49.667 -106.5 -75 -139.5s-58.666 -49.5 -99.999 -49.5s-76 15.167 -104 45.5s-42 71.5 -42 123.5
c0 86 25.667 161 77 225s115 96 191 96c24.667 0 52.667 -9.66699 84 -29c1.33301 12 2.66602 21.667 3.99902 29c33.333 10 65 15 95 15c-12.667 -51.333 -23.167 -106.666 -31.5 -165.999s-16.5 -149 -24.5 -269h84zM106 186.999c0 -29.333 6.66699 -55.833 20 -79.5
s28.333 -39.5 45 -47.5h48c38.667 7.33301 85.667 77.333 141 210c2.66699 28 8 74.667 16 140h-160c-26 -4.66699 -50.833 -30.5 -74.5 -77.5s-35.5 -95.5 -35.5 -145.5zM296 712.999l53 27c31.333 -49.333 68 -95.333 110 -138v-8l-52 -24c-36 30.667 -65 63 -87 97
c-26.667 -30.667 -60 -58.667 -100 -84l-44 11v8c59.333 42.667 99.333 79.667 120 111z" />
    <glyph glyph-name="atilde" unicode="&#xe3;" horiz-adv-x="546" 
d="M509 60c0 -15.333 -3.33301 -29.667 -10 -43c-44.667 -5.33301 -85 -16 -121 -32c-10 0 -18.5 3.66699 -25.5 11s-10.5 18.666 -10.5 33.999l19 143l-10 6c-24.667 -60 -49.667 -106.5 -75 -139.5s-58.666 -49.5 -99.999 -49.5s-76 15.167 -104 45.5s-42 71.5 -42 123.5
c0 86 25.667 161 77 225s115 96 191 96c24.667 0 52.667 -9.66699 84 -29c1.33301 12 2.66602 21.667 3.99902 29c33.333 10 65 15 95 15c-12.667 -51.333 -23.167 -106.666 -31.5 -165.999s-16.5 -149 -24.5 -269h84zM106 186.999c0 -29.333 6.66699 -55.833 20 -79.5
s28.333 -39.5 45 -47.5h48c38.667 7.33301 85.667 77.333 141 210c2.66699 28 8 74.667 16 140h-160c-26 -4.66699 -50.833 -30.5 -74.5 -77.5s-35.5 -95.5 -35.5 -145.5zM442 586.999c-14 -4.66699 -30.5 -7 -49.5 -7s-46 6.33301 -81 19s-55.833 19 -62.5 19h-23
c-7.33301 -8 -13.666 -18.333 -18.999 -31h-37l-7 8l17 88c14 4.66699 30 7 48 7s44.833 -6.33301 80.5 -19s57.167 -19 64.5 -19h23c7.33301 8 13.666 18.333 18.999 31h37l7 -8z" />
    <glyph glyph-name="adieresis" unicode="&#xe4;" horiz-adv-x="546" 
d="M509 60c0 -15.333 -3.33301 -29.667 -10 -43c-44.667 -5.33301 -85 -16 -121 -32c-10 0 -18.5 3.66699 -25.5 11s-10.5 18.666 -10.5 33.999l19 143l-10 6c-24.667 -60 -49.667 -106.5 -75 -139.5s-58.666 -49.5 -99.999 -49.5s-76 15.167 -104 45.5s-42 71.5 -42 123.5
c0 86 25.667 161 77 225s115 96 191 96c24.667 0 52.667 -9.66699 84 -29c1.33301 12 2.66602 21.667 3.99902 29c33.333 10 65 15 95 15c-12.667 -51.333 -23.167 -106.666 -31.5 -165.999s-16.5 -149 -24.5 -269h84zM106 186.999c0 -29.333 6.66699 -55.833 20 -79.5
s28.333 -39.5 45 -47.5h48c38.667 7.33301 85.667 77.333 141 210c2.66699 28 8 74.667 16 140h-160c-26 -4.66699 -50.833 -30.5 -74.5 -77.5s-35.5 -95.5 -35.5 -145.5zM189 671.499c12.667 6.33301 25.666 9.5 38.999 9.5s23.833 -3 31.5 -9s11.5 -12.667 11.5 -20
l-5 -36c-7.33301 -20 -28.666 -30 -63.999 -30c-13.333 0 -23.5 3 -30.5 9s-10.5 13 -10.5 21l4 31c3.33301 10 11.333 18.167 24 24.5zM386.999 671.499c12.667 6.33301 25.666 9.5 38.999 9.5s23.833 -3 31.5 -9s11.5 -12.667 11.5 -20l-5 -36
c-7.33301 -20 -28.666 -30 -63.999 -30c-13.333 0 -23.5 3 -30.5 9s-10.5 13 -10.5 21l4 31c3.33301 10 11.333 18.167 24 24.5z" />
    <glyph glyph-name="aring" unicode="&#xe5;" horiz-adv-x="546" 
d="M509 60c0 -15.333 -3.33301 -29.667 -10 -43c-44.667 -5.33301 -85 -16 -121 -32c-10 0 -18.5 3.66699 -25.5 11s-10.5 18.666 -10.5 33.999l19 143l-10 6c-24.667 -60 -49.667 -106.5 -75 -139.5s-58.666 -49.5 -99.999 -49.5s-76 15.167 -104 45.5s-42 71.5 -42 123.5
c0 86 25.667 161 77 225s115 96 191 96c24.667 0 52.667 -9.66699 84 -29c1.33301 12 2.66602 21.667 3.99902 29c33.333 10 65 15 95 15c-12.667 -51.333 -23.167 -106.666 -31.5 -165.999s-16.5 -149 -24.5 -269h84zM106 186.999c0 -29.333 6.66699 -55.833 20 -79.5
s28.333 -39.5 45 -47.5h48c38.667 7.33301 85.667 77.333 141 210c2.66699 28 8 74.667 16 140h-160c-26 -4.66699 -50.833 -30.5 -74.5 -77.5s-35.5 -95.5 -35.5 -145.5zM271 686.499c15.333 19 34.499 28.499 57.499 28.499s40.667 -5.16699 53 -15.5
s18.5 -26.666 18.5 -48.999s-7.66699 -43 -23 -62s-34.666 -28.5 -57.999 -28.5c-47.333 0 -71 20.333 -71 61c0 24.667 7.66699 46.5 23 65.5zM335.999 671.998h-19c-6 -1.33301 -11.667 -5.5 -17 -12.5s-8.16602 -17.333 -8.49902 -31s5.83398 -21.834 18.501 -24.501h19
c6 1.33301 11.667 5.5 17 12.5s8.16602 17.333 8.49902 31s-5.83398 21.834 -18.501 24.501z" />
    <glyph glyph-name="ae" unicode="&#xe6;" horiz-adv-x="760" 
d="M680 60c0 -15.333 -3.33203 -29.667 -9.99902 -43c-84 -18 -141.333 -27 -172 -27c-54 0 -92.5 13.5 -115.5 40.5s-35.167 72.5 -36.5 136.5c-23.333 -56 -47.5 -99.5 -72.5 -130.5s-57.833 -46.5 -98.5 -46.5s-75 15.167 -103 45.5s-42 71.5 -42 123.5
c0 86 25.667 161 77 225s115 96 191 96c24.667 0 52.667 -9.66699 84 -29c1.33301 12 2.66602 21.667 3.99902 29c33.333 10 65 15 95 15c-6 -22.667 -11 -44.334 -15 -65.001c42 33.333 89 50 141 50c32.667 0 56.667 -8.33301 72 -25s23 -37 23 -61
c0 -120 -94 -182 -282 -186c0 -93.333 20.667 -142.666 62 -147.999h198zM106.001 186.999c0 -29.333 6.66797 -55.833 20.001 -79.5s28.333 -39.5 45 -47.5h48c18 3.33301 38 20.833 60 52.5s38.667 60 50 85s21.666 49.167 30.999 72.5l16 140h-160
c-26 -4.66699 -50.833 -30.5 -74.5 -77.5s-35.5 -95.5 -35.5 -145.5zM632.002 368.999c0 22 -9.33398 35.667 -28.001 41h-92c-22.667 -8.66699 -42.167 -28.5 -58.5 -59.5s-26.833 -65.5 -31.5 -103.5c76.667 2.66699 130.834 14.5 162.501 35.5s47.5 49.833 47.5 86.5z
" />
    <glyph glyph-name="ccedilla" unicode="&#xe7;" horiz-adv-x="437" 
d="M137 -190c4 12 10.666 24.6689 19.999 38.002c23.333 0 40.666 4.5 51.999 13.5s17 19.5 17 31.5s-3.66699 20.667 -11 26h-42l-6 9l21 63c-52.667 2 -92.334 17.667 -119.001 47s-40 72 -40 128s9.83301 106.667 29.5 152s49.834 83.666 90.501 114.999
s87.334 47 140.001 47c25.333 0 48.5 -4.66699 69.5 -14s36.167 -18 45.5 -26c-14 -24.667 -25.333 -54.667 -34 -90l-5 -17c-13.333 -6 -29.666 -9 -48.999 -9c6 26.667 9 46.667 9 60s-5 22 -15 26h-105c-27.333 -10.667 -51.166 -35.834 -71.499 -75.501
s-30.5 -81.834 -30.5 -126.501c0 -52 9.66699 -89.333 29 -112c16.667 -19.333 32 -30.666 46 -33.999l8 -2h178c0 -15.333 -3.33301 -29.666 -10 -42.999c-50 -12.667 -92 -21 -126 -25l-5 -26h33c18.667 -10.667 28 -27.334 28 -50.001c0 -32 -13.833 -57.5 -41.5 -76.5
s-62.834 -28.833 -105.501 -29.5z" />
    <glyph glyph-name="egrave" unicode="&#xe8;" horiz-adv-x="446" 
d="M381 60c0 -15.333 -3.33203 -29.668 -9.99902 -43.001c-70.667 -18 -121.334 -27 -152.001 -27c-114.667 0 -172 62.333 -172 187c0 46 10 91.833 30 137.5s50.5 84.667 91.5 117s87.5 48.5 139.5 48.5c32.667 0 56.667 -8.33301 72 -25s23 -37 23 -61
c0 -120 -94 -182 -282 -186c0 -91.333 27.333 -140.666 82 -147.999h178zM333.001 368.998c0 22 -9.33301 35.667 -28 41h-92c-22 -8.66699 -41 -27.834 -57 -57.501s-26.667 -63.167 -32 -100.5c76.667 2.66699 130.667 13.834 162 33.501s47 47.5 47 83.5z
M238.001 759.998c29.333 -42.667 64 -89 104 -139l20 -25v-7l-49 -19c-18.667 13.333 -39 31.333 -61 54s-39.333 42 -52 58l-19 23v10c16.667 21.333 35.667 36.333 57 45z" />
    <glyph glyph-name="eacute" unicode="&#xe9;" horiz-adv-x="446" 
d="M381 60c0 -15.333 -3.33203 -29.668 -9.99902 -43.001c-70.667 -18 -121.334 -27 -152.001 -27c-114.667 0 -172 62.333 -172 187c0 46 10 91.833 30 137.5s50.5 84.667 91.5 117s87.5 48.5 139.5 48.5c32.667 0 56.667 -8.33301 72 -25s23 -37 23 -61
c0 -120 -94 -182 -282 -186c0 -91.333 27.333 -140.666 82 -147.999h178zM333.001 368.998c0 22 -9.33301 35.667 -28 41h-92c-22 -8.66699 -41 -27.834 -57 -57.501s-26.667 -63.167 -32 -100.5c76.667 2.66699 130.667 13.834 162 33.501s47 47.5 47 83.5z
M354.001 739.998c22 -4 45.332 -12.333 69.999 -25v-10c-49.333 -59.333 -96.666 -104.333 -141.999 -135l-49 19v7c48 47.333 88.333 95.333 121 144z" />
    <glyph glyph-name="ecircumflex" unicode="&#xea;" horiz-adv-x="446" 
d="M381 60c0 -15.333 -3.33203 -29.668 -9.99902 -43.001c-70.667 -18 -121.334 -27 -152.001 -27c-114.667 0 -172 62.333 -172 187c0 46 10 91.833 30 137.5s50.5 84.667 91.5 117s87.5 48.5 139.5 48.5c32.667 0 56.667 -8.33301 72 -25s23 -37 23 -61
c0 -120 -94 -182 -282 -186c0 -91.333 27.333 -140.666 82 -147.999h178zM333.001 368.998c0 22 -9.33301 35.667 -28 41h-92c-22 -8.66699 -41 -27.834 -57 -57.501s-26.667 -63.167 -32 -100.5c76.667 2.66699 130.667 13.834 162 33.501s47 47.5 47 83.5z
M277.001 712.998l53 27c31.333 -49.333 68 -95.333 110 -138v-8l-52 -24c-36 30.667 -65 63 -87 97c-26.667 -30.667 -60 -58.667 -100 -84l-44 11v8c59.333 42.667 99.333 79.667 120 111z" />
    <glyph glyph-name="edieresis" unicode="&#xeb;" horiz-adv-x="446" 
d="M381 60c0 -15.333 -3.33203 -29.668 -9.99902 -43.001c-70.667 -18 -121.334 -27 -152.001 -27c-114.667 0 -172 62.333 -172 187c0 46 10 91.833 30 137.5s50.5 84.667 91.5 117s87.5 48.5 139.5 48.5c32.667 0 56.667 -8.33301 72 -25s23 -37 23 -61
c0 -120 -94 -182 -282 -186c0 -91.333 27.333 -140.666 82 -147.999h178zM333.001 368.998c0 22 -9.33301 35.667 -28 41h-92c-22 -8.66699 -41 -27.834 -57 -57.501s-26.667 -63.167 -32 -100.5c76.667 2.66699 130.667 13.834 162 33.501s47 47.5 47 83.5z
M176.001 671.498c12.667 6.33301 25.666 9.5 38.999 9.5s23.833 -3 31.5 -9s11.5 -12.667 11.5 -20l-5 -36c-7.33301 -20 -28.666 -30 -63.999 -30c-13.333 0 -23.5 3 -30.5 9s-10.5 13 -10.5 21l4 31c3.33301 10 11.333 18.167 24 24.5zM374 671.498
c12.667 6.33301 25.666 9.5 38.999 9.5s23.833 -3 31.5 -9s11.5 -12.667 11.5 -20l-5 -36c-7.33301 -20 -28.666 -30 -63.999 -30c-13.333 0 -23.5 3 -30.5 9s-10.5 13 -10.5 21l4 31c3.33301 10 11.333 18.167 24 24.5z" />
    <glyph glyph-name="igrave" unicode="&#xec;" horiz-adv-x="287" 
d="M33 410c0 15.333 3.33203 29.666 9.99902 42.999c38 5.33301 75 16 111 32c9.33301 0 17.666 -4.16699 24.999 -12.5s11 -19.166 11 -32.499c-15.333 -130 -25.666 -256.667 -30.999 -380h80c0 -15.333 -3.33301 -29.666 -10 -42.999c-44.667 -5.33301 -85 -16 -121 -32
c-10 0 -18.5 3.66699 -25.5 11s-10.5 18.666 -10.5 33.999c14.667 93.333 27.334 220 38.001 380h-77zM109.999 760c29.333 -42.667 64 -89 104 -139l20 -25v-7l-49 -19c-18.667 13.333 -39 31.333 -61 54s-39.333 42 -52 58l-19 23v10c16.667 21.333 35.667 36.333 57 45z
" />
    <glyph glyph-name="iacute" unicode="&#xed;" horiz-adv-x="287" 
d="M33 410c0 15.333 3.33203 29.666 9.99902 42.999c38 5.33301 75 16 111 32c9.33301 0 17.666 -4.16699 24.999 -12.5s11 -19.166 11 -32.499c-15.333 -130 -25.666 -256.667 -30.999 -380h80c0 -15.333 -3.33301 -29.666 -10 -42.999c-44.667 -5.33301 -85 -16 -121 -32
c-10 0 -18.5 3.66699 -25.5 11s-10.5 18.666 -10.5 33.999c14.667 93.333 27.334 220 38.001 380h-77zM228.999 740c22 -4 45.332 -12.333 69.999 -25v-10c-49.333 -59.333 -96.666 -104.333 -141.999 -135l-49 19v7c48 47.333 88.333 95.333 121 144z" />
    <glyph glyph-name="icircumflex" unicode="&#xee;" horiz-adv-x="287" 
d="M33 410c0 15.333 3.33203 29.666 9.99902 42.999c38 5.33301 75 16 111 32c9.33301 0 17.666 -4.16699 24.999 -12.5s11 -19.166 11 -32.499c-15.333 -130 -25.666 -256.667 -30.999 -380h80c0 -15.333 -3.33301 -29.666 -10 -42.999c-44.667 -5.33301 -85 -16 -121 -32
c-10 0 -18.5 3.66699 -25.5 11s-10.5 18.666 -10.5 33.999c14.667 93.333 27.334 220 38.001 380h-77zM144.999 713l53 27c31.333 -49.333 68 -95.333 110 -138v-8l-52 -24c-36 30.667 -65 63 -87 97c-26.667 -30.667 -60 -58.667 -100 -84l-44 11v8
c59.333 42.667 99.333 79.667 120 111z" />
    <glyph glyph-name="idieresis" unicode="&#xef;" horiz-adv-x="287" 
d="M33 410c0 15.333 3.33203 29.666 9.99902 42.999c38 5.33301 75 16 111 32c9.33301 0 17.666 -4.16699 24.999 -12.5s11 -19.166 11 -32.499c-15.333 -130 -25.666 -256.667 -30.999 -380h80c0 -15.333 -3.33301 -29.666 -10 -42.999c-44.667 -5.33301 -85 -16 -121 -32
c-10 0 -18.5 3.66699 -25.5 11s-10.5 18.666 -10.5 33.999c14.667 93.333 27.334 220 38.001 380h-77zM41.999 671.5c12.667 6.33301 25.666 9.5 38.999 9.5s23.833 -3 31.5 -9s11.5 -12.667 11.5 -20l-5 -36c-7.33301 -20 -28.666 -30 -63.999 -30
c-13.333 0 -23.5 3 -30.5 9s-10.5 13 -10.5 21l4 31c3.33301 10 11.333 18.167 24 24.5zM239.998 671.5c12.667 6.33301 25.666 9.5 38.999 9.5s23.833 -3 31.5 -9s11.5 -12.667 11.5 -20l-5 -36c-7.33301 -20 -28.666 -30 -63.999 -30c-13.333 0 -23.5 3 -30.5 9
s-10.5 13 -10.5 21l4 31c3.33301 10 11.333 18.167 24 24.5z" />
    <glyph glyph-name="eth" unicode="&#xf0;" horiz-adv-x="516" 
d="M466 395c0 -144.667 -23.333 -249.668 -70 -315.001c-18.667 -26 -44 -47.5 -76 -64.5s-69.667 -25.5 -113 -25.5c-58 0 -101.833 14.833 -131.5 44.5s-44.5 76.834 -44.5 141.501c0 46.667 9.5 92.667 28.5 138s48.667 84.333 89 117s87 49 140 49s91.833 -13 116.5 -39
c0 64 -13.333 118 -40 162l-60 -45c-9.33301 6.66699 -16.333 13.334 -21 20.001l-13 27l58 42c-10.667 10.667 -26 21.667 -46 33v10l54 51c20 -14.667 37 -30 51 -46l42 37h19l32 -42l-59 -44c29.333 -56.667 44 -140.334 44 -251.001zM178 61.999l8 -1.99805h96
c28 10.667 52.667 36.334 74 77.001s32 82.334 32 125.001c0 52.667 -9.33301 90 -28 112c-16.667 19.333 -31.334 30.666 -44.001 33.999l-8 2h-96c-28 -10.667 -52.667 -36.334 -74 -77.001s-32 -84.834 -32 -132.501s8.83301 -81.834 26.5 -102.501
s32.834 -32.667 45.501 -36z" />
    <glyph glyph-name="ntilde" unicode="&#xf1;" horiz-adv-x="614" 
d="M55 410c0 15.333 3.33203 29.6689 9.99902 43.002c38 5.33301 75 16 111 32c9.33301 0 17.666 -4.16699 24.999 -12.5s11 -19.166 11 -32.499l-19 -143l10 -6c20.667 47.333 51.334 90.666 92.001 129.999s86.667 59 138 59c24.667 0 44.334 -3.33301 59.001 -10
s23.334 -13.334 26.001 -20.001l3 -10c-15.333 -128.667 -25.666 -255.334 -30.999 -380.001h80c0 -15.333 -3.33301 -29.666 -10 -42.999c-44.667 -5.33301 -85 -16 -121 -32c-10 0 -18.5 3.66699 -25.5 11s-10.5 18.666 -10.5 33.999c14.667 93.333 27.334 220 38.001 380
h-61c-26.667 0 -58.334 -20.833 -95.001 -62.5s-66.334 -87.5 -89.001 -137.5c-6.66699 -82.667 -14.334 -152.667 -23.001 -210c-32.667 -10 -64 -15 -94 -15c10.667 44.667 20 97 28 157s15 149.333 21 268h-73zM495.999 587.003c-14 -4.66699 -30.5 -7 -49.5 -7
s-46 6.33301 -81 19s-55.833 19 -62.5 19h-23c-7.33301 -8 -13.666 -18.333 -18.999 -31h-37l-7 8l17 88c14 4.66699 30 7 48 7s44.833 -6.33301 80.5 -19s57.167 -19 64.5 -19h23c7.33301 8 13.666 18.333 18.999 31h37l7 -8z" />
    <glyph glyph-name="ograve" unicode="&#xf2;" horiz-adv-x="490" 
d="M178 62l8 -1.99805h96c28 10.667 52.667 36.334 74 77.001s32 82.334 32 125.001c0 52.667 -9.33301 90 -28 112c-16.667 19.333 -31.334 30.666 -44.001 33.999l-8 2h-96c-28 -10.667 -52.667 -36.334 -74 -77.001s-32 -84.834 -32 -132.501
s8.83301 -81.834 26.5 -102.501s32.834 -32.667 45.501 -36zM345.5 39.002c-40.333 -32.667 -88.166 -49 -143.499 -49c-114 0 -171 62 -171 186c0 46.667 9.5 92.667 28.5 138s48.667 84.333 89 117s88.166 49 143.499 49c114 0 171 -62 171 -186
c0 -46.667 -9.5 -92.667 -28.5 -138s-48.667 -84.333 -89 -117zM254 760.002c29.333 -42.667 64 -89 104 -139l20 -25v-7l-49 -19c-18.667 13.333 -39 31.333 -61 54s-39.333 42 -52 58l-19 23v10c16.667 21.333 35.667 36.333 57 45z" />
    <glyph glyph-name="oacute" unicode="&#xf3;" horiz-adv-x="490" 
d="M178 62l8 -1.99805h96c28 10.667 52.667 36.334 74 77.001s32 82.334 32 125.001c0 52.667 -9.33301 90 -28 112c-16.667 19.333 -31.334 30.666 -44.001 33.999l-8 2h-96c-28 -10.667 -52.667 -36.334 -74 -77.001s-32 -84.834 -32 -132.501
s8.83301 -81.834 26.5 -102.501s32.834 -32.667 45.501 -36zM345.5 39.002c-40.333 -32.667 -88.166 -49 -143.499 -49c-114 0 -171 62 -171 186c0 46.667 9.5 92.667 28.5 138s48.667 84.333 89 117s88.166 49 143.499 49c114 0 171 -62 171 -186
c0 -46.667 -9.5 -92.667 -28.5 -138s-48.667 -84.333 -89 -117zM357 740.002c22 -4 45.332 -12.333 69.999 -25v-10c-49.333 -59.333 -96.666 -104.333 -141.999 -135l-49 19v7c48 47.333 88.333 95.333 121 144z" />
    <glyph glyph-name="ocircumflex" unicode="&#xf4;" horiz-adv-x="490" 
d="M178 62l8 -1.99805h96c28 10.667 52.667 36.334 74 77.001s32 82.334 32 125.001c0 52.667 -9.33301 90 -28 112c-16.667 19.333 -31.334 30.666 -44.001 33.999l-8 2h-96c-28 -10.667 -52.667 -36.334 -74 -77.001s-32 -84.834 -32 -132.501
s8.83301 -81.834 26.5 -102.501s32.834 -32.667 45.501 -36zM345.5 39.002c-40.333 -32.667 -88.166 -49 -143.499 -49c-114 0 -171 62 -171 186c0 46.667 9.5 92.667 28.5 138s48.667 84.333 89 117s88.166 49 143.499 49c114 0 171 -62 171 -186
c0 -46.667 -9.5 -92.667 -28.5 -138s-48.667 -84.333 -89 -117zM272 713.002l53 27c31.333 -49.333 68 -95.333 110 -138v-8l-52 -24c-36 30.667 -65 63 -87 97c-26.667 -30.667 -60 -58.667 -100 -84l-44 11v8c59.333 42.667 99.333 79.667 120 111z" />
    <glyph glyph-name="otilde" unicode="&#xf5;" horiz-adv-x="490" 
d="M178 62l8 -1.99805h96c28 10.667 52.667 36.334 74 77.001s32 82.334 32 125.001c0 52.667 -9.33301 90 -28 112c-16.667 19.333 -31.334 30.666 -44.001 33.999l-8 2h-96c-28 -10.667 -52.667 -36.334 -74 -77.001s-32 -84.834 -32 -132.501
s8.83301 -81.834 26.5 -102.501s32.834 -32.667 45.501 -36zM345.5 39.002c-40.333 -32.667 -88.166 -49 -143.499 -49c-114 0 -171 62 -171 186c0 46.667 9.5 92.667 28.5 138s48.667 84.333 89 117s88.166 49 143.499 49c114 0 171 -62 171 -186
c0 -46.667 -9.5 -92.667 -28.5 -138s-48.667 -84.333 -89 -117zM425 587.002c-14 -4.66699 -30.5 -7 -49.5 -7s-46 6.33301 -81 19s-55.833 19 -62.5 19h-23c-7.33301 -8 -13.666 -18.333 -18.999 -31h-37l-7 8l17 88c14 4.66699 30 7 48 7s44.833 -6.33301 80.5 -19
s57.167 -19 64.5 -19h23c7.33301 8 13.666 18.333 18.999 31h37l7 -8z" />
    <glyph glyph-name="odieresis" unicode="&#xf6;" horiz-adv-x="490" 
d="M178 62l8 -1.99805h96c28 10.667 52.667 36.334 74 77.001s32 82.334 32 125.001c0 52.667 -9.33301 90 -28 112c-16.667 19.333 -31.334 30.666 -44.001 33.999l-8 2h-96c-28 -10.667 -52.667 -36.334 -74 -77.001s-32 -84.834 -32 -132.501
s8.83301 -81.834 26.5 -102.501s32.834 -32.667 45.501 -36zM345.5 39.002c-40.333 -32.667 -88.166 -49 -143.499 -49c-114 0 -171 62 -171 186c0 46.667 9.5 92.667 28.5 138s48.667 84.333 89 117s88.166 49 143.499 49c114 0 171 -62 171 -186
c0 -46.667 -9.5 -92.667 -28.5 -138s-48.667 -84.333 -89 -117zM180 671.502c12.667 6.33301 25.666 9.5 38.999 9.5s23.833 -3 31.5 -9s11.5 -12.667 11.5 -20l-5 -36c-7.33301 -20 -28.666 -30 -63.999 -30c-13.333 0 -23.5 3 -30.5 9s-10.5 13 -10.5 21l4 31
c3.33301 10 11.333 18.167 24 24.5zM377.999 671.502c12.667 6.33301 25.666 9.5 38.999 9.5s23.833 -3 31.5 -9s11.5 -12.667 11.5 -20l-5 -36c-7.33301 -20 -28.666 -30 -63.999 -30c-13.333 0 -23.5 3 -30.5 9s-10.5 13 -10.5 21l4 31c3.33301 10 11.333 18.167 24 24.5z
" />
    <glyph glyph-name="divide" unicode="&#xf7;" horiz-adv-x="512" 
d="M167 347c92 0 175 3.33301 249 10l16 -14l-13 -63h-343c-3.33301 14 -5 25 -5 33l5 34h91zM203 200.5c12.667 6.33301 25.666 9.5 38.999 9.5s23.833 -3 31.5 -9s11.5 -12.667 11.5 -20l-5 -36c-7.33301 -20 -28.666 -30 -63.999 -30c-13.333 0 -23.5 3 -30.5 9
s-10.5 13 -10.5 21l4 31c3.33301 10 11.333 18.167 24 24.5zM234.999 505.5c12.667 6.33301 25.666 9.5 38.999 9.5s23.833 -3 31.5 -9s11.5 -12.667 11.5 -20l-5 -36c-7.33301 -20 -28.666 -30 -63.999 -30c-13.333 0 -23.5 3 -30.5 9s-10.5 13 -10.5 21l4 31
c3.33301 10 11.333 18.167 24 24.5z" />
    <glyph glyph-name="oslash" unicode="&#xf8;" horiz-adv-x="494" 
d="M31 176c0 46.667 9.5 92.667 28.5 138s48.667 84.333 89 117s86.5 49 138.5 49c12 0 20.667 -0.333008 26 -1l14 37l69 16l4 -16l-24 -52c58 -26 87 -82.667 87 -170c0 -46.667 -9.5 -92.667 -28.5 -138s-48.667 -84.333 -89 -117s-86.5 -49 -138.5 -49
c-11.333 0 -19.333 0.333008 -24 1l-13 -36c-2 -3.33301 -14 -5 -36 -5l-27 5l20 47c-64 22.667 -96 80.667 -96 174zM106 208c0 -65.333 16.667 -110.331 50 -134.998l132 337h-76c-28 -10.667 -52.667 -36.334 -74 -77.001s-32 -82.334 -32 -125.001zM388 262.002
c0 59.333 -14.667 102.331 -44 128.998l-135 -331h73c28 10.667 52.667 36.334 74 77.001s32 82.334 32 125.001z" />
    <glyph glyph-name="ugrave" unicode="&#xf9;" horiz-adv-x="607" 
d="M562 60c0 -15.333 -3.32715 -29.6689 -9.99414 -43.002c-44.667 -5.33301 -85 -16 -121 -32c-10 0 -18.5 3.66699 -25.5 11s-10.5 18.666 -10.5 33.999l19 143l-10 6c-20.667 -47.333 -51.334 -90.666 -92.001 -129.999s-86.667 -59 -138 -59
c-24.667 0 -44.334 3.33301 -59.001 10s-23 13.334 -25 20.001l-4 10c14.667 131.333 24.667 258 30 380h-69c0 15.333 3.33301 29.666 10 42.999c38 5.33301 75 16 111 32c9.33301 0 17.666 -4.16699 24.999 -12.5s11 -19.166 11 -32.499
c-14.667 -93.333 -27.334 -220 -38.001 -380h61c27.333 0 59.666 21.667 96.999 65s66.666 90 87.999 140c9.33301 85.333 18.333 157 27 215c33.333 10 65 15 95 15c-12.667 -51.333 -23.167 -106.666 -31.5 -165.999s-16.5 -149 -24.5 -269h84zM284.006 759.997
c29.333 -42.667 64 -89 104 -139l20 -25v-7l-49 -19c-18.667 13.333 -39 31.333 -61 54s-39.333 42 -52 58l-19 23v10c16.667 21.333 35.667 36.333 57 45z" />
    <glyph glyph-name="uacute" unicode="&#xfa;" horiz-adv-x="607" 
d="M562 60c0 -15.333 -3.32715 -29.6689 -9.99414 -43.002c-44.667 -5.33301 -85 -16 -121 -32c-10 0 -18.5 3.66699 -25.5 11s-10.5 18.666 -10.5 33.999l19 143l-10 6c-20.667 -47.333 -51.334 -90.666 -92.001 -129.999s-86.667 -59 -138 -59
c-24.667 0 -44.334 3.33301 -59.001 10s-23 13.334 -25 20.001l-4 10c14.667 131.333 24.667 258 30 380h-69c0 15.333 3.33301 29.666 10 42.999c38 5.33301 75 16 111 32c9.33301 0 17.666 -4.16699 24.999 -12.5s11 -19.166 11 -32.499
c-14.667 -93.333 -27.334 -220 -38.001 -380h61c27.333 0 59.666 21.667 96.999 65s66.666 90 87.999 140c9.33301 85.333 18.333 157 27 215c33.333 10 65 15 95 15c-12.667 -51.333 -23.167 -106.666 -31.5 -165.999s-16.5 -149 -24.5 -269h84zM397.006 739.997
c22 -4 45.332 -12.333 69.999 -25v-10c-49.333 -59.333 -96.666 -104.333 -141.999 -135l-49 19v7c48 47.333 88.333 95.333 121 144z" />
    <glyph glyph-name="ucircumflex" unicode="&#xfb;" horiz-adv-x="607" 
d="M562 60c0 -15.333 -3.32715 -29.6689 -9.99414 -43.002c-44.667 -5.33301 -85 -16 -121 -32c-10 0 -18.5 3.66699 -25.5 11s-10.5 18.666 -10.5 33.999l19 143l-10 6c-20.667 -47.333 -51.334 -90.666 -92.001 -129.999s-86.667 -59 -138 -59
c-24.667 0 -44.334 3.33301 -59.001 10s-23 13.334 -25 20.001l-4 10c14.667 131.333 24.667 258 30 380h-69c0 15.333 3.33301 29.666 10 42.999c38 5.33301 75 16 111 32c9.33301 0 17.666 -4.16699 24.999 -12.5s11 -19.166 11 -32.499
c-14.667 -93.333 -27.334 -220 -38.001 -380h61c27.333 0 59.666 21.667 96.999 65s66.666 90 87.999 140c9.33301 85.333 18.333 157 27 215c33.333 10 65 15 95 15c-12.667 -51.333 -23.167 -106.666 -31.5 -165.999s-16.5 -149 -24.5 -269h84zM306.006 712.997l53 27
c31.333 -49.333 68 -95.333 110 -138v-8l-52 -24c-36 30.667 -65 63 -87 97c-26.667 -30.667 -60 -58.667 -100 -84l-44 11v8c59.333 42.667 99.333 79.667 120 111z" />
    <glyph glyph-name="udieresis" unicode="&#xfc;" horiz-adv-x="607" 
d="M562 60c0 -15.333 -3.32715 -29.6689 -9.99414 -43.002c-44.667 -5.33301 -85 -16 -121 -32c-10 0 -18.5 3.66699 -25.5 11s-10.5 18.666 -10.5 33.999l19 143l-10 6c-20.667 -47.333 -51.334 -90.666 -92.001 -129.999s-86.667 -59 -138 -59
c-24.667 0 -44.334 3.33301 -59.001 10s-23 13.334 -25 20.001l-4 10c14.667 131.333 24.667 258 30 380h-69c0 15.333 3.33301 29.666 10 42.999c38 5.33301 75 16 111 32c9.33301 0 17.666 -4.16699 24.999 -12.5s11 -19.166 11 -32.499
c-14.667 -93.333 -27.334 -220 -38.001 -380h61c27.333 0 59.666 21.667 96.999 65s66.666 90 87.999 140c9.33301 85.333 18.333 157 27 215c33.333 10 65 15 95 15c-12.667 -51.333 -23.167 -106.666 -31.5 -165.999s-16.5 -149 -24.5 -269h84zM217.006 671.497
c12.667 6.33301 25.666 9.5 38.999 9.5s23.833 -3 31.5 -9s11.5 -12.667 11.5 -20l-5 -36c-7.33301 -20 -28.666 -30 -63.999 -30c-13.333 0 -23.5 3 -30.5 9s-10.5 13 -10.5 21l4 31c3.33301 10 11.333 18.167 24 24.5zM415.005 671.497
c12.667 6.33301 25.666 9.5 38.999 9.5s23.833 -3 31.5 -9s11.5 -12.667 11.5 -20l-5 -36c-7.33301 -20 -28.666 -30 -63.999 -30c-13.333 0 -23.5 3 -30.5 9s-10.5 13 -10.5 21l4 31c3.33301 10 11.333 18.167 24 24.5z" />
    <glyph glyph-name="yacute" unicode="&#xfd;" horiz-adv-x="571" 
d="M58 -217c0 12.667 3.00293 26.6641 9.00293 41.9971h228c30 14.667 56.333 61.667 79 141c14.667 50 25.334 119 32.001 207l-10 6c-20.667 -47.333 -51.334 -90.666 -92.001 -129.999s-86.667 -59 -138 -59c-24.667 0 -44.334 3.33301 -59.001 10s-23 13.334 -25 20.001
l-4 10c15.333 136 26.333 262.667 33 380h-69c0 15.333 3.33301 29.666 10 42.999c38 5.33301 75 16 111 32c9.33301 0 17.666 -4.16699 24.999 -12.5s11 -19.166 11 -32.499c-16.667 -93.333 -30.334 -220 -41.001 -380h61c27.333 0 59.666 21.667 96.999 65
s66.666 90 87.999 140c9.33301 85.333 18.333 157 27 215c33.333 10 65 15 95 15c-12.667 -51.333 -21 -91.166 -25 -119.499s-8.5 -66.833 -13.5 -115.5l-12.5 -120.5c-3.33301 -31.667 -8 -67 -14 -106s-12.667 -70.667 -20 -95s-17.666 -49.333 -30.999 -75
s-28.666 -45.5 -45.999 -59.5c-40 -32.667 -92.333 -49 -157 -49c-27.333 0 -68 7 -122 21zM387.003 739.997c22 -4 45.332 -12.333 69.999 -25v-10c-49.333 -59.333 -96.666 -104.333 -141.999 -135l-49 19v7c48 47.333 88.333 95.333 121 144z" />
    <glyph glyph-name="thorn" unicode="&#xfe;" horiz-adv-x="424" 
d="M-9 715c0 15.333 3.33496 29.668 10.002 43.001c38 5.33301 75 16 111 32c9.33301 0 17.666 -3.83301 24.999 -11.5s11 -18.834 11 -33.501l-45 -448l10 -6c24.667 60 49.667 106.5 75 139.5s58.666 49.5 99.999 49.5s76 -15.167 104 -45.5s42 -71.5 42 -123.5
c0 -86 -25.667 -161 -77 -225s-115 -96 -191 -96c-25.333 0 -52.333 4.33301 -81 13l-18 -198l78 -17c0 -15.333 -3.33301 -29.666 -10 -42.999c-53.333 6.66699 -89 10 -107 10c-31.333 0 -66.666 -2.33301 -105.999 -7l-19 -3c0 15.333 3.33301 29.666 10 42.999
c25.333 6 47.333 15 66 27c33.333 195.333 61.666 495.333 84.999 900h-73zM358.002 283.002c0 29.333 -6.66699 55.832 -20 79.499s-28.333 39.5 -45 47.5h-48c-28 -5.33301 -57 -36.666 -87 -93.999c-19.333 -36.667 -37.333 -75 -54 -115l-13 -141h157
c26 4.66699 50.833 30.5 74.5 77.5s35.5 95.5 35.5 145.5z" />
    <glyph glyph-name="ydieresis" unicode="&#xff;" horiz-adv-x="571" 
d="M58 -217c0 12.667 3.00293 26.6641 9.00293 41.9971h228c30 14.667 56.333 61.667 79 141c14.667 50 25.334 119 32.001 207l-10 6c-20.667 -47.333 -51.334 -90.666 -92.001 -129.999s-86.667 -59 -138 -59c-24.667 0 -44.334 3.33301 -59.001 10s-23 13.334 -25 20.001
l-4 10c15.333 136 26.333 262.667 33 380h-69c0 15.333 3.33301 29.666 10 42.999c38 5.33301 75 16 111 32c9.33301 0 17.666 -4.16699 24.999 -12.5s11 -19.166 11 -32.499c-16.667 -93.333 -30.334 -220 -41.001 -380h61c27.333 0 59.666 21.667 96.999 65
s66.666 90 87.999 140c9.33301 85.333 18.333 157 27 215c33.333 10 65 15 95 15c-12.667 -51.333 -21 -91.166 -25 -119.499s-8.5 -66.833 -13.5 -115.5l-12.5 -120.5c-3.33301 -31.667 -8 -67 -14 -106s-12.667 -70.667 -20 -95s-17.666 -49.333 -30.999 -75
s-28.666 -45.5 -45.999 -59.5c-40 -32.667 -92.333 -49 -157 -49c-27.333 0 -68 7 -122 21zM204.003 671.497c12.667 6.33301 25.666 9.5 38.999 9.5s23.833 -3 31.5 -9s11.5 -12.667 11.5 -20l-5 -36c-7.33301 -20 -28.666 -30 -63.999 -30c-13.333 0 -23.5 3 -30.5 9
s-10.5 13 -10.5 21l4 31c3.33301 10 11.333 18.167 24 24.5zM402.002 671.497c12.667 6.33301 25.666 9.5 38.999 9.5s23.833 -3 31.5 -9s11.5 -12.667 11.5 -20l-5 -36c-7.33301 -20 -28.666 -30 -63.999 -30c-13.333 0 -23.5 3 -30.5 9s-10.5 13 -10.5 21l4 31
c3.33301 10 11.333 18.167 24 24.5z" />
    <glyph glyph-name="Aogonek" unicode="&#x104;" horiz-adv-x="672" 
d="M682 31c0 -15.333 -3.33398 -29.6689 -10.001 -43.002c-26.667 2 -52.667 3.66699 -78 5c-45.333 -37.333 -68 -72 -68 -104s9.33301 -51.667 28 -59h95c0 -15.333 -3.33301 -29.666 -10 -42.999c-54 -21.333 -89.833 -32 -107.5 -32s-35 7.33301 -52 22
s-25.5 38.334 -25.5 71.001c0 49.333 26 98.333 78 147l-105 -7c0 15.333 3.33301 29.666 10 42.999c19.333 4.66699 37.666 11.334 54.999 20.001c-20.667 106 -32.667 166.333 -36 181c-78 2 -129.5 3 -154.5 3s-54.167 -1.33301 -87.5 -4l-88 -180l86 -20
c0 -15.333 -3.33301 -29.666 -10 -42.999c-53.333 4.66699 -92.333 7 -117 7l-95 -7c0 15.333 3.33301 29.666 10 42.999c21.333 6 41 15.333 59 28c124.667 220 224.334 412.667 299.001 578l-8 32c28.667 14 59.334 21 92.001 21c62.667 -283.333 115 -498 157 -644z
M238.999 282.997c31.333 -2 63.5 -3 96.5 -3s69.5 0.666992 109.5 2c-8 38 -30 129.333 -66 274c-35.333 -64.667 -82 -155.667 -140 -273z" />
    <glyph glyph-name="aogonek" unicode="&#x105;" horiz-adv-x="546" 
d="M509 60c0 -15.333 -3.33301 -29.6699 -10 -43.0029c-67.333 -44.667 -101 -87.667 -101 -129c0 -31.333 9.33301 -50.666 28 -57.999h95c0 -15.333 -3.33301 -29.666 -10 -42.999c-54 -21.333 -89.833 -32 -107.5 -32s-35 7.33301 -52 22s-25.5 38.334 -25.5 71.001
c0 50.667 26.667 100 80 148c-6.66699 -2 -16 -5.66699 -28 -11c-10 0 -18.5 3.66699 -25.5 11s-10.5 18.666 -10.5 33.999l19 143l-10 6c-24.667 -60 -49.667 -106.5 -75 -139.5s-58.666 -49.5 -99.999 -49.5s-76 15.167 -104 45.5s-42 71.5 -42 123.5
c0 86 25.667 161 77 225s115 96 191 96c24.667 0 52.667 -9.66699 84 -29c1.33301 12 2.66602 21.667 3.99902 29c33.333 10 65 15 95 15c-12.667 -51.333 -23.167 -106.666 -31.5 -165.999s-16.5 -149 -24.5 -269h84zM106 186.996c0 -29.333 6.66699 -55.833 20 -79.5
s28.333 -39.5 45 -47.5h48c38.667 7.33301 85.667 77.333 141 210c2.66699 28 8 74.667 16 140h-160c-26 -4.66699 -50.833 -30.5 -74.5 -77.5s-35.5 -95.5 -35.5 -145.5z" />
    <glyph glyph-name="Cacute" unicode="&#x106;" horiz-adv-x="582" 
d="M147 487.5c-30.667 -61.667 -46.001 -123.667 -46.001 -186s11.833 -115.333 35.5 -159s58.167 -71.167 103.5 -82.5h239c0 -15.333 -3.33301 -29.666 -10 -42.999c-94 -24.667 -168.333 -37 -223 -37c-70.667 0 -126.5 24.667 -167.5 74s-61.5 111.666 -61.5 186.999
c0 92.667 21 177.667 63 255c45.333 83.333 108 141.333 188 174c42.667 17.333 84.834 26 126.501 26s75.667 -6.16699 102 -18.5s43.5 -26.5 51.5 -42.5c-14 -25.333 -25.333 -58.333 -34 -99l-5 -20c-16.667 -6 -34.667 -9 -54 -9c5.33301 14.667 8 31.667 8 51
c0 32.667 -8.66699 55 -26 67h-160c-56 -30 -99.333 -75.833 -130 -137.5zM428.999 890c22 -4 45.332 -12.333 69.999 -25v-10c-42 -49.333 -85.667 -89.333 -131 -120l-49 19v7c40.667 37.333 77.334 80.333 110.001 129z" />
    <glyph glyph-name="cacute" unicode="&#x107;" horiz-adv-x="437" 
d="M364 60c0 -15.333 -3.33594 -29.665 -10.0029 -42.998c-70.667 -18 -121.334 -27 -152.001 -27c-57.333 0 -100.5 14.833 -129.5 44.5s-43.5 73 -43.5 130s9.83301 108.167 29.5 153.5s49.834 83.666 90.501 114.999s87.334 47 140.001 47
c25.333 0 48.5 -4.66699 69.5 -14s36.167 -18 45.5 -26c-14 -24.667 -25.333 -54.667 -34 -90l-5 -17c-13.333 -6 -29.666 -9 -48.999 -9c6 26.667 9 46.667 9 60s-5 22 -15 26h-105c-27.333 -10.667 -51.166 -35.834 -71.499 -75.501s-30.5 -81.834 -30.5 -126.501
c0 -52 9.66699 -89.333 29 -112c16.667 -19.333 32 -30.666 46 -33.999l8 -2h178zM355.997 740.001c22 -4 45.332 -12.333 69.999 -25v-10c-49.333 -59.333 -96.666 -104.333 -141.999 -135l-49 19v7c48 47.333 88.333 95.333 121 144z" />
    <glyph glyph-name="Eogonek" unicode="&#x118;" horiz-adv-x="574" 
d="M537 680c6 -5.33301 11.3311 -13.6699 15.998 -25.0029c-14 -24.667 -25.667 -54.667 -35 -90l-4 -17c-13.333 -6 -29.666 -9 -48.999 -9c6 26.667 9 46.667 9 60s-5 22 -15 26h-243c-12.667 -109.333 -21.334 -194.333 -26.001 -255h224c10.667 16 18.667 34 24 54
c4.66699 2 11.334 3 20.001 3l22 -4c-14 -44 -24.333 -100.333 -31 -169c-5.33301 -2.66699 -12 -4 -20 -4l-17 3c0 26.667 -2.66699 49 -8 67h-217c-6 -81.333 -11 -168 -15 -260h259c12.667 18.667 22 40 28 64l3 13c20.667 -4 34.667 -11 42 -21l4 -6
c-13.333 -33.333 -22 -70 -26 -110h-24c-51.333 -39.333 -77 -75.666 -77 -108.999s9.33301 -53.666 28 -60.999h95c0 -15.333 -3.33301 -29.666 -10 -42.999c-54 -21.333 -89.833 -32 -107.5 -32s-35 7.33301 -52 22s-25.5 38.334 -25.5 71.001c0 52 28.333 102.667 85 152
h-287l-95 -7c0 15.333 3.33301 29.666 10 42.999c24 7.33301 45.333 18.333 64 33c17.333 148.667 32.333 334.334 45 557.001l-75 18c0 15.333 3.33301 29.666 10 42.999c42.667 -4.66699 77.334 -7 104.001 -7h367z" />
    <glyph glyph-name="eogonek" unicode="&#x119;" horiz-adv-x="446" 
d="M381 60c0 -15.333 -3.33301 -29.6719 -10 -43.0049c-67.333 -44.667 -101 -87.667 -101 -129c0 -31.333 9.33301 -50.666 28 -57.999h95c0 -15.333 -3.33301 -29.666 -10 -42.999c-54 -21.333 -89.833 -32 -107.5 -32s-35 7.33301 -52 22s-25.5 38.334 -25.5 71.001
c0 50.667 27 100.334 81 149.001c-26.667 -4.66699 -46.667 -7 -60 -7c-114.667 0 -172 62.333 -172 187c0 46 10 91.833 30 137.5s50.5 84.667 91.5 117s87.5 48.5 139.5 48.5c32.667 0 56.667 -8.33301 72 -25s23 -37 23 -61c0 -120 -94 -182 -282 -186
c0 -91.333 27.333 -140.666 82 -147.999h178zM333 368.994c0 22 -9.33301 35.667 -28 41h-92c-22 -8.66699 -41 -27.834 -57 -57.501s-26.667 -63.167 -32 -100.5c76.667 2.66699 130.667 13.834 162 33.501s47 47.5 47 83.5z" />
    <glyph glyph-name="hbar" unicode="&#x127;" horiz-adv-x="597" 
d="M46 575c0 23.333 2.99902 42.334 8.99902 57.001h69c2 37.333 4 65 6 83h-73c0 15.333 3.33301 29.666 10 42.999c38 5.33301 75 16 111 32c9.33301 0 17.666 -4.16699 24.999 -12.5s11 -19.166 11 -32.499l-11 -112c19.333 1.33301 45.333 4.33301 78 9l16 -14l-13 -53
h-87l-28 -278l10 -6c20.667 47.333 51.334 90.666 92.001 129.999s86.667 59 138 59c24.667 0 44.334 -3.33301 59.001 -10s23.334 -13.334 26.001 -20.001l3 -10c-17.333 -147.333 -27.666 -274 -30.999 -380h80c0 -15.333 -3.33301 -29.666 -10 -42.999
c-44.667 -5.33301 -85 -16 -121 -32c-10 0 -18.5 3.66699 -25.5 11s-10.5 18.666 -10.5 33.999c14.667 93.333 27.334 220 38.001 380h-61c-26.667 0 -58.334 -20.833 -95.001 -62.5s-66.334 -87.5 -89.001 -137.5c-6.66699 -82.667 -14.334 -152.667 -23.001 -210
c-32.667 -10 -64 -15 -94 -15c10.667 44.667 19.667 94.334 27 149.001s20 201.667 38 441h-74z" />
    <glyph glyph-name="Itilde" unicode="&#x128;" horiz-adv-x="334" 
d="M272 36c0 -15.333 -3.33496 -29.666 -10.002 -42.999c-65.333 4.66699 -108 7 -128 7c-29.333 0 -60.666 -2 -93.999 -6l-13 -1c0 15.333 3.33301 29.666 10 42.999c25.333 7.33301 47.333 18.666 66 33.999c17.333 150 32.333 337 45 561l-76 13
c0 15.333 3.33301 29.666 10 42.999c58.667 -4.66699 100.334 -7 125.001 -7l110 7c0 -15.333 -3.33301 -29.666 -10 -42.999c-31.333 -5.33301 -56.333 -15.666 -75 -30.999c-17.333 -144.667 -32 -332 -44 -562zM335.998 761c-14 -4.66699 -30.5 -7 -49.5 -7
s-46 6.33301 -81 19s-55.833 19 -62.5 19h-23c-7.33301 -8 -13.666 -18.333 -18.999 -31h-37l-7 8l17 88c14 4.66699 30 7 48 7s44.833 -6.33301 80.5 -19s57.167 -19 64.5 -19h23c7.33301 8 13.666 18.333 18.999 31h37l7 -8z" />
    <glyph glyph-name="itilde" unicode="&#x129;" horiz-adv-x="287" 
d="M33 410c0 15.333 3.33203 29.666 9.99902 42.999c38 5.33301 75 16 111 32c9.33301 0 17.666 -4.16699 24.999 -12.5s11 -19.166 11 -32.499c-15.333 -130 -25.666 -256.667 -30.999 -380h80c0 -15.333 -3.33301 -29.666 -10 -42.999c-44.667 -5.33301 -85 -16 -121 -32
c-10 0 -18.5 3.66699 -25.5 11s-10.5 18.666 -10.5 33.999c14.667 93.333 27.334 220 38.001 380h-77zM290.999 587c-14 -4.66699 -30.5 -7 -49.5 -7s-46 6.33301 -81 19s-55.833 19 -62.5 19h-23c-7.33301 -8 -13.666 -18.333 -18.999 -31h-37l-7 8l17 88
c14 4.66699 30 7 48 7s44.833 -6.33301 80.5 -19s57.167 -19 64.5 -19h23c7.33301 8 13.666 18.333 18.999 31h37l7 -8z" />
    <glyph glyph-name="dotlessi" unicode="&#x131;" horiz-adv-x="287" 
d="M33 410c0 15.333 3.33203 29.666 9.99902 42.999c38 5.33301 75 16 111 32c9.33301 0 17.666 -4.16699 24.999 -12.5s11 -19.166 11 -32.499c-15.333 -130 -25.666 -256.667 -30.999 -380h80c0 -15.333 -3.33301 -29.666 -10 -42.999c-44.667 -5.33301 -85 -16 -121 -32
c-10 0 -18.5 3.66699 -25.5 11s-10.5 18.666 -10.5 33.999c14.667 93.333 27.334 220 38.001 380h-77z" />
    <glyph glyph-name="IJ" unicode="&#x132;" horiz-adv-x="629" 
d="M272 36c0 -15.333 -3.33496 -29.666 -10.002 -42.999c-65.333 4.66699 -108 7 -128 7c-29.333 0 -60.666 -2 -93.999 -6l-13 -1c0 15.333 3.33301 29.666 10 42.999c25.333 7.33301 47.333 18.666 66 33.999c17.333 150 32.333 337 45 561l-76 13
c0 15.333 3.33301 29.666 10 42.999c58.667 -4.66699 100.334 -7 125.001 -7l110 7c0 -15.333 -3.33301 -29.666 -10 -42.999c-31.333 -5.33301 -56.333 -15.666 -75 -30.999c-17.333 -144.667 -32 -332 -44 -562zM437.998 644c0 15.333 3.33398 29.665 10.001 42.998
c62 -4.66699 105.333 -7 130 -7l105 7c0 -15.333 -3.33301 -29.666 -10 -42.999c-32.667 -6 -58.667 -17 -78 -33c-10 -70 -17.833 -158.333 -23.5 -265s-12.334 -189.167 -20.001 -247.5s-20.5 -109.666 -38.5 -153.999s-37.667 -80.166 -59 -107.499
c-41.333 -51.333 -74.333 -83.666 -99 -96.999h-9c-8 10 -12 24.333 -12 43c33.333 31.333 63 73.666 89 126.999s42.833 108.5 50.5 165.5s13.5 112.333 17.5 166s8.16699 124.667 12.5 213s7.5 147.166 9.5 176.499z" />
    <glyph glyph-name="ij" unicode="&#x133;" horiz-adv-x="530" 
d="M58 -217c0 12.667 3.00293 26.6641 9.00293 41.9971h228c30 14.667 56.333 61.667 79 141c14.667 50 25.334 119 32.001 207l-10 6c-20.667 -47.333 -51.334 -90.666 -92.001 -129.999s-86.667 -59 -138 -59c-24.667 0 -44.334 3.33301 -59.001 10s-23 13.334 -25 20.001
l-4 10c15.333 136 26.333 262.667 33 380h-69c0 15.333 3.33301 29.666 10 42.999c38 5.33301 75 16 111 32c9.33301 0 17.666 -4.16699 24.999 -12.5s11 -19.166 11 -32.499c-16.667 -93.333 -30.334 -220 -41.001 -380h61c27.333 0 59.666 21.667 96.999 65
s66.666 90 87.999 140c9.33301 85.333 18.333 157 27 215c33.333 10 65 15 95 15c-12.667 -51.333 -21 -91.166 -25 -119.499s-8.5 -66.833 -13.5 -115.5l-12.5 -120.5c-3.33301 -31.667 -8 -67 -14 -106s-12.667 -70.667 -20 -95s-17.666 -49.333 -30.999 -75
s-28.666 -45.5 -45.999 -59.5c-40 -32.667 -92.333 -49 -157 -49c-27.333 0 -68 7 -122 21zM467.003 671.497c12.667 6.33301 25.666 9.5 38.999 9.5s23.833 -3 31.5 -9s11.5 -12.667 11.5 -20l-5 -36c-7.33301 -20 -28.666 -30 -63.999 -30c-13.333 0 -23.5 3 -30.5 9
s-10.5 13 -10.5 21l4 31c3.33301 10 11.333 18.167 24 24.5zM151.002 671.497c12.667 6.33301 25.666 9.5 38.999 9.5s23.833 -3 31.5 -9s11.5 -12.667 11.5 -20l-5 -36c-7.33301 -20 -28.666 -30 -63.999 -30c-13.333 0 -23.5 3 -30.5 9s-10.5 13 -10.5 21l4 31
c3.33301 10 11.333 18.167 24 24.5z" />
    <glyph glyph-name="Jcircumflex" unicode="&#x134;" horiz-adv-x="295" 
d="M104 644c0 15.333 3.33398 29.665 10.001 42.998c62 -4.66699 105.333 -7 130 -7l105 7c0 -15.333 -3.33301 -29.666 -10 -42.999c-32.667 -6 -58.667 -17 -78 -33c-10 -70 -17.833 -158.333 -23.5 -265s-12.334 -189.167 -20.001 -247.5s-20.5 -109.666 -38.5 -153.999
s-37.667 -80.166 -59 -107.499c-41.333 -51.333 -74.333 -83.666 -99 -96.999h-9c-8 10 -12 24.333 -12 43c33.333 31.333 63 73.666 89 126.999s42.833 108.5 50.5 165.5s13.5 112.333 17.5 166s8.16699 124.667 12.5 213s7.5 147.166 9.5 176.499zM212.001 877.999l53 27
c31.333 -49.333 68 -95.333 110 -138v-8l-52 -24c-36 30.667 -65 63 -87 97c-26.667 -30.667 -60 -58.667 -100 -84l-44 11v8c59.333 42.667 99.333 79.667 120 111z" />
    <glyph glyph-name="jcircumflex" unicode="&#x135;" horiz-adv-x="243" 
d="M-40 -230c35.333 41.333 63.5 83.167 84.5 125.5s34.833 88.166 41.5 137.499s14.667 175 24 377h-87l10 43c44.667 5.33301 85 16 121 32c9.33301 0 17.5 -4.16699 24.5 -12.5s10.833 -19.166 11.5 -32.499c-4.66699 -58 -8.66699 -114.667 -12 -170
c-6.66699 -107.333 -12 -177.333 -16 -210c-17.333 -143.333 -79.333 -250 -186 -320h-9c-4.66699 9.33301 -7 19.333 -7 30zM132 713.001l53 27c31.333 -49.333 68 -95.333 110 -138v-8l-52 -24c-36 30.667 -65 63 -87 97c-26.667 -30.667 -60 -58.667 -100 -84l-44 11v8
c59.333 42.667 99.333 79.667 120 111z" />
    <glyph glyph-name="kcommaaccent" unicode="&#x137;" horiz-adv-x="544" 
d="M53 715c0 15.333 3.33398 29.665 10.001 42.998c38 5.33301 75 16 111 32c9.33301 0 17.666 -4.16699 24.999 -12.5s11 -19.166 11 -32.499l-50 -448l10 -6c20.667 47.333 51.334 90.666 92.001 129.999s86.667 59 138 59c24.667 0 44.334 -3.33301 59.001 -10
s23 -13.334 25 -20.001l4 -10c-5.33301 -60 -26.5 -111.667 -63.5 -155s-71.833 -71.666 -104.5 -84.999l92 -140h98c0 -15.333 -3.33301 -29.666 -10 -42.999c-44.667 -5.33301 -85 -16 -121 -32c-16 0 -28.333 8 -37 24l-106 181v10c51.333 22.667 91.5 50.667 120.5 84
s46.167 75.333 51.5 126h-61c-26.667 0 -58.334 -20.833 -95.001 -62.5s-66.334 -87.5 -89.001 -137.5c-6.66699 -82.667 -14.334 -152.667 -23.001 -210c-32.667 -10 -64 -15 -94 -15c10.667 44.667 17.334 77.334 20.001 98.001c13.333 98 33.333 308.667 60 632h-73z
M193.001 -288.001c-10 3.33301 -19.666 9.66504 -28.999 18.998v12c3.33301 2.66699 7.66602 6.33398 12.999 11.001s12.5 15.334 21.5 32.001s13.5 33 13.5 49s-3.33301 29.5 -10 40.5s-13 16.5 -19 16.5v31c29.333 6.66699 54.333 14.667 75 24h17
c9.33301 -14 14 -32.5 14 -55.5s-8 -50.5 -24 -82.5s-32 -56.333 -48 -73z" />
    <glyph glyph-name="kgreenlandic" unicode="&#x138;" horiz-adv-x="560" 
d="M260 36c0 -15.333 -3.33496 -29.668 -10.002 -43.001c-50.667 4.66699 -87 7 -109 7c-32 0 -63 -2 -93 -6l-13 -1c0 15.333 3.33301 29.666 10 42.999c20.667 8 40.334 20.333 59.001 37c8 74 16.667 189.667 26 347l-69 14c0 15.333 3.33301 29.666 10 42.999
c44.667 -4.66699 77.667 -7 99 -7c30.667 0 64.334 2 101.001 6l15 1c0 -15.333 -3.33301 -29.666 -10 -42.999c-23.333 -5.33301 -44.333 -15 -63 -29l-14 -149c27.333 6.66699 54.333 14.334 81 23.001c40.667 39.333 83.667 86 129 140l-61 21
c0 11.333 4 23.666 12 36.999c28 -4.66699 54.333 -7 79 -7l90 7c0 -15.333 -3.33301 -29.666 -10 -42.999c-21.333 -2.66699 -43 -15 -65 -37l-136 -145c58 -105.333 98 -174 120 -206l73 -15c0 -15.333 -3.33301 -29.666 -10 -42.999c-48.667 4.66699 -94.667 7 -138 7
l-31 62.5l-28 58.5c-23.333 44 -43 78 -59 102l-49 -9c-4 -64.667 -6.66699 -117.667 -8 -159z" />
    <glyph glyph-name="Ldotaccent" unicode="&#x13f;" horiz-adv-x="547" 
d="M76 641c0 15.333 3.33203 29.667 9.99902 43c62 -4.66699 103.333 -7 124 -7c40 0 72 1.66699 96 5l15 2c0 -15.333 -3.33301 -29.666 -10 -42.999c-33.333 -6 -59.333 -17 -78 -33c-18 -153.333 -32.333 -337 -43 -551h275c12.667 18.667 21.667 42.667 27 72l2 15
c20 -4 36.333 -13 49 -27c-14 -34.667 -22.333 -74.667 -25 -120h-397l-95 -7c0 15.333 3.33301 29.666 10 42.999c26.667 8 49.334 20 68.001 36c16.667 144.667 32 331 46 559zM431.999 360.501c12.667 6.33301 25.666 9.5 38.999 9.5s23.833 -3 31.5 -9
s11.5 -12.667 11.5 -20l-5 -36c-7.33301 -20 -28.666 -30 -63.999 -30c-13.333 0 -23.5 3 -30.5 9s-10.5 13 -10.5 21l4 31c3.33301 10 11.333 18.167 24 24.5z" />
    <glyph glyph-name="ldot" unicode="&#x140;" horiz-adv-x="389" 
d="M46 715c0 15.333 3.33398 29.666 10.001 42.999c38 5.33301 75 16 111 32c9.33301 0 17.666 -4.16699 24.999 -12.5s11 -19.166 11 -32.499c-12.667 -106.667 -32.667 -335 -60 -685h78c0 -15.333 -3.33301 -29.666 -10 -42.999c-44.667 -5.33301 -85 -16 -121 -32
c-10 0 -18.5 3.66699 -25.5 11s-10.5 18.666 -10.5 33.999c35.333 296.667 58.333 525 69 685h-77zM281.001 360.5c12.667 6.33301 25.666 9.5 38.999 9.5s23.833 -3 31.5 -9s11.5 -12.667 11.5 -20l-5 -36c-7.33301 -20 -28.666 -30 -63.999 -30c-13.333 0 -23.5 3 -30.5 9
s-10.5 13 -10.5 21l4 31c3.33301 10 11.333 18.167 24 24.5z" />
    <glyph glyph-name="Lslash" unicode="&#x141;" horiz-adv-x="547" 
d="M76 644c0 15.333 3.33105 29.6689 9.99805 43.002c62 -4.66699 105.333 -7 130 -7l105 7c0 -15.333 -3.33301 -29.666 -10 -42.999c-33.333 -6 -59.333 -17 -78 -33c-13.333 -108.667 -22.333 -197.334 -27 -266.001c65.333 36 117.666 67 156.999 93h21l21 -52
l-203 -110c-4.66699 -68.667 -8.66699 -140.667 -12 -216h275c12.667 18.667 21.667 42.667 27 72l2 15c20 -4 36.333 -13 49 -27c-14 -34.667 -22.333 -74.667 -25 -120h-410l-82 -7c0 15.333 3.33301 29.666 10 42.999c26.667 8 49.334 20 68.001 36
c8.66699 73.333 14.334 126.666 17.001 159.999l-58 -31c-14 14.667 -22.667 31 -26 49l90 51c8.66699 100.667 16.334 210.667 23.001 330z" />
    <glyph glyph-name="lslash" unicode="&#x142;" horiz-adv-x="327" 
d="M76 715c0 15.333 3.33398 29.666 10.001 42.999c38 5.33301 75 16 111 32c9.33301 0 17.666 -4.16699 24.999 -12.5s11 -19.166 11 -32.499c-6 -53.333 -15.667 -151.333 -29 -294c24 24 46.333 47.667 67 71l21 1l23 -40l-117 -108l-25 -315h78
c0 -15.333 -3.33301 -29.666 -10 -42.999c-44.667 -5.33301 -85 -16 -121 -32c-10 0 -18.5 3.66699 -25.5 11s-10.5 18.666 -10.5 33.999l30 267l-51 -47c-15.333 6 -27 17.333 -35 34l94 86c14.667 144 25 259 31 345h-77z" />
    <glyph glyph-name="Nacute" unicode="&#x143;" horiz-adv-x="672" 
d="M254 36c0 -15.333 -3.33398 -29.6641 -10.001 -42.9971c-60 4.66699 -102.333 7 -127 7l-95 -7c0 15.333 3.33301 29.666 10 42.999c26 7.33301 48.333 19 67 35c12 88 20.333 160.167 25 216.5l14.5 183.5c5 66 9.16699 117.667 12.5 155l-83 18
c0 15.333 3.33301 29.666 10 42.999c42.667 -4.66699 77.334 -7 104.001 -7h54c58 -118 117.333 -230.333 178 -337l102 -180c20 190.667 32.667 345 38 463l-85 18c0 15.333 3.33301 29.666 10 42.999c44.667 -4.66699 78.334 -7 101.001 -7c36 0 72.333 2 109 6l15 1
c0 -15.333 -3.33301 -29.666 -10 -42.999c-30.667 -5.33301 -55.334 -15.333 -74.001 -30c-24 -196.667 -40 -401.334 -48 -614.001l-14 -10l-59 10l-289 537c-10 -80.667 -22.667 -242 -38 -484zM456.999 890.002c22 -4 45.332 -12.333 69.999 -25v-10
c-42 -49.333 -85.667 -89.333 -131 -120l-49 19v7c40.667 37.333 77.334 80.333 110.001 129z" />
    <glyph glyph-name="nacute" unicode="&#x144;" horiz-adv-x="614" 
d="M55 410c0 15.333 3.33203 29.6689 9.99902 43.002c38 5.33301 75 16 111 32c9.33301 0 17.666 -4.16699 24.999 -12.5s11 -19.166 11 -32.499l-19 -143l10 -6c20.667 47.333 51.334 90.666 92.001 129.999s86.667 59 138 59c24.667 0 44.334 -3.33301 59.001 -10
s23.334 -13.334 26.001 -20.001l3 -10c-15.333 -128.667 -25.666 -255.334 -30.999 -380.001h80c0 -15.333 -3.33301 -29.666 -10 -42.999c-44.667 -5.33301 -85 -16 -121 -32c-10 0 -18.5 3.66699 -25.5 11s-10.5 18.666 -10.5 33.999c14.667 93.333 27.334 220 38.001 380
h-61c-26.667 0 -58.334 -20.833 -95.001 -62.5s-66.334 -87.5 -89.001 -137.5c-6.66699 -82.667 -14.334 -152.667 -23.001 -210c-32.667 -10 -64 -15 -94 -15c10.667 44.667 20 97 28 157s15 149.333 21 268h-73zM445.999 740.003c22 -4 45.332 -12.333 69.999 -25v-10
c-49.333 -59.333 -96.666 -104.333 -141.999 -135l-49 19v7c48 47.333 88.333 95.333 121 144z" />
    <glyph glyph-name="OE" unicode="&#x152;" horiz-adv-x="1020" 
d="M931 680c6 -5.33301 11.334 -13.667 16.001 -25c-14 -24.667 -25.667 -54.667 -35 -90l-4 -17c-13.333 -6 -29.666 -9 -48.999 -9c6 26.667 9 46.667 9 60s-5 22 -15 26h-243c-12.667 -109.333 -21.334 -194.333 -26.001 -255h224c10.667 16 18.667 34 24 54
c4.66699 2 11.334 3 20.001 3l22 -4c-14 -44 -24.333 -100.333 -31 -169c-5.33301 -2.66699 -12 -4 -20 -4l-17 3c0 26.667 -2.66699 49 -8 67h-217c-6 -81.333 -11 -168 -15 -260h259c12.667 18.667 22 40 28 64l3 13c20.667 -4 34.667 -11 42 -21l4 -6
c-13.333 -33.333 -22 -70 -26 -110h-375c-50.667 -13.333 -103.334 -20 -158.001 -20c-89.333 0 -156.5 24.167 -201.5 72.5s-67.5 111.166 -67.5 188.499c0 115.333 31.333 217 94 305c30.667 42.667 71.167 76.834 121.5 102.501s107.166 38.5 170.499 38.5l117 -7h354z
M204.001 487.499c-30.667 -61.667 -46.001 -123.667 -46.001 -186s11.833 -115.333 35.5 -159s58.167 -71.167 103.5 -82.5h139c19.333 10.667 34.666 21 45.999 31c14.667 130 28.334 299 41.001 507c-13.333 11.333 -29.666 20.333 -48.999 27h-140
c-56 -30 -99.333 -75.833 -130 -137.5z" />
    <glyph glyph-name="oe" unicode="&#x153;" horiz-adv-x="754" 
d="M338 177c0 52.667 13.334 104.668 40.001 156.001c-6 20.667 -14.833 37.5 -26.5 50.5s-21.834 20.5 -30.501 22.5l-13 4h-96c-28 -10.667 -52.667 -36.334 -74 -77.001s-32 -82.334 -32 -125.001c0 -52.667 9.33301 -90 28 -112
c16.667 -19.333 31.334 -30.666 44.001 -33.999l8 -2h96c21.333 8 41.666 26.333 60.999 55c-3.33301 20 -5 40.667 -5 62zM366.001 56.001c-45.333 -44 -97.666 -66.0029 -156.999 -66.0029s-103.833 14.833 -133.5 44.5s-44.5 76.834 -44.5 141.501
c0 46.667 9.5 92.667 28.5 138s48.667 84.333 89 117s86.5 49 138.5 49c66 0 112.667 -26 140 -78c50 52 107.333 78 172 78c32.667 0 56.667 -8.33301 72 -25s23 -37 23 -61c0 -120 -94 -182 -282 -186c0 -91.333 27.333 -140.666 82 -147.999h178
c0 -15.333 -3.33301 -29.666 -10 -42.999c-70.667 -18 -121.334 -27 -152.001 -27c-68 0 -116 22 -144 66zM624.001 368.998c0 22 -9.33398 35.667 -28.001 41h-92c-22.667 -8.66699 -42.167 -28.5 -58.5 -59.5s-26.833 -65.5 -31.5 -103.5
c76.667 2.66699 130.834 14.5 162.501 35.5s47.5 49.833 47.5 86.5z" />
    <glyph glyph-name="Racute" unicode="&#x154;" horiz-adv-x="577" 
d="M589 31c0 -15.333 -3.33398 -29.668 -10.001 -43.001c-56 4.66699 -105.667 7 -149 7c-35.333 93.333 -78 190.333 -128 291c-17.333 -3.33301 -38.666 -5 -63.999 -5h-39l-13 -230l82 -15c0 -15.333 -3.33301 -29.666 -10 -42.999
c-68.667 4.66699 -115.334 7 -140.001 7l-95 -7c0 15.333 3.33301 29.666 10 42.999c26.667 8 49.334 20 68.001 36c17.333 146.667 32.333 331.334 45 554.001l-74 18c0 15.333 3.33301 29.666 10 42.999c53.333 -4.66699 92.333 -7 117 -7l136 10
c58 0 104.5 -13.167 139.5 -39.5s52.5 -67 52.5 -122s-13 -100.667 -39 -137s-61.333 -64.166 -106 -83.499c42.667 -99.333 85.667 -187.333 129 -264zM448.999 497.998c0 28.667 -7.5 55.502 -22.5 80.502s-36.167 40.5 -63.5 46.5h-132
c-13.333 -114.667 -23 -212.334 -29 -293.001h102c45.333 8.66699 80.833 28.167 106.5 58.5s38.5 66.166 38.5 107.499zM373.999 890c22 -4 45.332 -12.333 69.999 -25v-10c-42 -49.333 -85.667 -89.333 -131 -120l-49 19v7c40.667 37.333 77.334 80.333 110.001 129z" />
    <glyph glyph-name="Rcommaaccent" unicode="&#x156;" horiz-adv-x="577" 
d="M589 31c0 -15.333 -3.33398 -29.668 -10.001 -43.001c-56 4.66699 -105.667 7 -149 7c-35.333 93.333 -78 190.333 -128 291c-17.333 -3.33301 -38.666 -5 -63.999 -5h-39l-13 -230l82 -15c0 -15.333 -3.33301 -29.666 -10 -42.999
c-68.667 4.66699 -115.334 7 -140.001 7l-95 -7c0 15.333 3.33301 29.666 10 42.999c26.667 8 49.334 20 68.001 36c17.333 146.667 32.333 331.334 45 554.001l-74 18c0 15.333 3.33301 29.666 10 42.999c53.333 -4.66699 92.333 -7 117 -7l136 10
c58 0 104.5 -13.167 139.5 -39.5s52.5 -67 52.5 -122s-13 -100.667 -39 -137s-61.333 -64.166 -106 -83.499c42.667 -99.333 85.667 -187.333 129 -264zM448.999 497.998c0 28.667 -7.5 55.502 -22.5 80.502s-36.167 40.5 -63.5 46.5h-132
c-13.333 -114.667 -23 -212.334 -29 -293.001h102c45.333 8.66699 80.833 28.167 106.5 58.5s38.5 66.166 38.5 107.499zM219.999 -288c-10 3.33301 -19.666 9.66504 -28.999 18.998v12c3.33301 2.66699 7.66602 6.33398 12.999 11.001s12.5 15.334 21.5 32.001
s13.5 33 13.5 49s-3.33301 29.5 -10 40.5s-13 16.5 -19 16.5v31c29.333 6.66699 54.333 14.667 75 24h17c9.33301 -14 14 -32.5 14 -55.5s-8 -50.5 -24 -82.5s-32 -56.333 -48 -73z" />
    <glyph glyph-name="rcommaaccent" unicode="&#x157;" horiz-adv-x="414" 
d="M31 410c0 15.333 3.33398 29.666 10.001 42.999c38 5.33301 75 16 111 32c9.33301 0 17.666 -4.16699 24.999 -12.5s11 -19.166 11 -32.499l-17 -120l10 -6c16.667 38 42.5 75.167 77.5 111.5s68.833 54.5 101.5 54.5c12.667 0 24.167 -2.66699 34.5 -8
s17.5 -10.666 21.5 -15.999l6 -8c-16.667 -29.333 -29.334 -62 -38.001 -98l-5 -17c-13.333 -6 -29.666 -9 -48.999 -9c6 27.333 9 44.666 9 51.999c0 18.667 -6.33301 30 -19 34c-14.667 0 -37.667 -18.833 -69 -56.5s-57 -78.167 -77 -121.5
c-8.66699 -100 -17 -177.333 -25 -232c-32.667 -10 -64 -15 -94 -15c10.667 44.667 20 97 28 157s15 149.333 21 268h-73zM53.001 -275c-10 3.33301 -19.666 9.66504 -28.999 18.998v12c3.33301 2.66699 7.66602 6.33398 12.999 11.001s12.5 15.334 21.5 32.001
s13.5 33 13.5 49s-3.33301 29.5 -10 40.5s-13 16.5 -19 16.5v31c29.333 6.66699 54.333 14.667 75 24h17c9.33301 -14 14 -32.5 14 -55.5s-8 -50.5 -24 -82.5s-32 -56 -48 -72z" />
    <glyph glyph-name="Rcaron" unicode="&#x158;" horiz-adv-x="577" 
d="M589 31c0 -15.333 -3.33398 -29.668 -10.001 -43.001c-56 4.66699 -105.667 7 -149 7c-35.333 93.333 -78 190.333 -128 291c-17.333 -3.33301 -38.666 -5 -63.999 -5h-39l-13 -230l82 -15c0 -15.333 -3.33301 -29.666 -10 -42.999
c-68.667 4.66699 -115.334 7 -140.001 7l-95 -7c0 15.333 3.33301 29.666 10 42.999c26.667 8 49.334 20 68.001 36c17.333 146.667 32.333 331.334 45 554.001l-74 18c0 15.333 3.33301 29.666 10 42.999c53.333 -4.66699 92.333 -7 117 -7l136 10
c58 0 104.5 -13.167 139.5 -39.5s52.5 -67 52.5 -122s-13 -100.667 -39 -137s-61.333 -64.166 -106 -83.499c42.667 -99.333 85.667 -187.333 129 -264zM448.999 497.998c0 28.667 -7.5 55.502 -22.5 80.502s-36.167 40.5 -63.5 46.5h-132
c-13.333 -114.667 -23 -212.334 -29 -293.001h102c45.333 8.66699 80.833 28.167 106.5 58.5s38.5 66.166 38.5 107.499zM344.999 763l-53 -27c-31.333 49.333 -68 95.333 -110 138v8l52 24c38 -34 67.333 -67.667 88 -101c32 34.667 65 64 99 88l44 -11v-8
c-45.333 -30.667 -85.333 -67.667 -120 -111z" />
    <glyph glyph-name="rcaron" unicode="&#x159;" horiz-adv-x="414" 
d="M31 410c0 15.333 3.33398 29.666 10.001 42.999c38 5.33301 75 16 111 32c9.33301 0 17.666 -4.16699 24.999 -12.5s11 -19.166 11 -32.499l-17 -120l10 -6c16.667 38 42.5 75.167 77.5 111.5s68.833 54.5 101.5 54.5c12.667 0 24.167 -2.66699 34.5 -8
s17.5 -10.666 21.5 -15.999l6 -8c-16.667 -29.333 -29.334 -62 -38.001 -98l-5 -17c-13.333 -6 -29.666 -9 -48.999 -9c6 27.333 9 44.666 9 51.999c0 18.667 -6.33301 30 -19 34c-14.667 0 -37.667 -18.833 -69 -56.5s-57 -78.167 -77 -121.5
c-8.66699 -100 -17 -177.333 -25 -232c-32.667 -10 -64 -15 -94 -15c10.667 44.667 20 97 28 157s15 149.333 21 268h-73zM281.001 585l-53 -27c-31.333 49.333 -68 95.333 -110 138v8l52 24c38 -34 67.333 -67.667 88 -101c32 34.667 65 64 99 88l44 -11v-8
c-45.333 -30.667 -85.333 -67.667 -120 -111z" />
    <glyph glyph-name="Sacute" unicode="&#x15a;" horiz-adv-x="534" 
d="M248 625c-42.667 -16 -64 -47.165 -64 -93.498s37.667 -91.166 113 -134.499c63.333 -36 109.166 -68.667 137.499 -98s42.5 -60.666 42.5 -93.999c0 -74 -23.5 -130 -70.5 -168s-112.833 -57 -197.5 -57c-103.333 0 -165 23.333 -185 70c14 25.333 25.333 58.333 34 99
l5 20c16.667 6 34.667 9 54 9c-5.33301 -14.667 -8 -31.667 -8 -51c0 -32.667 8.66699 -55 26 -67h200c39.333 24.667 59 60.667 59 108c0 30.667 -12 59.167 -36 85.5s-61.167 54.166 -111.5 83.499s-86.166 54.666 -107.499 75.999s-32 48.333 -32 81
c0 67.333 22.667 117.666 68 150.999s105 50 179 50c34.667 0 65.5 -5.83301 92.5 -17.5s43.167 -25.834 48.5 -42.501c-14 -25.333 -25.667 -58.333 -35 -99l-4 -20c-16.667 -6 -34.667 -9 -54 -9c5.33301 14.667 8 31.667 8 51c0 32.667 -8.66699 55 -26 67h-136z
M383 890.002c22 -4 45.332 -12.333 69.999 -25v-10c-42 -49.333 -85.667 -89.333 -131 -120l-49 19v7c40.667 37.333 77.334 80.333 110.001 129z" />
    <glyph glyph-name="sacute" unicode="&#x15b;" horiz-adv-x="454" 
d="M315 122c0 12.667 -3.33105 22.835 -9.99805 30.502s-11.834 13.334 -15.501 17.001s-9.83398 8.33398 -18.501 14.001s-14.667 9.5 -18 11.5c-16.667 10 -32.834 19.167 -48.501 27.5s-27.667 15.166 -36 20.499s-18.833 13.333 -31.5 24
c-22.667 19.333 -34 44.333 -34 75c0 44.667 16.833 78.834 50.5 102.501s74.834 35.5 123.501 35.5s93 -13.333 133 -40c-15.333 -28.667 -27 -59.334 -35 -92.001l-4 -15c-13.333 -6 -29.666 -9 -48.999 -9c6 27.333 9 44.666 9 51.999c0 21.333 -7.33301 34.333 -22 39
h-97c-32 -4.66699 -48 -23.334 -48 -56.001c0 -11.333 5.66699 -22.833 17 -34.5s22.666 -21 33.999 -28s27.5 -15.833 48.5 -26.5s38.5 -20.5 52.5 -29.5s28.167 -21.667 42.5 -38s21.5 -32.833 21.5 -49.5c0 -52 -17 -92.167 -51 -120.5s-80 -42.5 -138 -42.5
c-35.333 0 -65.5 5.5 -90.5 16.5s-41.167 21.833 -48.5 32.5l-11 16c14.667 25.333 25.334 52.666 32.001 81.999l3 13c13.333 6 29.666 9 48.999 9c-6 -22 -9 -41 -9 -57c0 -23.333 19 -39 57 -47h104c25.333 14.667 38 37 38 67zM346.002 740.001
c22 -4 45.332 -12.333 69.999 -25v-10c-49.333 -59.333 -96.666 -104.333 -141.999 -135l-49 19v7c48 47.333 88.333 95.333 121 144z" />
    <glyph glyph-name="Zacute" unicode="&#x179;" horiz-adv-x="588" 
d="M124 549c-18.667 4.66699 -33.6689 12.998 -45.002 24.998c15.333 54 23 92.667 23 116c22.667 7.33301 61 11 115 11s143.333 -11 268 -33l16 22c26 0 48.333 -4.66699 67 -14l10 -4v-10l-432 -602h342c11.333 17.333 19.333 38.333 24 63l3 13
c18.667 -4.66699 33.667 -13 45 -25c-15.333 -57.333 -23 -97.666 -23 -120.999c-30.667 -7.33301 -63.667 -11 -99 -11c-122 0 -232 9 -330 27l-12 -16c-13.333 0 -28.166 2.33301 -44.499 7s-27.5 10.334 -33.5 17.001v10l436 601h-303
c-11.333 -17.333 -19.666 -38.333 -24.999 -63zM406.998 889.998c22 -4 45.332 -12.333 69.999 -25v-10c-42 -49.333 -85.667 -89.333 -131 -120l-49 19v7c40.667 37.333 77.334 80.333 110.001 129z" />
    <glyph glyph-name="zacute" unicode="&#x17a;" horiz-adv-x="474" 
d="M128 334c-18.667 4.66699 -33.6689 13 -45.002 25c15.333 53.333 23 91.666 23 114.999c2 4 20.5 6 55.5 6s105.833 -9.33301 212.5 -28l23 28c26.667 0 47.334 -6 62.001 -18v-10l-318 -392h211c11.333 17.333 19.333 38.333 24 63l3 13
c18.667 -4.66699 33.667 -13 45 -25c-15.333 -53.333 -23 -91.666 -23 -114.999c-6 -4 -36.5 -6 -91.5 -6s-123.5 8 -205.5 24l-19 -24c-27.333 0 -48.333 8 -63 24v10l317 386h-184c-11.333 -17.333 -19.666 -38.333 -24.999 -63zM362.998 740
c22 -4 45.332 -12.333 69.999 -25v-10c-49.333 -59.333 -96.666 -104.333 -141.999 -135l-49 19v7c48 47.333 88.333 95.333 121 144z" />
    <glyph glyph-name="Zdotaccent" unicode="&#x17b;" horiz-adv-x="588" 
d="M124 549c-18.667 4.66699 -33.6689 12.998 -45.002 24.998c15.333 54 23 92.667 23 116c22.667 7.33301 61 11 115 11s143.333 -11 268 -33l16 22c26 0 48.333 -4.66699 67 -14l10 -4v-10l-432 -602h342c11.333 17.333 19.333 38.333 24 63l3 13
c18.667 -4.66699 33.667 -13 45 -25c-15.333 -57.333 -23 -97.666 -23 -120.999c-30.667 -7.33301 -63.667 -11 -99 -11c-122 0 -232 9 -330 27l-12 -16c-13.333 0 -28.166 2.33301 -44.499 7s-27.5 10.334 -33.5 17.001v10l436 601h-303
c-11.333 -17.333 -19.666 -38.333 -24.999 -63zM324.998 847.498c12.667 6.33301 25.666 9.5 38.999 9.5s23.833 -3 31.5 -9s11.5 -12.667 11.5 -20l-5 -36c-7.33301 -20 -28.666 -30 -63.999 -30c-13.333 0 -23.5 3 -30.5 9s-10.5 13 -10.5 21l4 31
c3.33301 10 11.333 18.167 24 24.5z" />
    <glyph glyph-name="zdotaccent" unicode="&#x17c;" horiz-adv-x="474" 
d="M128 334c-18.667 4.66699 -33.6689 13 -45.002 25c15.333 53.333 23 91.666 23 114.999c2 4 20.5 6 55.5 6s105.833 -9.33301 212.5 -28l23 28c26.667 0 47.334 -6 62.001 -18v-10l-318 -392h211c11.333 17.333 19.333 38.333 24 63l3 13
c18.667 -4.66699 33.667 -13 45 -25c-15.333 -53.333 -23 -91.666 -23 -114.999c-6 -4 -36.5 -6 -91.5 -6s-123.5 8 -205.5 24l-19 -24c-27.333 0 -48.333 8 -63 24v10l317 386h-184c-11.333 -17.333 -19.666 -38.333 -24.999 -63zM268.998 670.5
c12.667 6.33301 25.666 9.5 38.999 9.5s23.833 -3 31.5 -9s11.5 -12.667 11.5 -20l-5 -36c-7.33301 -20 -28.666 -30 -63.999 -30c-13.333 0 -23.5 3 -30.5 9s-10.5 13 -10.5 21l4 31c3.33301 10 11.333 18.167 24 24.5z" />
    <glyph glyph-name="dotlessj" unicode="&#x237;" horiz-adv-x="243" 
d="M-40 -230c35.333 41.333 63.5 83.167 84.5 125.5s34.833 88.166 41.5 137.499s14.667 175 24 377h-87l10 43c44.667 5.33301 85 16 121 32c9.33301 0 17.5 -4.16699 24.5 -12.5s10.833 -19.166 11.5 -32.499c-4.66699 -58 -8.66699 -114.667 -12 -170
c-6.66699 -107.333 -12 -177.333 -16 -210c-17.333 -143.333 -79.333 -250 -186 -320h-9c-4.66699 9.33301 -7 19.333 -7 30z" />
    <glyph glyph-name="circumflex" unicode="&#x2c6;" 
d="M173 713l53 27c31.333 -49.333 68 -95.333 110 -138v-8l-52 -24c-36 30.667 -65 63 -87 97c-26.667 -30.667 -60 -58.667 -100 -84l-44 11v8c59.333 42.667 99.333 79.667 120 111z" />
    <glyph glyph-name="caron" unicode="&#x2c7;" 
d="M216 585l-53 -27c-31.333 49.333 -68 95.333 -110 138v8l52 24c38 -34 67.333 -67.667 88 -101c32 34.667 65 64 99 88l44 -11v-8c-45.333 -30.667 -85.333 -67.667 -120 -111z" />
    <glyph glyph-name="dotaccent" unicode="&#x2d9;" 
d="M136 670.5c12.667 6.33301 25.666 9.5 38.999 9.5s23.833 -3 31.5 -9s11.5 -12.667 11.5 -20l-5 -36c-7.33301 -20 -28.666 -30 -63.999 -30c-13.333 0 -23.5 3 -30.5 9s-10.5 13 -10.5 21l4 31c3.33301 10 11.333 18.167 24 24.5z" />
    <glyph glyph-name="ring" unicode="&#x2da;" horiz-adv-x="232" 
d="M59 686.5c15.333 19 34.499 28.499 57.499 28.499s40.667 -5.16699 53 -15.5s18.5 -26.666 18.5 -48.999s-7.66699 -43 -23 -62s-34.666 -28.5 -57.999 -28.5c-47.333 0 -71 20.333 -71 61c0 24.667 7.66699 46.5 23 65.5zM123.999 671.999h-19
c-6 -1.33301 -11.667 -5.5 -17 -12.5s-8.16602 -17.333 -8.49902 -31s5.83398 -21.834 18.501 -24.501h19c6 1.33301 11.667 5.5 17 12.5s8.16602 17.333 8.49902 31s-5.83398 21.834 -18.501 24.501z" />
    <glyph glyph-name="ogonek" unicode="&#x2db;" horiz-adv-x="833" 
d="M537 28v-11.0029c-67.333 -44.667 -101 -87.667 -101 -129c0 -31.333 9.33301 -50.666 28 -57.999h95c0 -15.333 -3.33301 -29.666 -10 -42.999c-54 -21.333 -89.833 -32 -107.5 -32s-35 7.33301 -52 22s-25.5 38.334 -25.5 71.001c0 61.333 40 121.333 120 180h53z" />
    <glyph glyph-name="tilde" unicode="&#x2dc;" 
d="M346 587c-14 -4.66699 -30.5 -7 -49.5 -7s-46 6.33301 -81 19s-55.833 19 -62.5 19h-23c-7.33301 -8 -13.666 -18.333 -18.999 -31h-37l-7 8l17 88c14 4.66699 30 7 48 7s44.833 -6.33301 80.5 -19s57.167 -19 64.5 -19h23c7.33301 8 13.666 18.333 18.999 31h37l7 -8z
" />
    <glyph glyph-name="dotaccentcmb" unicode="&#x307;" 
d="M136 670.5c12.667 6.33301 25.666 9.5 38.999 9.5s23.833 -3 31.5 -9s11.5 -12.667 11.5 -20l-5 -36c-7.33301 -20 -28.666 -30 -63.999 -30c-13.333 0 -23.5 3 -30.5 9s-10.5 13 -10.5 21l4 31c3.33301 10 11.333 18.167 24 24.5z" />
    <glyph glyph-name="endash" unicode="&#x2013;" horiz-adv-x="512" 
d="M167 353c92 0 175 3.33301 249 10l16 -14l-13 -63h-343c-3.33301 14 -5 25 -5 33l5 34h91z" />
    <glyph glyph-name="emdash" unicode="&#x2014;" horiz-adv-x="632" 
d="M283 353c92 0 175 3.33301 249 10l16 -14l-13 -63h-433c-3.33301 14 -5 25 -5 33l5 34h181z" />
    <glyph glyph-name="quoteleft" unicode="&#x2018;" horiz-adv-x="233" 
d="M135 715c10.667 -3.33301 22.001 -9.66699 34.001 -19v-12c-18.667 -16 -35.334 -35.833 -50.001 -59.5s-22 -43.667 -22 -60s3.33301 -31 10 -44s13 -19.5 19 -19.5v-31c-26 -8.66699 -52.667 -24.334 -80 -47.001h-12c-12.667 19.333 -19 42 -19 68s10 58.333 30 97
s40 69.334 60 92.001z" />
    <glyph glyph-name="quoteright" unicode="&#x2019;" horiz-adv-x="233" 
d="M84 423c-10.667 3.33301 -22.001 9.66699 -34.001 19v12c18.667 16 35.334 35.833 50.001 59.5s22 43.667 22 60s-3.33301 31 -10 44s-13 19.5 -19 19.5v31c26 8.66699 52.667 24.334 80 47.001h12c12.667 -19.333 19 -42 19 -68s-10 -58.333 -30 -97
s-40 -69.334 -60 -92.001z" />
    <glyph glyph-name="quotesinglbase" unicode="&#x201a;" horiz-adv-x="227" 
d="M54 -174c-10.667 3.33301 -22.001 9.66602 -34.001 18.999v12c18.667 16 35.334 35.833 50.001 59.5s22 43.667 22 60s-3.33301 31 -10 44s-13 19.5 -19 19.5v31c26 8.66699 52.667 24.334 80 47.001h12c12.667 -19.333 19 -42 19 -68s-10 -58.333 -30 -97
s-40 -69.667 -60 -93z" />
    <glyph glyph-name="quotedblleft" unicode="&#x201c;" horiz-adv-x="370" 
d="M135 715c10.667 -3.33301 22.001 -9.66699 34.001 -19v-12c-18.667 -16 -35.334 -35.833 -50.001 -59.5s-22 -43.667 -22 -60s3.33301 -31 10 -44s13 -19.5 19 -19.5v-31c-26 -8.66699 -52.667 -24.334 -80 -47.001h-12c-12.667 19.333 -19 42 -19 68s10 58.333 30 97
s40 69.334 60 92.001zM283.001 714.999c10.667 -3.33301 22.001 -9.66699 34.001 -19v-12c-18.667 -16 -35.334 -35.833 -50.001 -59.5s-22 -43.667 -22 -60s3.33301 -31 10 -44s13 -19.5 19 -19.5v-31c-26 -8.66699 -52.667 -24.334 -80 -47.001h-12
c-12.667 19.333 -19 42 -19 68s10 58.333 30 97s40 69.334 60 92.001z" />
    <glyph glyph-name="quotedblright" unicode="&#x201d;" horiz-adv-x="425" 
d="M103 423c-10.667 3.33301 -22.001 9.66699 -34.001 19v12c18.667 16 35.334 35.833 50.001 59.5s22 43.667 22 60s-3.33301 31 -10 44s-13 19.5 -19 19.5v31c26 8.66699 52.667 24.334 80 47.001h12c12.667 -19.333 19 -42 19 -68s-10 -58.333 -30 -97
s-40 -69.334 -60 -92.001zM250.999 423.001c-10.667 3.33301 -22.001 9.66699 -34.001 19v12c18.667 16 35.334 35.833 50.001 59.5s22 43.667 22 60s-3.33301 31 -10 44s-13 19.5 -19 19.5v31c26 8.66699 52.667 24.334 80 47.001h12c12.667 -19.333 19 -42 19 -68
s-10 -58.333 -30 -97s-40 -69.334 -60 -92.001z" />
    <glyph glyph-name="quotedblbase" unicode="&#x201e;" horiz-adv-x="366" 
d="M54 -174c-10.667 3.33301 -22.001 9.66602 -34.001 18.999v12c18.667 16 35.334 35.833 50.001 59.5s22 43.667 22 60s-3.33301 31 -10 44s-13 19.5 -19 19.5v31c26 8.66699 52.667 24.334 80 47.001h12c12.667 -19.333 19 -42 19 -68s-10 -58.333 -30 -97
s-40 -69.667 -60 -93zM201.999 -174c-10.667 3.33301 -22.001 9.66602 -34.001 18.999v12c18.667 16 35.334 35.833 50.001 59.5s22 43.667 22 60s-3.33301 31 -10 44s-13 19.5 -19 19.5v31c26 8.66699 52.667 24.334 80 47.001h12c12.667 -19.333 19 -42 19 -68
s-10 -58.333 -30 -97s-40 -69.667 -60 -93z" />
    <glyph glyph-name="bullet" unicode="&#x2022;" horiz-adv-x="250" 
d="M69 297c17.333 8.66699 35.1699 13 53.5029 13s32.666 -4.16699 42.999 -12.5s15.5 -17.5 15.5 -27.5l-7 -50c-4.66699 -13.333 -15.334 -23.5 -32.001 -30.5s-34.5 -10.5 -53.5 -10.5s-33.5 4 -43.5 12s-15 17.667 -15 29l5 43c5.33301 14 16.666 25.333 33.999 34z" />
    <glyph glyph-name="guilsinglleft" unicode="&#x2039;" horiz-adv-x="442" 
d="M164 261l175.998 -107.999v-18l-25 -28c-31.333 23.333 -67.666 47.166 -108.999 71.499s-74.666 42.833 -99.999 55.5l-39 19l4 40c43.333 21.333 86.833 46.666 130.5 75.999s76.5 55.333 98.5 78l61 -35v-18c-22 -21.333 -53 -45.666 -93 -72.999
s-74.667 -47.333 -104 -60z" />
    <glyph glyph-name="guilsinglright" unicode="&#x203a;" horiz-adv-x="380" 
d="M260 313l-175.998 107.999v18l25 28c31.333 -23.333 67.666 -47.166 108.999 -71.499s74.666 -42.833 99.999 -55.5l39 -19l-4 -40c-43.333 -21.333 -86.833 -46.666 -130.5 -75.999s-76.5 -55.333 -98.5 -78l-61 35v18c22 21.333 53 45.666 93 72.999
s74.667 47.333 104 60z" />
    <glyph glyph-name="Euro" unicode="&#x20ac;" horiz-adv-x="579" 
d="M484 585c0 -11.333 -6.66699 -23.002 -20 -35.002h-154c-54.667 -29.333 -94.667 -75 -120 -137h20c54.667 0 117.667 3 189 9l15 -13l-13 -50h-228c-6 -26.667 -9.66699 -57.667 -11 -93h38c54.667 0 117.667 3 189 9l15 -13l-12 -50h-226
c6.66699 -33.333 19.667 -62.666 39 -87.999s41 -41.333 65 -48h170c0 -15.333 -3 -29 -9 -41c-56 -23.333 -110 -35 -162 -35s-94.5 21 -127.5 63s-51.167 91.667 -54.5 149h-47c-3.33301 6.66699 -5 14 -5 22l5 32h48c3.33301 34 8.66602 65 15.999 93h-55
c-3.33301 6.66699 -5 14 -5 22l5 32h73c25.333 62 60.833 111.5 106.5 148.5s94.834 55.5 147.501 55.5c20.667 0 40 -2.66699 58 -8s30.667 -10.666 38 -15.999z" />
    <glyph glyph-name="minus" unicode="&#x2212;" horiz-adv-x="407" 
d="M144 343c58.667 0 125 3.33301 199 10l16 -14l-13 -53h-293c-3.33301 7.33301 -5 15 -5 23l5 34h91z" />
    <glyph glyph-name="fl" unicode="&#xfb02;" horiz-adv-x="578" 
d="M301 470c0 -16 -3.33301 -36 -10 -60h-107l-31 -410c-32.667 -10 -64 -15 -94 -15c10.667 44.667 18.5 86 23.5 124s14.833 138.333 29.5 301h-59c0 15.333 3.33301 29.666 10 42.999c26 5.33301 45.333 21.333 58 48c12.667 120 41.334 202.333 86.001 247
c21.333 21.333 42.333 32 63 32c40.667 0 109.334 -6.66699 206.001 -20l49 -6c-12.667 -51.333 -20.334 -87.333 -23.001 -108c-16.667 -157.333 -33.334 -352.666 -50.001 -585.999h78c0 -15.333 -3.33301 -29.666 -10 -42.999c-44.667 -5.33301 -85 -16 -121 -32
c-10 0 -18.5 3.66699 -25.5 11s-10.5 18.666 -10.5 33.999c34.667 292.667 57.667 521 69 685h-176c-27.333 -34.667 -47 -95 -59 -181l-8 -69z" />
    <glyph glyph-name=".null" horiz-adv-x="0" 
 />
    <glyph glyph-name="nonmarkingreturn" horiz-adv-x="333" 
 />
    <glyph glyph-name="CR" horiz-adv-x="300" 
 />
    <glyph glyph-name="_0000" horiz-adv-x="0" 
 />
    <glyph glyph-name="commaaccent" horiz-adv-x="200" 
d="M78 -288c-10 3.33301 -19.666 9.66504 -28.999 18.998v12c3.33301 2.66699 7.66602 6.33398 12.999 11.001s12.5 15.334 21.5 32.001s13.5 33 13.5 49s-3.33301 29.5 -10 40.5s-13 16.5 -19 16.5v31c29.333 6.66699 54.333 14.667 75 24h17
c9.33301 -14 14 -32.5 14 -55.5s-8 -50.5 -24 -82.5s-32 -56.333 -48 -73z" />
    <glyph glyph-name="dotaccentcmb.cap" horiz-adv-x="341" 
d="M136 820.5c12.667 6.33301 25.666 9.5 38.999 9.5s23.833 -3 31.5 -9s11.5 -12.667 11.5 -20l-5 -36c-7.33301 -20 -28.666 -30 -63.999 -30c-13.333 0 -23.5 3 -30.5 9s-10.5 13 -10.5 21l4 31c3.33301 10 11.333 18.167 24 24.5z" />
    <glyph glyph-name="grave.cap" 
d="M169 900c31.333 -46.667 62.333 -86.667 93 -120l18 -19v-7l-49 -19c-20 13.333 -40 29 -60 47s-35 32.667 -45 44l-14 17v10c18 23.333 37 39 57 47z" />
    <glyph glyph-name="acute.cap" 
d="M228 890c22 -4 45.332 -12.333 69.999 -25v-10c-42 -49.333 -85.667 -89.333 -131 -120l-49 19v7c40.667 37.333 77.334 80.333 110.001 129z" />
    <glyph glyph-name="circumflex.cap" 
d="M173 878l53 27c31.333 -49.333 68 -95.333 110 -138v-8l-52 -24c-36 30.667 -65 63 -87 97c-26.667 -30.667 -60 -58.667 -100 -84l-44 11v8c59.333 42.667 99.333 79.667 120 111z" />
    <glyph glyph-name="dieresis.cap" 
d="M89 820.5c12.667 6.33301 25.666 9.5 38.999 9.5s23.833 -3 31.5 -9s11.5 -12.667 11.5 -20l-5 -36c-7.33301 -20 -28.666 -30 -63.999 -30c-13.333 0 -23.5 3 -30.5 9s-10.5 13 -10.5 21l4 31c3.33301 10 11.333 18.167 24 24.5zM286.999 820.5
c12.667 6.33301 25.666 9.5 38.999 9.5s23.833 -3 31.5 -9s11.5 -12.667 11.5 -20l-5 -36c-7.33301 -20 -28.666 -30 -63.999 -30c-13.333 0 -23.5 3 -30.5 9s-10.5 13 -10.5 21l4 31c3.33301 10 11.333 18.167 24 24.5z" />
    <glyph glyph-name="ring.cap" horiz-adv-x="232" 
d="M59 861.5c15.333 19 34.499 28.499 57.499 28.499s40.667 -5.16699 53 -15.5s18.5 -26.666 18.5 -48.999s-7.66699 -43 -23 -62s-34.666 -28.5 -57.999 -28.5c-47.333 0 -71 20.333 -71 61c0 24.667 7.66699 46.5 23 65.5zM123.999 846.999h-19
c-6 -1.33301 -11.667 -5.5 -17 -12.5s-8.16602 -17.333 -8.49902 -31s5.83398 -21.834 18.501 -24.501h19c6 1.33301 11.667 5.5 17 12.5s8.16602 17.333 8.49902 31s-5.83398 21.834 -18.501 24.501z" />
    <glyph glyph-name="tilde.cap" 
d="M346 742c-14 -4.66699 -30.5 -7 -49.5 -7s-46 6.33301 -81 19s-55.833 19 -62.5 19h-23c-7.33301 -8 -13.666 -18.333 -18.999 -31h-37l-7 8l17 88c14 4.66699 30 7 48 7s44.833 -6.33301 80.5 -19s57.167 -19 64.5 -19h23c7.33301 8 13.666 18.333 18.999 31h37l7 -8z
" />
    <glyph glyph-name="caron.cap" 
d="M216 763l-53 -27c-31.333 49.333 -68 95.333 -110 138v8l52 24c38 -34 67.333 -67.667 88 -101c32 34.667 65 64 99 88l44 -11v-8c-45.333 -30.667 -85.333 -67.667 -120 -111z" />
    </font>
</defs>
</svg>
